<svg width="130" height="65" viewBox="0 0 130 65" fill="none" xmlns="http://www.w3.org/2000/svg">
<path d="M119.997 38.4764C119.997 38.1875 120.232 37.9528 120.539 37.9528C120.846 37.9528 121.08 38.1875 121.08 38.4764C121.08 38.7653 120.846 39.0181 120.539 39.0181C120.232 39.0181 119.997 38.7833 119.997 38.4764ZM120.105 38.4764C120.105 38.7111 120.304 38.9097 120.557 38.9097C120.792 38.9097 120.99 38.7292 120.99 38.4764C120.99 38.2417 120.792 38.0611 120.557 38.0611C120.286 38.0611 120.105 38.2597 120.105 38.4764Z" fill="#A8ACB4"/>
<path d="M120.81 38.7833H120.701L120.521 38.5125H120.413V38.7833H120.34V38.1875H120.611C120.665 38.1875 120.719 38.1875 120.756 38.2236C120.81 38.2417 120.828 38.2958 120.828 38.35C120.828 38.4583 120.738 38.5125 120.629 38.5125L120.81 38.7833ZM120.521 38.4403C120.611 38.4403 120.719 38.4583 120.719 38.35C120.719 38.2778 120.647 38.2597 120.575 38.2597H120.413V38.4403H120.521Z" fill="#A8ACB4"/>
<path d="M117.957 39.0181C121.748 35.7681 127.075 32.6083 130 31.4708C129.548 31.1819 128.844 30.7667 128.05 30.3153C124.276 31.5611 119.871 34.3236 115.935 37.4472C116.603 37.9528 117.307 38.4764 117.957 39.0181Z" fill="#A8ACB4"/>
<path d="M116.224 30.1889C115.664 29.9181 115.05 29.6653 114.581 29.4486C113.154 30.1528 111.294 31.2181 108.947 32.8972C109.453 33.1681 109.994 33.4931 110.572 33.8181C112.378 32.4819 114.201 31.2181 116.224 30.1889Z" fill="#A8ACB4"/>
<path d="M119.6 28.6361C118.914 28.2569 116.53 27.3722 114.887 26.993C114.4 27.1736 113.714 27.4444 113.244 27.643C113.84 27.8055 116.061 28.4014 117.957 29.3583C118.444 29.1236 119.13 28.8347 119.6 28.6361Z" fill="#A8ACB4"/>
<path d="M111.529 28.4014C109.417 29.3764 107.196 30.7125 105.986 31.4889C106.42 31.6875 106.853 31.85 107.449 32.1389C110.121 30.3333 112.215 29.232 113.046 28.8708C112.45 28.6542 111.891 28.5097 111.529 28.4014Z" fill="#A8ACB4"/>
<path d="M121.189 28.0764C121.676 27.9139 122.236 27.7694 122.724 27.625C121.315 27.0292 119.546 26.3972 117.957 26C117.704 26.0722 116.946 26.2708 116.422 26.4333C116.964 26.5958 118.751 27.0111 121.189 28.0764ZM112.288 34.8653C112.865 35.2083 113.479 35.6778 114.075 36.075C118.029 33.0056 121.929 30.6403 126.208 29.3042C125.613 28.9972 125.089 28.7264 124.421 28.4014C121.857 29.0514 117.47 30.8028 112.288 34.8653Z" fill="#A8ACB4"/>
<path d="M0 38.0792H2.88889C4.35139 38.0792 5.0375 37.3208 5.0375 36.2555C5.0375 35.3889 4.58611 34.8111 3.64722 34.6305C4.47778 34.4319 4.85694 33.9264 4.85694 33.1861C4.85694 32.2472 4.17083 31.4889 2.70833 31.4889H0.0180556V38.0792H0ZM2.50972 35.2805C3.05139 35.2805 3.43056 35.5514 3.43056 36.093C3.43056 36.6708 3.06944 36.9055 2.50972 36.9055H1.57083V35.2625H2.50972V35.2805ZM2.32917 32.6444C2.87083 32.6444 3.25 32.8792 3.25 33.4208C3.25 33.9625 2.88889 34.1972 2.32917 34.1972H1.57083V32.6444H2.32917ZM10.8694 31.4708H9.24444L6.77083 38.0792H8.41389L8.86528 36.7069H11.2486L11.7 38.0792H13.3611L10.8694 31.4708ZM10.0569 33.0597L10.8333 35.4972H9.24444L10.0569 33.0597ZM21.5944 31.4708H20.0958V35.8944L17.2792 31.4708H15.6V38.0792H17.0986V33.6736L19.9153 38.0792H21.5944V31.4708ZM28.5097 38.0792L26.3431 34.7208V38.0792H24.7361V31.4708H26.3431V34.6486L28.4014 31.4708H30.1889L28.0222 34.6486L30.3875 38.0792H28.5097ZM36.075 34.775C36.075 36.093 36.8694 36.9055 37.8986 36.9055C38.9278 36.9055 39.7222 36.093 39.7222 34.775C39.7222 33.4569 38.9278 32.6444 37.8986 32.6444C36.8694 32.6444 36.075 33.4569 36.075 34.775ZM34.3778 34.775C34.3958 32.843 35.75 31.3264 37.8986 31.3264C40.0472 31.3264 41.4014 32.843 41.4194 34.775C41.4014 36.7069 40.0472 38.2236 37.8986 38.2236C35.75 38.2236 34.3958 36.7069 34.3778 34.775ZM43.6222 38.0792H45.2292V35.4792H47.3236V34.2153H45.2292V32.7347H47.7569L48.0458 31.4708H43.6222V38.0792ZM55.5389 31.4708H53.9139L51.4403 38.0792H53.0833L53.5347 36.7069H55.9181L56.3694 38.0792H58.0306L55.5389 31.4708ZM54.7264 33.0597L55.5028 35.4972H53.9139L54.7264 33.0597ZM67.5639 31.4708H65.6861L63.9708 35.0458L62.2556 31.4708H60.3778V38.0792H61.8222V33.6555L63.9528 38.0792L66.0833 33.6555V38.0792H67.5819L67.5639 31.4708ZM70.6875 38.0792H75.2014V36.8153H72.2944V35.3347H74.5875V34.1069H72.2944V32.7347H74.9486L75.2375 31.4708H70.6875V38.0792ZM81.3222 38.0792H83.0736L81.4306 35.2805C82.3333 35.0278 82.7667 34.3958 82.7667 33.475C82.7667 32.2833 82.0444 31.4889 80.4194 31.4889H77.8736V38.0972H79.4444V35.4972H79.8778L81.3222 38.0792ZM80.1125 32.6986C80.7806 32.6986 81.1236 32.9875 81.1236 33.5472C81.1236 34.1069 80.7806 34.3958 80.1125 34.3958H79.4264V32.6986H80.1125ZM85.475 38.0792H87.0819V31.4889H85.475V38.0792ZM94.9903 36.3097C94.3764 36.743 93.8347 36.8875 93.275 36.8875C92.0472 36.8875 91.1806 36.0389 91.1806 34.775C91.1806 33.5111 92.0292 32.6625 93.2208 32.6625C93.7625 32.6625 94.3042 32.8069 94.9 33.2403V31.7417C94.3583 31.4347 93.7264 31.3083 93.0222 31.3083C90.8375 31.3083 89.4653 32.825 89.4472 34.7569C89.4653 36.7069 90.8014 38.2055 93.0222 38.2055C93.7625 38.2055 94.3944 38.0791 94.9722 37.7722V36.3097H94.9903ZM100.876 31.4708H99.2514L96.7778 38.0792H98.4208L98.8722 36.7069H101.256L101.707 38.0792H103.368L100.876 31.4708ZM100.064 33.0597L100.84 35.4972H99.2514L100.064 33.0597Z" fill="#A8ACB4"/>
</svg>
