<svg width="55" height="47" viewBox="0 0 55 47" fill="none" xmlns="http://www.w3.org/2000/svg">
<path d="M31.1713 20.7225C31.1713 18.6821 29.5164 17.0221 27.4822 17.0221C25.4479 17.0221 23.793 18.6821 23.793 20.7225C23.793 22.4385 24.9636 23.8851 26.5458 24.302L26.5645 28.2229C26.5669 28.7406 26.9874 29.1454 27.5045 29.1454H27.5091C28.0283 29.1454 28.4472 28.7385 28.4448 28.2193L28.4261 24.2997C30.0046 23.8803 31.1713 22.4357 31.1713 20.7225ZM27.4823 22.5427C26.4849 22.5427 25.6734 21.7261 25.6734 20.7225C25.6734 19.7189 26.4848 18.9024 27.4823 18.9024C28.4796 18.9024 29.2911 19.7189 29.2911 20.7225C29.2911 21.7261 28.4796 22.5427 27.4823 22.5427Z" fill="#2770F1"/>
<path d="M51.471 19.6268C49.8509 19.6268 48.4833 20.6838 48.0704 22.2115H41.7421C42.1133 20.4487 42.3833 18.6859 42.5932 16.8056H47.1849C47.7042 16.8056 48.0662 16.4211 48.0662 15.9019V6.9233C49.594 6.5128 50.6897 5.1452 50.6897 3.52494C50.6897 1.58125 49.1213 0 47.1753 0C45.2294 0 43.6243 1.58125 43.6243 3.52494C43.6243 5.14156 44.7756 6.50657 46.1859 6.92048V14.9252H42.7875C42.9242 13.515 43.0332 11.996 43.1343 10.4987C43.1749 9.89847 42.6342 9.44096 42.0517 9.53145C40.9353 9.74499 39.8064 9.90588 38.6675 9.90588C34.8845 9.90564 31.4084 8.1903 28.0972 4.71413C27.6265 4.31303 27.1634 4.32161 26.7083 4.73987C23.192 8.86499 18.3129 10.5799 12.949 9.5311C12.3644 9.41675 11.7899 9.89836 11.8305 10.4989C11.9336 12.02 12.0421 13.515 12.1745 14.9252H9.04915V6.92048C10.4594 6.50657 11.623 5.14168 11.623 3.52494C11.623 1.58125 10.0349 0 8.089 0C6.14308 0 4.56735 1.58125 4.56735 3.52494C4.56735 5.14532 5.64103 6.5128 7.1688 6.9233V15.9018C7.1688 16.421 7.56979 16.8054 8.089 16.8054H12.3647C12.5724 18.6858 12.8374 20.4486 13.2031 22.2114H6.92976C6.51668 20.6836 5.1492 19.6267 3.52917 19.6267C1.58313 19.6268 0 21.2081 0 23.1518C0 25.0954 1.58313 26.6766 3.52905 26.6766C5.14908 26.6766 6.51656 25.6197 6.92965 24.0919H13.6514C14.1549 25.9763 14.8666 27.7242 15.6595 29.4979H8.089C7.56979 29.4979 7.1688 29.8824 7.1688 30.4016V39.8516C5.64103 40.2638 4.57005 41.6301 4.57005 43.2486C4.57005 45.1923 6.14813 46.7735 8.09405 46.7735C10.0401 46.7735 11.6306 45.1923 11.6306 43.2486C11.6306 41.6301 10.5769 40.2638 9.04915 39.8516V31.3782H16.7357C19.1435 35.1389 22.5856 37.7876 27.1671 39.4961C27.3882 39.5624 27.6098 39.563 27.8314 39.4978C32.3704 37.7611 35.7883 35.0214 38.1883 31.3782H46.1859V39.8516C44.7756 40.2638 43.6264 41.6301 43.6264 43.2486C43.6264 45.1923 45.2242 46.7735 47.1703 46.7735C49.1163 46.7735 50.6772 45.1923 50.6772 43.2486C50.6772 41.6301 49.594 40.2638 48.0662 39.8516V30.4017C48.0662 29.8825 47.7042 29.498 47.1849 29.498H39.2708C40.079 27.7296 40.7888 25.9741 41.2913 24.092H48.0702C48.4833 25.6198 49.8508 26.6768 51.4708 26.6768C53.4169 26.6766 55 25.0954 55 23.1517C55 21.208 53.4169 19.6268 51.471 19.6268V19.6268ZM45.5414 3.52494C45.5414 2.61802 46.281 1.88034 47.19 1.88034C48.099 1.88034 48.8387 2.61802 48.8387 3.52494C48.8387 4.43185 48.099 5.16953 47.19 5.16953C46.281 5.16953 45.5414 4.43185 45.5414 3.52494ZM6.43523 3.52494C6.43523 2.61802 7.17491 1.88034 8.08394 1.88034C8.99297 1.88034 9.73265 2.61802 9.73265 3.52494C9.73265 4.43185 8.99297 5.16953 8.08394 5.16953C7.17491 5.16953 6.43523 4.43185 6.43523 3.52494ZM3.52905 24.7963C2.62002 24.7963 1.88034 24.0586 1.88034 23.1518C1.88034 22.2449 2.62002 21.5072 3.52905 21.5072C4.43808 21.5072 5.17776 22.2449 5.17776 23.1518C5.17787 24.0586 4.43819 24.7963 3.52905 24.7963V24.7963ZM9.7377 43.2486C9.7377 44.1555 8.99802 44.8932 8.089 44.8932C7.17997 44.8932 6.44041 44.1555 6.44041 43.2486C6.44041 42.3417 7.17997 41.604 8.089 41.604C8.99802 41.604 9.7377 42.3417 9.7377 43.2486ZM48.8337 43.2486C48.8337 44.1555 48.094 44.8932 47.1849 44.8932C46.2759 44.8932 45.5362 44.1555 45.5362 43.2486C45.5362 42.3417 46.2759 41.604 47.1849 41.604C48.094 41.604 48.8337 42.3417 48.8337 43.2486ZM13.7895 11.5709C18.8623 12.2247 24.0452 10.6444 27.46 6.73621C31.1557 10.3194 35.9754 12.4311 41.1761 11.5638C40.2971 23.646 38.486 33.2084 27.4913 37.5892C16.49 33.3114 14.6745 23.7149 13.7895 11.5709V11.5709ZM51.471 24.7963C50.5619 24.7963 49.8222 24.0586 49.8222 23.1518C49.8222 22.2449 50.5619 21.5072 51.471 21.5072C52.38 21.5072 53.1197 22.2449 53.1197 23.1518C53.1197 24.0586 52.38 24.7963 51.471 24.7963Z" fill="#2770F1"/>
</svg>
