<svg width="55" height="55" viewBox="0 0 55 55" fill="none" xmlns="http://www.w3.org/2000/svg">
<path d="M47.9032 39.0376V35.4839C47.9018 34.3079 47.4341 33.1806 46.6025 32.3491C45.771 31.5176 44.6437 31.0498 43.4677 31.0484H36.0002C36.8212 29.5337 37.4836 27.9382 37.9766 26.2873L41.3476 23.5897C41.8716 23.1714 42.2546 22.6024 42.445 21.9595C42.6355 21.3167 42.6241 20.6309 42.4125 19.9946C42.201 19.3584 41.7993 18.8024 41.2618 18.4017C40.7243 18.0009 40.0768 17.7747 39.4066 17.7535L41.3831 12.3191C41.8874 10.9322 42.05 9.44424 41.857 7.98118C41.6641 6.51813 41.1214 5.12313 40.2748 3.91438C39.4283 2.70563 38.3028 1.71875 36.9938 1.03736C35.6848 0.355961 34.2309 0.000125939 32.7552 9.34682e-07H25.2237C19.5882 -0.00140457 14.066 1.58235 9.2879 4.57032C9.14434 4.65925 9.02914 4.78731 8.95585 4.93945C8.88256 5.09159 8.85422 5.26149 8.87415 5.42919C8.89409 5.59688 8.96148 5.7554 9.0684 5.88611C9.17532 6.01683 9.31733 6.11431 9.47774 6.1671L11.6165 6.87677C11.9109 6.97497 12.1821 7.13228 12.4135 7.33905C12.6449 7.54581 12.8316 7.79768 12.9622 8.07919C13.0928 8.3607 13.1645 8.66592 13.1729 8.97612C13.1813 9.28633 13.1262 9.59498 13.011 9.88315C12.7985 10.4144 12.7009 10.9846 12.7246 11.5563C12.7483 12.128 12.8928 12.6882 13.1485 13.2L15.4355 17.7694C14.7812 17.8215 14.1578 18.0691 13.6461 18.4801C13.1343 18.891 12.758 19.4463 12.5659 20.0739C12.3739 20.7015 12.3749 21.3723 12.569 21.9993C12.7631 22.6262 13.1412 23.1804 13.6542 23.5897L17.0252 26.2873C17.5176 27.9381 18.1794 29.5336 18.9998 31.0484H11.5323C10.3563 31.0498 9.22896 31.5176 8.39745 32.3491C7.56594 33.1806 7.09818 34.3079 7.09677 35.4839V39.0376C4.99723 39.9147 3.20358 41.3924 1.94099 43.2854C0.6784 45.1783 0.00314603 47.402 0 49.6774V54.1129C0 54.3482 0.0934617 54.5738 0.259825 54.7402C0.426187 54.9065 0.651824 55 0.887097 55H54.1129C54.3482 55 54.5738 54.9065 54.7402 54.7402C54.9065 54.5738 55 54.3482 55 54.1129V49.6774C54.9969 47.402 54.3216 45.1783 53.059 43.2854C51.7964 41.3924 50.0028 39.9147 47.9032 39.0376ZM34.5968 17.7419H29.2742C29.0389 17.7419 28.8133 17.8354 28.6469 18.0018C28.4806 18.1681 28.3871 18.3938 28.3871 18.629V19.5161H26.6129V18.629C26.6129 18.3938 26.5194 18.1681 26.3531 18.0018C26.1867 17.8354 25.9611 17.7419 25.7258 17.7419H17.7419V16.4423L23.2792 12.7511C24.4707 11.9551 25.8719 11.5309 27.3048 11.5323C29.355 11.5299 31.3437 10.8322 32.9459 9.55315L34.3954 8.39371L35.9168 10.6771C36.7927 11.9878 37.2595 13.5291 37.2581 15.1055V17.7419H34.5968ZM33.7097 19.5161V22.1774C33.7097 22.4127 33.6162 22.6383 33.4499 22.8047C33.2835 22.9711 33.0579 23.0645 32.8226 23.0645H31.0484C30.8131 23.0645 30.5875 22.9711 30.4211 22.8047C30.2548 22.6383 30.1613 22.4127 30.1613 22.1774V19.5161H33.7097ZM24.8387 19.5161V22.1774C24.8387 22.4127 24.7452 22.6383 24.5789 22.8047C24.4125 22.9711 24.1869 23.0645 23.9516 23.0645H22.1774C21.9421 23.0645 21.7165 22.9711 21.5501 22.8047C21.3838 22.6383 21.2903 22.4127 21.2903 22.1774V19.5161H24.8387ZM40.8064 21.0242C40.8069 21.2505 40.7562 21.474 40.6582 21.678C40.5602 21.882 40.4174 22.0612 40.2405 22.2023L38.6322 23.4886C38.8666 22.1768 38.9957 20.8484 39.0181 19.5161H39.2984C39.4964 19.5161 39.6925 19.5551 39.8755 19.6309C40.0585 19.7067 40.2247 19.8178 40.3647 19.9578C40.5048 20.0979 40.6159 20.2641 40.6917 20.4471C40.7674 20.6301 40.8064 20.8262 40.8064 21.0242ZM14.6575 10.5423C14.8625 10.0297 14.9605 9.4807 14.9457 8.9289C14.9309 8.3771 14.8035 7.83414 14.5713 7.33333C14.3391 6.83253 14.0071 6.38444 13.5956 6.01656C13.184 5.64867 12.7017 5.36874 12.1781 5.19395L11.9066 5.10524C16.0045 2.91746 20.5784 1.77337 25.2237 1.77419H32.7552C33.9454 1.77442 35.118 2.06145 36.1738 2.61098C37.2295 3.16051 38.1373 3.95635 38.8203 4.93112C39.5032 5.9059 39.9412 7.03089 40.0972 8.21084C40.2531 9.39079 40.1224 10.5909 39.7162 11.7097L38.9453 13.8298C38.7526 12.3486 38.2214 10.9317 37.3929 9.68887L35.3348 6.60089C35.2665 6.49861 35.1777 6.41164 35.074 6.34552C34.9704 6.27939 34.854 6.23555 34.7325 6.21678C34.611 6.19843 34.4871 6.20526 34.3683 6.23685C34.2496 6.26844 34.1386 6.32411 34.0423 6.4004L31.8379 8.16839C30.55 9.19538 28.9521 9.75573 27.3048 9.75807C25.5214 9.75644 23.7776 10.2844 22.2945 11.275L16.3625 15.2297C16.3075 15.267 16.2569 15.3105 16.2117 15.3592L14.7356 12.406C14.5917 12.1185 14.5104 11.8038 14.4969 11.4825C14.4835 11.1613 14.5382 10.8408 14.6575 10.5423ZM14.7604 22.204C14.5156 22.0091 14.3374 21.7428 14.2507 21.4421C14.1639 21.1414 14.1729 20.8212 14.2764 20.5258C14.3798 20.2304 14.5726 19.9745 14.8279 19.7936C15.0833 19.6127 15.3886 19.5157 15.7016 19.5161H15.9802C16.0025 20.849 16.1315 22.178 16.366 23.4903L14.7604 22.204ZM17.7561 19.5161H19.5161V22.1774C19.5161 22.8832 19.7965 23.5601 20.2956 24.0592C20.7947 24.5583 21.4716 24.8387 22.1774 24.8387H23.9516C24.6574 24.8387 25.3343 24.5583 25.8334 24.0592C26.3325 23.5601 26.6129 22.8832 26.6129 22.1774V21.2903H28.3871V22.1774C28.3871 22.8832 28.6675 23.5601 29.1666 24.0592C29.6657 24.5583 30.3426 24.8387 31.0484 24.8387H32.8226C33.5284 24.8387 34.2053 24.5583 34.7044 24.0592C35.2035 23.5601 35.4839 22.8832 35.4839 22.1774V19.5161H37.2439C37.175 23.5821 36.0398 27.5588 33.9519 31.0484H21.0481C18.9602 27.5588 17.825 23.5821 17.7561 19.5161ZM11.5323 32.8226H43.4677C44.1736 32.8226 44.8505 33.103 45.3496 33.6021C45.8486 34.1011 46.129 34.7781 46.129 35.4839V53.2258H8.87097V35.4839C8.87097 34.7781 9.15135 34.1011 9.65044 33.6021C10.1495 33.103 10.8264 32.8226 11.5323 32.8226ZM1.77419 49.6774C1.7766 47.8799 2.27473 46.1179 3.21378 44.5852C4.15284 43.0525 5.49643 41.8085 7.09677 40.9901V53.2258H1.77419V49.6774ZM53.2258 53.2258H47.9032V40.9901C49.5035 41.8086 50.847 43.0526 51.7861 44.5853C52.7251 46.118 53.2233 47.88 53.2258 49.6774V53.2258Z" fill="#2770F1"/>
<path d="M27.5 50.5645C28.2019 50.5645 28.8879 50.3564 29.4714 49.9665C30.055 49.5766 30.5098 49.0225 30.7783 48.3741C31.0469 47.7257 31.1172 47.0122 30.9803 46.3239C30.8433 45.6356 30.5054 45.0033 30.0091 44.5071C29.5129 44.0108 28.8806 43.6729 28.1923 43.536C27.504 43.399 26.7905 43.4693 26.1421 43.7379C25.4938 44.0064 24.9396 44.4613 24.5497 45.0448C24.1598 45.6283 23.9517 46.3144 23.9517 47.0162C23.9517 47.9573 24.3255 48.8598 24.991 49.5253C25.6564 50.1907 26.559 50.5645 27.5 50.5645ZM27.5 45.242C27.8509 45.242 28.194 45.346 28.4857 45.541C28.7775 45.7359 29.0049 46.013 29.1392 46.3372C29.2735 46.6614 29.3086 47.0181 29.2402 47.3623C29.1717 47.7065 29.0027 48.0226 28.7546 48.2707C28.5065 48.5188 28.1903 48.6878 27.8462 48.7563C27.502 48.8247 27.1453 48.7896 26.8211 48.6553C26.4969 48.521 26.2198 48.2936 26.0249 48.0019C25.8299 47.7101 25.7259 47.3671 25.7259 47.0162C25.7259 46.5456 25.9128 46.0943 26.2455 45.7616C26.5782 45.4289 27.0295 45.242 27.5 45.242Z" fill="#2770F1"/>
<path d="M21.5503 42.3207L22.8047 41.0664L19.8834 38.1452L22.8047 35.224L21.5503 33.9696L18.0019 37.518C17.8356 37.6843 17.7422 37.9099 17.7422 38.1452C17.7422 38.3804 17.8356 38.606 18.0019 38.7723L21.5503 42.3207Z" fill="#2770F1"/>
<path d="M33.4497 42.3207L36.9981 38.7723C37.1644 38.606 37.2578 38.3804 37.2578 38.1452C37.2578 37.9099 37.1644 37.6843 36.9981 37.518L33.4497 33.9696L32.1953 35.224L35.1165 38.1452L32.1953 41.0664L33.4497 42.3207Z" fill="#2770F1"/>
<path d="M29.4521 34.0645L24.1282 41.1603L25.5473 42.2251L30.8713 35.1293L29.4521 34.0645Z" fill="#2770F1"/>
</svg>
