<svg width="198" height="45" viewBox="0 0 198 45" fill="none" xmlns="http://www.w3.org/2000/svg">
<path d="M55.332 23.3655V10.5855H57.816V23.3655H55.332Z" fill="#233131"/>
<path d="M62.9664 15.1755V23.3655H60.4824V10.5855H62.4084L69.0684 18.9735V10.6035H71.5524V23.3655H69.5364L62.9664 15.1755Z" fill="#233131"/>
<path d="M83.0849 21.9255C82.0649 22.9455 80.8769 23.4555 79.5209 23.4555C78.6809 23.4555 77.8889 23.2875 77.1449 22.9515C76.4129 22.6155 75.7709 22.1535 75.2189 21.5655C74.6789 20.9775 74.2469 20.2875 73.9229 19.4955C73.6109 18.6915 73.4549 17.8275 73.4549 16.9035C73.4549 16.0275 73.6109 15.2055 73.9229 14.4375C74.2469 13.6575 74.6849 12.9795 75.2369 12.4035C75.8009 11.8155 76.4609 11.3535 77.2169 11.0175C77.9729 10.6695 78.7949 10.4955 79.6829 10.4955C80.8829 10.4955 81.9089 10.7475 82.7609 11.2515C83.6249 11.7555 84.2729 12.4335 84.7049 13.2855L82.8509 14.6535C82.5269 14.0175 82.0709 13.5315 81.4829 13.1955C80.9069 12.8595 80.2769 12.6915 79.5929 12.6915C79.0529 12.6915 78.5549 12.8055 78.0989 13.0335C77.6549 13.2615 77.2709 13.5735 76.9469 13.9695C76.6349 14.3655 76.3889 14.8215 76.2089 15.3375C76.0409 15.8535 75.9569 16.3995 75.9569 16.9755C75.9569 17.5755 76.0529 18.1395 76.2449 18.6675C76.4369 19.1835 76.7009 19.6335 77.0369 20.0175C77.3729 20.4015 77.7689 20.7075 78.2249 20.9355C78.6929 21.1515 79.1969 21.2595 79.7369 21.2595C80.9729 21.2595 82.0889 20.6775 83.0849 19.5135V18.6135H80.5109V16.7955H85.1369V23.3655H83.0849V21.9255Z" fill="#233131"/>
<path d="M87.2539 23.3655V10.5855H92.9059C93.4939 10.5855 94.0339 10.7115 94.5259 10.9635C95.0299 11.2035 95.4619 11.5275 95.8219 11.9355C96.1819 12.3315 96.4639 12.7875 96.6679 13.3035C96.8719 13.8075 96.9739 14.3175 96.9739 14.8335C96.9739 15.6615 96.7639 16.4175 96.3439 17.1015C95.9359 17.7735 95.3779 18.2595 94.6699 18.5595L97.5859 23.3655H94.7959L92.1859 19.0815H89.7379V23.3655H87.2539ZM89.7379 16.9035H92.8519C93.0799 16.9035 93.2899 16.8495 93.4819 16.7415C93.6859 16.6335 93.8599 16.4895 94.0039 16.3095C94.1479 16.1175 94.2619 15.8955 94.3459 15.6435C94.4299 15.3915 94.4719 15.1215 94.4719 14.8335C94.4719 14.5335 94.4239 14.2575 94.3279 14.0055C94.2319 13.7535 94.0999 13.5375 93.9319 13.3575C93.7759 13.1655 93.5899 13.0215 93.3739 12.9255C93.1699 12.8175 92.9599 12.7635 92.7439 12.7635H89.7379V16.9035Z" fill="#233131"/>
<path d="M108.099 21.1875V23.3655H99.2246V10.5855H107.937V12.7635H101.709V15.8415H107.091V17.8575H101.709V21.1875H108.099Z" fill="#233131"/>
<path d="M117.385 13.9335C117.301 13.8495 117.145 13.7355 116.917 13.5915C116.701 13.4475 116.431 13.3095 116.107 13.1775C115.795 13.0335 115.453 12.9135 115.081 12.8175C114.709 12.7215 114.331 12.6735 113.947 12.6735C113.263 12.6735 112.753 12.7995 112.417 13.0515C112.081 13.3035 111.913 13.6575 111.913 14.1135C111.913 14.3775 111.973 14.5995 112.093 14.7795C112.225 14.9475 112.411 15.0975 112.651 15.2295C112.891 15.3615 113.191 15.4815 113.551 15.5895C113.923 15.6975 114.349 15.8115 114.829 15.9315C115.453 16.0995 116.017 16.2795 116.521 16.4715C117.037 16.6635 117.469 16.9035 117.817 17.1915C118.177 17.4795 118.453 17.8275 118.645 18.2355C118.837 18.6315 118.933 19.1235 118.933 19.7115C118.933 20.3955 118.801 20.9835 118.537 21.4755C118.285 21.9555 117.937 22.3455 117.493 22.6455C117.061 22.9455 116.557 23.1675 115.981 23.3115C115.417 23.4435 114.823 23.5095 114.199 23.5095C113.239 23.5095 112.291 23.3655 111.355 23.0775C110.419 22.7895 109.579 22.3815 108.835 21.8535L109.933 19.7115C110.041 19.8195 110.233 19.9635 110.509 20.1435C110.797 20.3115 111.133 20.4855 111.517 20.6655C111.901 20.8335 112.327 20.9775 112.795 21.0975C113.263 21.2175 113.743 21.2775 114.235 21.2775C115.603 21.2775 116.287 20.8395 116.287 19.9635C116.287 19.6875 116.209 19.4535 116.053 19.2615C115.897 19.0695 115.675 18.9015 115.387 18.7575C115.099 18.6135 114.751 18.4815 114.343 18.3615C113.935 18.2415 113.479 18.1095 112.975 17.9655C112.363 17.7975 111.829 17.6175 111.373 17.4255C110.929 17.2215 110.557 16.9875 110.257 16.7235C109.957 16.4475 109.729 16.1355 109.573 15.7875C109.429 15.4275 109.357 15.0015 109.357 14.5095C109.357 13.8615 109.477 13.2855 109.717 12.7815C109.957 12.2775 110.287 11.8575 110.707 11.5215C111.139 11.1855 111.637 10.9335 112.201 10.7655C112.765 10.5855 113.371 10.4955 114.019 10.4955C114.919 10.4955 115.747 10.6395 116.503 10.9275C117.259 11.2035 117.919 11.5335 118.483 11.9175L117.385 13.9335Z" fill="#233131"/>
<path d="M128.425 13.9335C128.341 13.8495 128.185 13.7355 127.957 13.5915C127.741 13.4475 127.471 13.3095 127.147 13.1775C126.835 13.0335 126.493 12.9135 126.121 12.8175C125.749 12.7215 125.371 12.6735 124.987 12.6735C124.303 12.6735 123.793 12.7995 123.457 13.0515C123.121 13.3035 122.953 13.6575 122.953 14.1135C122.953 14.3775 123.013 14.5995 123.133 14.7795C123.265 14.9475 123.451 15.0975 123.691 15.2295C123.931 15.3615 124.231 15.4815 124.591 15.5895C124.963 15.6975 125.389 15.8115 125.869 15.9315C126.493 16.0995 127.057 16.2795 127.561 16.4715C128.077 16.6635 128.509 16.9035 128.857 17.1915C129.217 17.4795 129.493 17.8275 129.685 18.2355C129.877 18.6315 129.973 19.1235 129.973 19.7115C129.973 20.3955 129.841 20.9835 129.577 21.4755C129.325 21.9555 128.977 22.3455 128.533 22.6455C128.101 22.9455 127.597 23.1675 127.021 23.3115C126.457 23.4435 125.863 23.5095 125.239 23.5095C124.279 23.5095 123.331 23.3655 122.395 23.0775C121.459 22.7895 120.619 22.3815 119.875 21.8535L120.973 19.7115C121.081 19.8195 121.273 19.9635 121.549 20.1435C121.837 20.3115 122.173 20.4855 122.557 20.6655C122.941 20.8335 123.367 20.9775 123.835 21.0975C124.303 21.2175 124.783 21.2775 125.275 21.2775C126.643 21.2775 127.327 20.8395 127.327 19.9635C127.327 19.6875 127.249 19.4535 127.093 19.2615C126.937 19.0695 126.715 18.9015 126.427 18.7575C126.139 18.6135 125.791 18.4815 125.383 18.3615C124.975 18.2415 124.519 18.1095 124.015 17.9655C123.403 17.7975 122.869 17.6175 122.413 17.4255C121.969 17.2215 121.597 16.9875 121.297 16.7235C120.997 16.4475 120.769 16.1355 120.613 15.7875C120.469 15.4275 120.397 15.0015 120.397 14.5095C120.397 13.8615 120.517 13.2855 120.757 12.7815C120.997 12.2775 121.327 11.8575 121.747 11.5215C122.179 11.1855 122.677 10.9335 123.241 10.7655C123.805 10.5855 124.411 10.4955 125.059 10.4955C125.959 10.4955 126.787 10.6395 127.543 10.9275C128.299 11.2035 128.959 11.5335 129.523 11.9175L128.425 13.9335Z" fill="#233131"/>
<path d="M145.048 21.9255C144.028 22.9455 142.84 23.4555 141.484 23.4555C140.644 23.4555 139.852 23.2875 139.108 22.9515C138.376 22.6155 137.734 22.1535 137.182 21.5655C136.642 20.9775 136.21 20.2875 135.886 19.4955C135.574 18.6915 135.418 17.8275 135.418 16.9035C135.418 16.0275 135.574 15.2055 135.886 14.4375C136.21 13.6575 136.648 12.9795 137.2 12.4035C137.764 11.8155 138.424 11.3535 139.18 11.0175C139.936 10.6695 140.758 10.4955 141.646 10.4955C142.846 10.4955 143.872 10.7475 144.724 11.2515C145.588 11.7555 146.236 12.4335 146.668 13.2855L144.814 14.6535C144.49 14.0175 144.034 13.5315 143.446 13.1955C142.87 12.8595 142.24 12.6915 141.556 12.6915C141.016 12.6915 140.518 12.8055 140.062 13.0335C139.618 13.2615 139.234 13.5735 138.91 13.9695C138.598 14.3655 138.352 14.8215 138.172 15.3375C138.004 15.8535 137.92 16.3995 137.92 16.9755C137.92 17.5755 138.016 18.1395 138.208 18.6675C138.4 19.1835 138.664 19.6335 139 20.0175C139.336 20.4015 139.732 20.7075 140.188 20.9355C140.656 21.1515 141.16 21.2595 141.7 21.2595C142.936 21.2595 144.052 20.6775 145.048 19.5135V18.6135H142.474V16.7955H147.1V23.3655H145.048V21.9255Z" fill="#233131"/>
<path d="M149.217 23.3655V10.5855H154.869C155.457 10.5855 155.997 10.7115 156.489 10.9635C156.993 11.2035 157.425 11.5275 157.785 11.9355C158.145 12.3315 158.427 12.7875 158.631 13.3035C158.835 13.8075 158.937 14.3175 158.937 14.8335C158.937 15.6615 158.727 16.4175 158.307 17.1015C157.899 17.7735 157.341 18.2595 156.633 18.5595L159.549 23.3655H156.759L154.149 19.0815H151.701V23.3655H149.217ZM151.701 16.9035H154.815C155.043 16.9035 155.253 16.8495 155.445 16.7415C155.649 16.6335 155.823 16.4895 155.967 16.3095C156.111 16.1175 156.225 15.8955 156.309 15.6435C156.393 15.3915 156.435 15.1215 156.435 14.8335C156.435 14.5335 156.387 14.2575 156.291 14.0055C156.195 13.7535 156.063 13.5375 155.895 13.3575C155.739 13.1655 155.553 13.0215 155.337 12.9255C155.133 12.8175 154.923 12.7635 154.707 12.7635H151.701V16.9035Z" fill="#233131"/>
<path d="M166.641 23.4555C165.705 23.4555 164.853 23.2755 164.085 22.9155C163.329 22.5435 162.675 22.0575 162.123 21.4575C161.583 20.8455 161.163 20.1495 160.863 19.3695C160.563 18.5895 160.413 17.7915 160.413 16.9755C160.413 16.1235 160.569 15.3075 160.881 14.5275C161.205 13.7475 161.643 13.0575 162.195 12.4575C162.759 11.8575 163.425 11.3835 164.193 11.0355C164.961 10.6755 165.795 10.4955 166.695 10.4955C167.619 10.4955 168.459 10.6875 169.215 11.0715C169.983 11.4435 170.637 11.9355 171.177 12.5475C171.717 13.1595 172.137 13.8555 172.437 14.6355C172.737 15.4155 172.887 16.2075 172.887 17.0115C172.887 17.8635 172.731 18.6795 172.419 19.4595C172.107 20.2275 171.675 20.9115 171.123 21.5115C170.571 22.0995 169.911 22.5735 169.143 22.9335C168.375 23.2815 167.541 23.4555 166.641 23.4555ZM162.933 16.9755C162.933 17.5275 163.017 18.0615 163.185 18.5775C163.353 19.0935 163.593 19.5495 163.905 19.9455C164.229 20.3415 164.619 20.6595 165.075 20.8995C165.543 21.1395 166.071 21.2595 166.659 21.2595C167.259 21.2595 167.787 21.1395 168.243 20.8995C168.711 20.6475 169.101 20.3175 169.413 19.9095C169.737 19.5015 169.977 19.0455 170.133 18.5415C170.301 18.0255 170.385 17.5035 170.385 16.9755C170.385 16.4235 170.295 15.8895 170.115 15.3735C169.947 14.8575 169.701 14.4015 169.377 14.0055C169.065 13.6095 168.675 13.2975 168.207 13.0695C167.751 12.8295 167.235 12.7095 166.659 12.7095C166.059 12.7095 165.525 12.8355 165.057 13.0875C164.589 13.3275 164.199 13.6515 163.887 14.0595C163.575 14.4555 163.335 14.9115 163.167 15.4275C163.011 15.9315 162.933 16.4475 162.933 16.9755Z" fill="#233131"/>
<path d="M180.193 21.2595C180.781 21.2595 181.273 21.1395 181.669 20.8995C182.077 20.6595 182.401 20.3475 182.641 19.9635C182.893 19.5795 183.067 19.1415 183.163 18.6495C183.271 18.1455 183.325 17.6295 183.325 17.1015V10.5855H185.791V17.1015C185.791 17.9775 185.683 18.7995 185.467 19.5675C185.263 20.3355 184.933 21.0075 184.477 21.5835C184.033 22.1595 183.457 22.6155 182.749 22.9515C182.041 23.2875 181.195 23.4555 180.211 23.4555C179.191 23.4555 178.321 23.2815 177.601 22.9335C176.893 22.5735 176.317 22.1055 175.873 21.5295C175.429 20.9415 175.105 20.2635 174.901 19.4955C174.709 18.7275 174.613 17.9295 174.613 17.1015V10.5855H177.097V17.1015C177.097 17.6415 177.145 18.1635 177.241 18.6675C177.349 19.1595 177.523 19.5975 177.763 19.9815C178.015 20.3655 178.339 20.6775 178.735 20.9175C179.131 21.1455 179.617 21.2595 180.193 21.2595Z" fill="#233131"/>
<path d="M188.293 23.3655V10.5855H193.711C194.299 10.5855 194.839 10.7115 195.331 10.9635C195.835 11.2035 196.267 11.5275 196.627 11.9355C196.987 12.3315 197.269 12.7875 197.473 13.3035C197.677 13.8075 197.779 14.3175 197.779 14.8335C197.779 15.3735 197.683 15.9015 197.491 16.4175C197.299 16.9215 197.029 17.3715 196.681 17.7675C196.333 18.1635 195.913 18.4815 195.421 18.7215C194.929 18.9615 194.389 19.0815 193.801 19.0815H190.777V23.3655H188.293ZM190.777 16.9035H193.657C194.113 16.9035 194.491 16.7175 194.791 16.3455C195.103 15.9735 195.259 15.4695 195.259 14.8335C195.259 14.5095 195.211 14.2215 195.115 13.9695C195.019 13.7055 194.893 13.4835 194.737 13.3035C194.581 13.1235 194.395 12.9915 194.179 12.9075C193.975 12.8115 193.765 12.7635 193.549 12.7635H190.777V16.9035Z" fill="#233131"/>
<path d="M56.0908 35.0308C55.8185 35.0308 55.5693 34.9823 55.3431 34.8854C55.117 34.7839 54.9231 34.6477 54.7616 34.4769C54.6 34.3062 54.4731 34.1077 54.3808 33.8816C54.2931 33.6508 54.2493 33.4085 54.2493 33.1546C54.2493 32.9008 54.2931 32.6608 54.3808 32.4346C54.4731 32.2085 54.6 32.01 54.7616 31.8393C54.9277 31.6685 55.1239 31.5346 55.35 31.4377C55.5762 31.3362 55.8254 31.2854 56.0977 31.2854C56.37 31.2854 56.617 31.3362 56.8385 31.4377C57.0647 31.5393 57.2562 31.6754 57.4131 31.8462C57.57 32.0123 57.69 32.2085 57.7731 32.4346C57.8608 32.6562 57.9047 32.8869 57.9047 33.1269C57.9047 33.1777 57.9023 33.2239 57.8977 33.2654C57.8977 33.3069 57.8954 33.3393 57.8908 33.3623H54.8931C54.907 33.5423 54.9485 33.7062 55.0177 33.8539C55.087 34.0016 55.177 34.1285 55.2877 34.2346C55.3985 34.3408 55.5231 34.4239 55.6616 34.4839C55.8047 34.5439 55.9547 34.5739 56.1116 34.5739C56.2223 34.5739 56.3308 34.56 56.437 34.5323C56.5431 34.5 56.6423 34.4585 56.7347 34.4077C56.827 34.3569 56.9077 34.2946 56.977 34.2208C57.0508 34.1469 57.1062 34.0639 57.1431 33.9716L57.6693 34.1169C57.6093 34.2508 57.5262 34.3731 57.42 34.4839C57.3185 34.5946 57.1985 34.6916 57.06 34.7746C56.9262 34.8531 56.7762 34.9154 56.61 34.9616C56.4439 35.0077 56.2708 35.0308 56.0908 35.0308ZM57.33 32.9123C57.3162 32.7416 57.2723 32.5846 57.1985 32.4416C57.1293 32.2939 57.0393 32.1693 56.9285 32.0677C56.8223 31.9662 56.6977 31.8877 56.5547 31.8323C56.4116 31.7723 56.2593 31.7423 56.0977 31.7423C55.9362 31.7423 55.7839 31.7723 55.6408 31.8323C55.4977 31.8877 55.3708 31.9685 55.26 32.0746C55.1539 32.1762 55.0662 32.2985 54.997 32.4416C54.9323 32.5846 54.8931 32.7416 54.8793 32.9123H57.33Z" fill="#586268"/>
<path d="M66.7303 34.9616H66.1211V32.94C66.1211 32.5616 66.0588 32.2823 65.9342 32.1023C65.8142 31.9223 65.6342 31.8323 65.3942 31.8323C65.1449 31.8323 64.9211 31.9223 64.7226 32.1023C64.5288 32.2777 64.3903 32.5062 64.3073 32.7877V34.9616H63.698V32.94C63.698 32.5523 63.638 32.2708 63.518 32.0954C63.398 31.92 63.218 31.8323 62.978 31.8323C62.7334 31.8323 62.5119 31.92 62.3134 32.0954C62.1149 32.2662 61.9742 32.4946 61.8911 32.7808V34.9616H61.2819V31.3477H61.8357V32.1231C61.9834 31.8554 62.1749 31.65 62.4103 31.5069C62.6457 31.3593 62.9111 31.2854 63.2065 31.2854C63.5111 31.2854 63.7511 31.3685 63.9265 31.5346C64.1065 31.6962 64.2173 31.9062 64.2588 32.1646C64.5819 31.5785 65.0411 31.2854 65.6365 31.2854C65.8442 31.2854 66.0173 31.3246 66.1557 31.4031C66.2988 31.4769 66.4119 31.5831 66.4949 31.7216C66.578 31.8554 66.638 32.0146 66.6749 32.1993C66.7119 32.3839 66.7303 32.5846 66.7303 32.8016V34.9616Z" fill="#586268"/>
<path d="M72.323 35.0308C72.023 35.0308 71.7576 34.9569 71.5268 34.8093C71.3007 34.6616 71.1207 34.4746 70.9868 34.2485V36.4362H70.3776V31.3477H70.9176V32.0262C71.0607 31.8046 71.2453 31.6269 71.4714 31.4931C71.7022 31.3546 71.9561 31.2854 72.233 31.2854C72.4822 31.2854 72.7107 31.3362 72.9184 31.4377C73.1261 31.5393 73.3061 31.6777 73.4584 31.8531C73.6107 32.0239 73.7284 32.2223 73.8114 32.4485C73.8991 32.6746 73.943 32.91 73.943 33.1546C73.943 33.4131 73.9038 33.6577 73.8253 33.8885C73.7468 34.1146 73.6361 34.3131 73.493 34.4839C73.3499 34.65 73.1791 34.7839 72.9807 34.8854C72.7822 34.9823 72.563 35.0308 72.323 35.0308ZM72.1361 34.5046C72.3161 34.5046 72.4776 34.4677 72.6207 34.3939C72.7684 34.3154 72.893 34.2139 72.9945 34.0893C73.1007 33.96 73.1814 33.8146 73.2368 33.6531C73.2922 33.4916 73.3199 33.3254 73.3199 33.1546C73.3199 32.9746 73.2876 32.8039 73.223 32.6423C73.1584 32.4762 73.0707 32.3331 72.9599 32.2131C72.8491 32.0885 72.7176 31.9916 72.5653 31.9223C72.4176 31.8485 72.2561 31.8116 72.0807 31.8116C71.9699 31.8116 71.8545 31.8346 71.7345 31.8808C71.6191 31.9223 71.5084 31.98 71.4022 32.0539C71.3007 32.1231 71.2107 32.2085 71.1322 32.31C71.0584 32.4069 71.0099 32.5108 70.9868 32.6216V33.6531C71.0376 33.7731 71.1022 33.8862 71.1807 33.9923C71.2591 34.0939 71.3491 34.1839 71.4507 34.2623C71.5522 34.3362 71.6607 34.3962 71.7761 34.4423C71.8914 34.4839 72.0114 34.5046 72.1361 34.5046Z" fill="#586268"/>
<path d="M78.9695 35.0308C78.6972 35.0308 78.4479 34.98 78.2218 34.8785C78.0002 34.7769 77.8087 34.6408 77.6472 34.47C77.4902 34.2993 77.3679 34.1008 77.2802 33.8746C77.1925 33.6485 77.1487 33.4108 77.1487 33.1616C77.1487 32.9077 77.1925 32.6677 77.2802 32.4416C77.3725 32.2154 77.4972 32.0169 77.6541 31.8462C77.8156 31.6754 78.0072 31.5393 78.2287 31.4377C78.4548 31.3362 78.7018 31.2854 78.9695 31.2854C79.2372 31.2854 79.4841 31.3362 79.7102 31.4377C79.9364 31.5393 80.1279 31.6754 80.2848 31.8462C80.4464 32.0169 80.571 32.2154 80.6587 32.4416C80.751 32.6677 80.7972 32.9077 80.7972 33.1616C80.7972 33.4108 80.7533 33.6485 80.6656 33.8746C80.5779 34.1008 80.4533 34.2993 80.2918 34.47C80.1302 34.6408 79.9364 34.7769 79.7102 34.8785C79.4887 34.98 79.2418 35.0308 78.9695 35.0308ZM77.7718 33.1685C77.7718 33.3577 77.8018 33.5331 77.8618 33.6946C77.9264 33.8562 78.0118 33.9969 78.1179 34.1169C78.2287 34.2369 78.3556 34.3316 78.4987 34.4008C78.6464 34.47 78.8033 34.5046 78.9695 34.5046C79.1356 34.5046 79.2902 34.47 79.4333 34.4008C79.581 34.3316 79.7102 34.2369 79.821 34.1169C79.9318 33.9923 80.0172 33.8493 80.0772 33.6877C80.1418 33.5216 80.1741 33.3439 80.1741 33.1546C80.1741 32.97 80.1418 32.7969 80.0772 32.6354C80.0172 32.4693 79.9318 32.3262 79.821 32.2062C79.7102 32.0816 79.581 31.9846 79.4333 31.9154C79.2902 31.8462 79.1356 31.8116 78.9695 31.8116C78.8033 31.8116 78.6464 31.8485 78.4987 31.9223C78.3556 31.9916 78.2287 32.0885 78.1179 32.2131C78.0118 32.3331 77.9264 32.4762 77.8618 32.6423C77.8018 32.8039 77.7718 32.9793 77.7718 33.1685Z" fill="#586268"/>
<path d="M88.6414 31.3477H89.2298L87.6929 34.9616H87.1875L86.4606 33.1962L85.7406 34.9616H85.2352L83.6983 31.3477H84.2798L85.526 34.3593L86.1352 32.8569L85.5121 31.3546H86.0175L86.4606 32.5108L86.9037 31.3546H87.4091L86.7929 32.8569L87.4021 34.3593L88.6414 31.3477Z" fill="#586268"/>
<path d="M93.9771 35.0308C93.7048 35.0308 93.4555 34.9823 93.2294 34.8854C93.0032 34.7839 92.8094 34.6477 92.6478 34.4769C92.4863 34.3062 92.3594 34.1077 92.2671 33.8816C92.1794 33.6508 92.1355 33.4085 92.1355 33.1546C92.1355 32.9008 92.1794 32.6608 92.2671 32.4346C92.3594 32.2085 92.4863 32.01 92.6478 31.8393C92.814 31.6685 93.0101 31.5346 93.2363 31.4377C93.4625 31.3362 93.7117 31.2854 93.984 31.2854C94.2563 31.2854 94.5032 31.3362 94.7248 31.4377C94.9509 31.5393 95.1425 31.6754 95.2994 31.8462C95.4563 32.0123 95.5763 32.2085 95.6594 32.4346C95.7471 32.6562 95.7909 32.8869 95.7909 33.1269C95.7909 33.1777 95.7886 33.2239 95.784 33.2654C95.784 33.3069 95.7817 33.3393 95.7771 33.3623H92.7794C92.7932 33.5423 92.8348 33.7062 92.904 33.8539C92.9732 34.0016 93.0632 34.1285 93.174 34.2346C93.2848 34.3408 93.4094 34.4239 93.5478 34.4839C93.6909 34.5439 93.8409 34.5739 93.9978 34.5739C94.1086 34.5739 94.2171 34.56 94.3232 34.5323C94.4294 34.5 94.5286 34.4585 94.6209 34.4077C94.7132 34.3569 94.794 34.2946 94.8632 34.2208C94.9371 34.1469 94.9925 34.0639 95.0294 33.9716L95.5555 34.1169C95.4955 34.2508 95.4125 34.3731 95.3063 34.4839C95.2048 34.5946 95.0848 34.6916 94.9463 34.7746C94.8125 34.8531 94.6625 34.9154 94.4963 34.9616C94.3301 35.0077 94.1571 35.0308 93.9771 35.0308ZM95.2163 32.9123C95.2025 32.7416 95.1586 32.5846 95.0848 32.4416C95.0155 32.2939 94.9255 32.1693 94.8148 32.0677C94.7086 31.9662 94.584 31.8877 94.4409 31.8323C94.2978 31.7723 94.1455 31.7423 93.984 31.7423C93.8225 31.7423 93.6701 31.7723 93.5271 31.8323C93.384 31.8877 93.2571 31.9685 93.1463 32.0746C93.0401 32.1762 92.9524 32.2985 92.8832 32.4416C92.8186 32.5846 92.7794 32.7416 92.7655 32.9123H95.2163Z" fill="#586268"/>
<path d="M101.079 31.8808C100.774 31.89 100.504 31.9685 100.269 32.1162C100.038 32.2639 99.8743 32.4693 99.7774 32.7323V34.9616H99.1681V31.3477H99.7358V32.1854C99.8604 31.9362 100.024 31.7354 100.227 31.5831C100.43 31.4262 100.647 31.3385 100.878 31.32C100.924 31.32 100.964 31.32 100.996 31.32C101.028 31.32 101.056 31.3223 101.079 31.3269V31.8808Z" fill="#586268"/>
<path d="M105.901 35.0308C105.629 35.0308 105.38 34.9823 105.154 34.8854C104.927 34.7839 104.734 34.6477 104.572 34.4769C104.41 34.3062 104.284 34.1077 104.191 33.8816C104.104 33.6508 104.06 33.4085 104.06 33.1546C104.06 32.9008 104.104 32.6608 104.191 32.4346C104.284 32.2085 104.41 32.01 104.572 31.8393C104.738 31.6685 104.934 31.5346 105.16 31.4377C105.387 31.3362 105.636 31.2854 105.908 31.2854C106.18 31.2854 106.427 31.3362 106.649 31.4377C106.875 31.5393 107.067 31.6754 107.224 31.8462C107.38 32.0123 107.5 32.2085 107.584 32.4346C107.671 32.6562 107.715 32.8869 107.715 33.1269C107.715 33.1777 107.713 33.2239 107.708 33.2654C107.708 33.3069 107.706 33.3393 107.701 33.3623H104.704C104.717 33.5423 104.759 33.7062 104.828 33.8539C104.897 34.0016 104.987 34.1285 105.098 34.2346C105.209 34.3408 105.334 34.4239 105.472 34.4839C105.615 34.5439 105.765 34.5739 105.922 34.5739C106.033 34.5739 106.141 34.56 106.247 34.5323C106.354 34.5 106.453 34.4585 106.545 34.4077C106.637 34.3569 106.718 34.2946 106.787 34.2208C106.861 34.1469 106.917 34.0639 106.954 33.9716L107.48 34.1169C107.42 34.2508 107.337 34.3731 107.23 34.4839C107.129 34.5946 107.009 34.6916 106.87 34.7746C106.737 34.8531 106.587 34.9154 106.42 34.9616C106.254 35.0077 106.081 35.0308 105.901 35.0308ZM107.14 32.9123C107.127 32.7416 107.083 32.5846 107.009 32.4416C106.94 32.2939 106.85 32.1693 106.739 32.0677C106.633 31.9662 106.508 31.8877 106.365 31.8323C106.222 31.7723 106.07 31.7423 105.908 31.7423C105.747 31.7423 105.594 31.7723 105.451 31.8323C105.308 31.8877 105.181 31.9685 105.07 32.0746C104.964 32.1762 104.877 32.2985 104.807 32.4416C104.743 32.5846 104.704 32.7416 104.69 32.9123H107.14Z" fill="#586268"/>
<path d="M112.581 35.0308C112.332 35.0308 112.101 34.98 111.888 34.8785C111.676 34.7769 111.494 34.6408 111.342 34.47C111.189 34.2993 111.069 34.1008 110.982 33.8746C110.898 33.6485 110.857 33.4108 110.857 33.1616C110.857 32.9077 110.896 32.6677 110.975 32.4416C111.058 32.2108 111.171 32.01 111.314 31.8393C111.462 31.6685 111.635 31.5346 111.833 31.4377C112.036 31.3362 112.258 31.2854 112.498 31.2854C112.788 31.2854 113.047 31.3616 113.273 31.5139C113.504 31.6662 113.686 31.8508 113.82 32.0677V29.9077H114.429V34.2139C114.429 34.3569 114.494 34.4308 114.623 34.4354V34.9616C114.558 34.9708 114.505 34.9777 114.464 34.9823C114.427 34.9869 114.39 34.9893 114.353 34.9893C114.233 34.9893 114.127 34.95 114.035 34.8716C113.947 34.7885 113.903 34.6939 113.903 34.5877V34.2831C113.76 34.5185 113.568 34.7031 113.328 34.8369C113.093 34.9662 112.844 35.0308 112.581 35.0308ZM112.726 34.5046C112.837 34.5046 112.95 34.4839 113.065 34.4423C113.185 34.4008 113.296 34.3431 113.398 34.2693C113.504 34.1954 113.594 34.11 113.668 34.0131C113.746 33.9116 113.797 33.8054 113.82 33.6946V32.6562C113.778 32.5408 113.716 32.4323 113.633 32.3308C113.55 32.2246 113.455 32.1346 113.349 32.0608C113.248 31.9823 113.137 31.9223 113.017 31.8808C112.902 31.8346 112.786 31.8116 112.671 31.8116C112.491 31.8116 112.327 31.8508 112.179 31.9293C112.036 32.0031 111.912 32.1046 111.805 32.2339C111.704 32.3585 111.625 32.5039 111.57 32.67C111.515 32.8316 111.487 32.9977 111.487 33.1685C111.487 33.3485 111.519 33.5216 111.584 33.6877C111.648 33.8493 111.736 33.99 111.847 34.11C111.958 34.23 112.087 34.3269 112.235 34.4008C112.387 34.47 112.551 34.5046 112.726 34.5046Z" fill="#586268"/>
<path d="M124.453 35.0308C124.171 35.0308 123.915 34.9616 123.684 34.8231C123.453 34.6846 123.271 34.5046 123.137 34.2831V34.9616H122.597V29.9077H123.207V32.0677C123.359 31.8323 123.546 31.6431 123.767 31.5C123.989 31.3569 124.247 31.2854 124.543 31.2854C124.792 31.2854 125.016 31.3385 125.214 31.4446C125.413 31.5508 125.581 31.6916 125.72 31.8669C125.863 32.0377 125.971 32.2385 126.045 32.4693C126.123 32.6954 126.163 32.9285 126.163 33.1685C126.163 33.4223 126.119 33.6623 126.031 33.8885C125.943 34.1146 125.823 34.3131 125.671 34.4839C125.519 34.65 125.337 34.7839 125.124 34.8854C124.917 34.9823 124.693 35.0308 124.453 35.0308ZM124.3 34.5046C124.48 34.5046 124.647 34.4677 124.799 34.3939C124.951 34.32 125.083 34.2208 125.193 34.0962C125.304 33.9716 125.39 33.8308 125.45 33.6739C125.51 33.5123 125.54 33.3439 125.54 33.1685C125.54 32.9931 125.51 32.8246 125.45 32.6631C125.394 32.4969 125.313 32.3516 125.207 32.2269C125.106 32.1023 124.981 32.0031 124.833 31.9293C124.69 31.8508 124.531 31.8116 124.356 31.8116C124.227 31.8116 124.104 31.8346 123.989 31.8808C123.873 31.9269 123.765 31.9893 123.663 32.0677C123.567 32.1416 123.479 32.2293 123.4 32.3308C123.327 32.4323 123.262 32.5408 123.207 32.6562V33.7016C123.23 33.8169 123.278 33.9231 123.352 34.02C123.43 34.1169 123.52 34.2023 123.622 34.2762C123.728 34.3454 123.839 34.4008 123.954 34.4423C124.074 34.4839 124.19 34.5046 124.3 34.5046Z" fill="#586268"/>
<path d="M129.655 35.9446C129.715 35.9539 129.775 35.9608 129.835 35.9654C129.895 35.97 129.941 35.9723 129.974 35.9723C130.029 35.9723 130.078 35.9585 130.119 35.9308C130.165 35.9077 130.209 35.8593 130.251 35.7854C130.297 35.7116 130.348 35.6077 130.403 35.4739C130.458 35.3446 130.528 35.1739 130.611 34.9616L129.081 31.3477H129.711L130.943 34.4146L132.064 31.3477H132.646L130.888 35.91C130.823 36.0716 130.714 36.2123 130.562 36.3323C130.414 36.4569 130.209 36.5193 129.946 36.5193C129.904 36.5193 129.861 36.5169 129.814 36.5123C129.773 36.5077 129.72 36.4985 129.655 36.4846V35.9446Z" fill="#586268"/>
<path d="M140.223 34.9616V31.3477H140.833V34.9616H140.223ZM140.223 30.6693V29.9077H140.833V30.6693H140.223Z" fill="#586268"/>
<path d="M147.655 34.9616H147.046V32.94C147.046 32.5523 146.986 32.2708 146.866 32.0954C146.75 31.92 146.573 31.8323 146.333 31.8323C146.208 31.8323 146.083 31.8577 145.959 31.9085C145.834 31.9546 145.717 32.0193 145.606 32.1023C145.495 32.1854 145.398 32.2846 145.315 32.4C145.232 32.5154 145.17 32.6423 145.128 32.7808V34.9616H144.519V31.3477H145.073V32.1231C145.216 31.8693 145.421 31.6662 145.689 31.5139C145.961 31.3616 146.257 31.2854 146.575 31.2854C146.783 31.2854 146.956 31.3246 147.094 31.4031C147.233 31.4769 147.343 31.5831 147.427 31.7216C147.51 31.8554 147.567 32.0146 147.6 32.1993C147.637 32.3839 147.655 32.5846 147.655 32.8016V34.9616Z" fill="#586268"/>
<path d="M154.439 34.9616H153.829V32.94C153.829 32.5523 153.769 32.2708 153.649 32.0954C153.534 31.92 153.356 31.8323 153.116 31.8323C152.992 31.8323 152.867 31.8577 152.742 31.9085C152.618 31.9546 152.5 32.0193 152.389 32.1023C152.279 32.1854 152.182 32.2846 152.099 32.4C152.015 32.5154 151.953 32.6423 151.912 32.7808V34.9616H151.302V31.3477H151.856V32.1231C151.999 31.8693 152.205 31.6662 152.472 31.5139C152.745 31.3616 153.04 31.2854 153.359 31.2854C153.566 31.2854 153.739 31.3246 153.878 31.4031C154.016 31.4769 154.127 31.5831 154.21 31.7216C154.293 31.8554 154.351 32.0146 154.383 32.1993C154.42 32.3839 154.439 32.5846 154.439 32.8016V34.9616Z" fill="#586268"/>
<path d="M159.664 35.0308C159.392 35.0308 159.143 34.98 158.917 34.8785C158.695 34.7769 158.504 34.6408 158.342 34.47C158.185 34.2993 158.063 34.1008 157.975 33.8746C157.887 33.6485 157.844 33.4108 157.844 33.1616C157.844 32.9077 157.887 32.6677 157.975 32.4416C158.067 32.2154 158.192 32.0169 158.349 31.8462C158.511 31.6754 158.702 31.5393 158.924 31.4377C159.15 31.3362 159.397 31.2854 159.664 31.2854C159.932 31.2854 160.179 31.3362 160.405 31.4377C160.631 31.5393 160.823 31.6754 160.98 31.8462C161.141 32.0169 161.266 32.2154 161.354 32.4416C161.446 32.6677 161.492 32.9077 161.492 33.1616C161.492 33.4108 161.448 33.6485 161.361 33.8746C161.273 34.1008 161.148 34.2993 160.987 34.47C160.825 34.6408 160.631 34.7769 160.405 34.8785C160.184 34.98 159.937 35.0308 159.664 35.0308ZM158.467 33.1685C158.467 33.3577 158.497 33.5331 158.557 33.6946C158.621 33.8562 158.707 33.9969 158.813 34.1169C158.924 34.2369 159.051 34.3316 159.194 34.4008C159.341 34.47 159.498 34.5046 159.664 34.5046C159.831 34.5046 159.985 34.47 160.128 34.4008C160.276 34.3316 160.405 34.2369 160.516 34.1169C160.627 33.9923 160.712 33.8493 160.772 33.6877C160.837 33.5216 160.869 33.3439 160.869 33.1546C160.869 32.97 160.837 32.7969 160.772 32.6354C160.712 32.4693 160.627 32.3262 160.516 32.2062C160.405 32.0816 160.276 31.9846 160.128 31.9154C159.985 31.8462 159.831 31.8116 159.664 31.8116C159.498 31.8116 159.341 31.8485 159.194 31.9223C159.051 31.9916 158.924 32.0885 158.813 32.2131C158.707 32.3331 158.621 32.4762 158.557 32.6423C158.497 32.8039 158.467 32.9793 158.467 33.1685Z" fill="#586268"/>
<path d="M165.854 34.9616L164.428 31.3477H165.058L166.2 34.4285L167.349 31.3477H167.931L166.505 34.9616H165.854Z" fill="#586268"/>
<path d="M172.074 35.0308C171.903 35.0308 171.744 35.0031 171.596 34.9477C171.448 34.8877 171.319 34.8069 171.208 34.7054C171.102 34.6039 171.017 34.4862 170.952 34.3523C170.892 34.2139 170.862 34.0639 170.862 33.9023C170.862 33.7362 170.899 33.5862 170.973 33.4523C171.047 33.3139 171.151 33.1962 171.284 33.0993C171.423 33.0023 171.584 32.9262 171.769 32.8708C171.958 32.8154 172.164 32.7877 172.385 32.7877C172.561 32.7877 172.738 32.8039 172.918 32.8362C173.098 32.8685 173.257 32.9123 173.396 32.9677V32.6769C173.396 32.3816 173.313 32.1508 173.147 31.9846C172.981 31.8139 172.745 31.7285 172.441 31.7285C172.076 31.7285 171.693 31.8693 171.291 32.1508L171.091 31.7562C171.557 31.4423 172.025 31.2854 172.496 31.2854C172.971 31.2854 173.341 31.4123 173.604 31.6662C173.871 31.92 174.005 32.2777 174.005 32.7393V34.2139C174.005 34.3569 174.07 34.4308 174.199 34.4354V34.9616C174.134 34.9708 174.081 34.9777 174.04 34.9823C173.998 34.9869 173.954 34.9893 173.908 34.9893C173.788 34.9893 173.691 34.9546 173.617 34.8854C173.548 34.8116 173.507 34.7239 173.493 34.6223L173.479 34.3662C173.317 34.5831 173.112 34.7493 172.863 34.8646C172.618 34.9754 172.355 35.0308 172.074 35.0308ZM172.233 34.5739C172.45 34.5739 172.651 34.5346 172.835 34.4562C173.024 34.3731 173.167 34.2646 173.264 34.1308C173.352 34.0431 173.396 33.9531 173.396 33.8608V33.3277C173.101 33.2123 172.794 33.1546 172.475 33.1546C172.171 33.1546 171.921 33.2193 171.727 33.3485C171.538 33.4777 171.444 33.6462 171.444 33.8539C171.444 33.9554 171.462 34.05 171.499 34.1377C171.541 34.2254 171.596 34.3016 171.665 34.3662C171.739 34.4308 171.824 34.4816 171.921 34.5185C172.018 34.5554 172.122 34.5739 172.233 34.5739Z" fill="#586268"/>
<path d="M179.522 34.7816C179.485 34.8 179.436 34.8231 179.376 34.8508C179.316 34.8739 179.247 34.8993 179.168 34.9269C179.095 34.95 179.012 34.9685 178.919 34.9823C178.832 35.0008 178.739 35.01 178.642 35.01C178.421 35.01 178.229 34.95 178.068 34.83C177.906 34.7054 177.825 34.5139 177.825 34.2554V31.8254H177.334V31.3477H177.825V30.1431H178.435V31.3477H179.245V31.8254H178.435V34.0685C178.444 34.2023 178.488 34.2993 178.566 34.3593C178.645 34.4193 178.737 34.4493 178.843 34.4493C178.963 34.4493 179.072 34.4308 179.168 34.3939C179.27 34.3523 179.339 34.32 179.376 34.2969L179.522 34.7816Z" fill="#586268"/>
<path d="M182.786 34.9616V31.3477H183.395V34.9616H182.786ZM182.786 30.6693V29.9077H183.395V30.6693H182.786Z" fill="#586268"/>
<path d="M188.66 35.0308C188.388 35.0308 188.139 34.98 187.913 34.8785C187.691 34.7769 187.499 34.6408 187.338 34.47C187.181 34.2993 187.059 34.1008 186.971 33.8746C186.883 33.6485 186.839 33.4108 186.839 33.1616C186.839 32.9077 186.883 32.6677 186.971 32.4416C187.063 32.2154 187.188 32.0169 187.345 31.8462C187.506 31.6754 187.698 31.5393 187.919 31.4377C188.146 31.3362 188.393 31.2854 188.66 31.2854C188.928 31.2854 189.175 31.3362 189.401 31.4377C189.627 31.5393 189.819 31.6754 189.976 31.8462C190.137 32.0169 190.262 32.2154 190.349 32.4416C190.442 32.6677 190.488 32.9077 190.488 33.1616C190.488 33.4108 190.444 33.6485 190.356 33.8746C190.269 34.1008 190.144 34.2993 189.982 34.47C189.821 34.6408 189.627 34.7769 189.401 34.8785C189.179 34.98 188.933 35.0308 188.66 35.0308ZM187.462 33.1685C187.462 33.3577 187.493 33.5331 187.553 33.6946C187.617 33.8562 187.702 33.9969 187.809 34.1169C187.919 34.2369 188.046 34.3316 188.189 34.4008C188.337 34.47 188.494 34.5046 188.66 34.5046C188.826 34.5046 188.981 34.47 189.124 34.4008C189.272 34.3316 189.401 34.2369 189.512 34.1169C189.623 33.9923 189.708 33.8493 189.768 33.6877C189.833 33.5216 189.865 33.3439 189.865 33.1546C189.865 32.97 189.833 32.7969 189.768 32.6354C189.708 32.4693 189.623 32.3262 189.512 32.2062C189.401 32.0816 189.272 31.9846 189.124 31.9154C188.981 31.8462 188.826 31.8116 188.66 31.8116C188.494 31.8116 188.337 31.8485 188.189 31.9223C188.046 31.9916 187.919 32.0885 187.809 32.2131C187.702 32.3331 187.617 32.4762 187.553 32.6423C187.493 32.8039 187.462 32.9793 187.462 33.1685Z" fill="#586268"/>
<path d="M197.062 34.9616H196.453V32.94C196.453 32.5523 196.393 32.2708 196.273 32.0954C196.158 31.92 195.98 31.8323 195.74 31.8323C195.615 31.8323 195.491 31.8577 195.366 31.9085C195.241 31.9546 195.124 32.0193 195.013 32.1023C194.902 32.1854 194.805 32.2846 194.722 32.4C194.639 32.5154 194.577 32.6423 194.535 32.7808V34.9616H193.926V31.3477H194.48V32.1231C194.623 31.8693 194.828 31.6662 195.096 31.5139C195.368 31.3616 195.664 31.2854 195.982 31.2854C196.19 31.2854 196.363 31.3246 196.501 31.4031C196.64 31.4769 196.751 31.5831 196.834 31.7216C196.917 31.8554 196.975 32.0146 197.007 32.1993C197.044 32.3839 197.062 32.5846 197.062 32.8016V34.9616Z" fill="#586268"/>
<path fill-rule="evenodd" clip-rule="evenodd" d="M45 22.5L22.5 0L17.0736 5.42641L32.1428 20.4957C32.5195 20.254 32.9676 20.1139 33.4483 20.1139C34.7854 20.1139 35.8694 21.1979 35.8694 22.535C35.8694 23.8721 34.7854 24.9561 33.4483 24.9561C32.1112 24.9561 31.0272 23.8721 31.0272 22.535C31.0272 22.0541 31.1674 21.6061 31.4091 21.2293L16.3399 6.16011L5.91933 16.5807L21.0751 31.7364C21.4518 31.4948 21.8998 31.3546 22.3806 31.3546C23.7177 31.3546 24.8017 32.4386 24.8017 33.7757C24.8017 35.1128 23.7177 36.1968 22.3806 36.1968C21.0435 36.1968 19.9595 35.1128 19.9595 33.7757C19.9595 33.2949 20.0997 32.8468 20.3414 32.4701L5.18563 17.3144L0 22.5L22.5 45L45 22.5ZM16.9185 14.6517C15.5814 14.6517 14.4974 15.7356 14.4974 17.0728C14.4974 18.4099 15.5814 19.4938 16.9185 19.4938C17.3993 19.4938 17.8473 19.3537 18.224 19.112L33.0521 33.9401L33.7858 33.2064L18.9577 18.3783C19.1994 18.0016 19.3396 17.5536 19.3396 17.0728C19.3396 15.7356 18.2556 14.6517 16.9185 14.6517ZM15.8751 17.0727C15.8751 16.4965 16.3422 16.0294 16.9184 16.0294C17.4946 16.0294 17.9617 16.4965 17.9617 17.0727C17.9617 17.6489 17.4946 18.116 16.9184 18.116C16.3422 18.116 15.8751 17.6489 15.8751 17.0727ZM33.4483 23.5783C34.0245 23.5783 34.4916 23.1112 34.4916 22.535C34.4916 21.9589 34.0245 21.4918 33.4483 21.4918C32.8721 21.4918 32.4051 21.9589 32.4051 22.535C32.4051 23.1112 32.8721 23.5783 33.4483 23.5783ZM22.3808 34.819C22.957 34.819 23.4241 34.3519 23.4241 33.7757C23.4241 33.1996 22.957 32.7325 22.3808 32.7325C21.8047 32.7325 21.3376 33.1996 21.3376 33.7757C21.3376 34.3519 21.8047 34.819 22.3808 34.819Z" fill="#3F79FF"/>
</svg>
