<svg width="380" height="77" viewBox="0 0 380 77" fill="none" xmlns="http://www.w3.org/2000/svg">
<path d="M94.6792 39.9807V18.1127H98.9296V39.9807H94.6792Z" fill="white"/>
<path d="M107.742 25.9667V39.9807H103.492V18.1127H106.788L118.184 32.4655V18.1435H122.434V39.9807H118.984L107.742 25.9667Z" fill="white"/>
<path d="M142.167 37.5167C140.422 39.2621 138.389 40.1347 136.069 40.1347C134.632 40.1347 133.277 39.8473 132.004 39.2723C130.751 38.6974 129.652 37.9069 128.708 36.9007C127.784 35.8946 127.045 34.7139 126.49 33.3587C125.956 31.983 125.69 30.5046 125.69 28.9235C125.69 27.4246 125.956 26.0181 126.49 24.7039C127.045 23.3693 127.794 22.2091 128.739 21.2235C129.704 20.2174 130.833 19.4269 132.127 18.8519C133.42 18.2565 134.827 17.9587 136.346 17.9587C138.4 17.9587 140.155 18.3899 141.613 19.2523C143.092 20.1147 144.2 21.2749 144.94 22.7327L141.767 25.0735C141.213 23.9853 140.432 23.1537 139.426 22.5787C138.441 22.0038 137.363 21.7163 136.192 21.7163C135.268 21.7163 134.416 21.9114 133.636 22.3015C132.876 22.6917 132.219 23.2255 131.665 23.9031C131.131 24.5807 130.71 25.361 130.402 26.2439C130.114 27.1269 129.971 28.0611 129.971 29.0467C129.971 30.0734 130.135 31.0385 130.464 31.9419C130.792 32.8249 131.244 33.5949 131.819 34.2519C132.394 34.909 133.071 35.4326 133.852 35.8227C134.652 36.1923 135.515 36.3771 136.439 36.3771C138.554 36.3771 140.463 35.3813 142.167 33.3895V31.8495H137.763V28.7387H145.679V39.9807H142.167V37.5167Z" fill="white"/>
<path d="M149.301 39.9807V18.1127H158.972C159.978 18.1127 160.902 18.3283 161.744 18.7595C162.607 19.1702 163.346 19.7246 163.962 20.4227C164.578 21.1003 165.06 21.8806 165.409 22.7635C165.759 23.6259 165.933 24.4986 165.933 25.3815C165.933 26.7983 165.574 28.0919 164.855 29.2623C164.157 30.4122 163.202 31.2438 161.991 31.7571L166.98 39.9807H162.206L157.74 32.6503H153.551V39.9807H149.301ZM153.551 28.9235H158.88C159.27 28.9235 159.629 28.8311 159.958 28.6463C160.307 28.4615 160.605 28.2151 160.851 27.9071C161.097 27.5786 161.293 27.1987 161.436 26.7675C161.58 26.3363 161.652 25.8743 161.652 25.3815C161.652 24.8682 161.57 24.3959 161.405 23.9647C161.241 23.5335 161.015 23.1639 160.728 22.8559C160.461 22.5274 160.143 22.281 159.773 22.1167C159.424 21.9319 159.065 21.8395 158.695 21.8395H153.551V28.9235Z" fill="white"/>
<path d="M184.969 36.2539V39.9807H169.784V18.1127H184.691V21.8395H174.035V27.1063H183.244V30.5559H174.035V36.2539H184.969Z" fill="white"/>
<path d="M200.86 23.8415C200.716 23.6978 200.449 23.5027 200.059 23.2563C199.689 23.0099 199.227 22.7738 198.673 22.5479C198.139 22.3015 197.554 22.0962 196.917 21.9319C196.281 21.7677 195.634 21.6855 194.977 21.6855C193.806 21.6855 192.934 21.9011 192.359 22.3323C191.784 22.7635 191.496 23.3693 191.496 24.1495C191.496 24.6013 191.599 24.9811 191.804 25.2891C192.03 25.5766 192.348 25.8333 192.759 26.0591C193.17 26.285 193.683 26.4903 194.299 26.6751C194.936 26.8599 195.665 27.055 196.486 27.2603C197.554 27.5478 198.519 27.8558 199.381 28.1843C200.264 28.5129 201.003 28.9235 201.599 29.4163C202.215 29.9091 202.687 30.5046 203.016 31.2027C203.344 31.8803 203.508 32.7222 203.508 33.7283C203.508 34.8987 203.282 35.9049 202.831 36.7467C202.4 37.5681 201.804 38.2354 201.044 38.7487C200.305 39.2621 199.443 39.6419 198.457 39.8883C197.492 40.1142 196.476 40.2271 195.408 40.2271C193.765 40.2271 192.143 39.9807 190.542 39.4879C188.94 38.9951 187.503 38.297 186.23 37.3935L188.108 33.7283C188.293 33.9131 188.622 34.1595 189.094 34.4675C189.587 34.755 190.162 35.0527 190.819 35.3607C191.476 35.6482 192.205 35.8946 193.006 36.0999C193.806 36.3053 194.628 36.4079 195.47 36.4079C197.81 36.4079 198.981 35.6585 198.981 34.1595C198.981 33.6873 198.847 33.2869 198.58 32.9583C198.313 32.6298 197.934 32.3423 197.441 32.0959C196.948 31.8495 196.352 31.6237 195.654 31.4183C194.956 31.213 194.176 30.9871 193.314 30.7407C192.266 30.4533 191.353 30.1453 190.572 29.8167C189.813 29.4677 189.176 29.0673 188.663 28.6155C188.149 28.1433 187.759 27.6094 187.492 27.0139C187.246 26.3979 187.123 25.669 187.123 24.8271C187.123 23.7183 187.328 22.7327 187.739 21.8703C188.149 21.0079 188.714 20.2893 189.433 19.7143C190.172 19.1394 191.024 18.7082 191.989 18.4207C192.954 18.1127 193.991 17.9587 195.1 17.9587C196.64 17.9587 198.057 18.2051 199.35 18.6979C200.644 19.1702 201.773 19.7349 202.738 20.3919L200.86 23.8415Z" fill="white"/>
<path d="M219.749 23.8415C219.605 23.6978 219.338 23.5027 218.948 23.2563C218.578 23.0099 218.116 22.7738 217.562 22.5479C217.028 22.3015 216.443 22.0962 215.806 21.9319C215.17 21.7677 214.523 21.6855 213.866 21.6855C212.695 21.6855 211.823 21.9011 211.248 22.3323C210.673 22.7635 210.385 23.3693 210.385 24.1495C210.385 24.6013 210.488 24.9811 210.693 25.2891C210.919 25.5766 211.238 25.8333 211.648 26.0591C212.059 26.285 212.572 26.4903 213.188 26.6751C213.825 26.8599 214.554 27.055 215.375 27.2603C216.443 27.5478 217.408 27.8558 218.27 28.1843C219.153 28.5129 219.892 28.9235 220.488 29.4163C221.104 29.9091 221.576 30.5046 221.905 31.2027C222.233 31.8803 222.397 32.7222 222.397 33.7283C222.397 34.8987 222.172 35.9049 221.72 36.7467C221.289 37.5681 220.693 38.2354 219.933 38.7487C219.194 39.2621 218.332 39.6419 217.346 39.8883C216.381 40.1142 215.365 40.2271 214.297 40.2271C212.654 40.2271 211.032 39.9807 209.431 39.4879C207.829 38.9951 206.392 38.297 205.119 37.3935L206.997 33.7283C207.182 33.9131 207.511 34.1595 207.983 34.4675C208.476 34.755 209.051 35.0527 209.708 35.3607C210.365 35.6482 211.094 35.8946 211.895 36.0999C212.695 36.3053 213.517 36.4079 214.359 36.4079C216.699 36.4079 217.87 35.6585 217.87 34.1595C217.87 33.6873 217.736 33.2869 217.469 32.9583C217.202 32.6298 216.823 32.3423 216.33 32.0959C215.837 31.8495 215.242 31.6237 214.543 31.4183C213.845 31.213 213.065 30.9871 212.203 30.7407C211.155 30.4533 210.242 30.1453 209.461 29.8167C208.702 29.4677 208.065 29.0673 207.552 28.6155C207.038 28.1433 206.648 27.6094 206.381 27.0139C206.135 26.3979 206.012 25.669 206.012 24.8271C206.012 23.7183 206.217 22.7327 206.628 21.8703C207.038 21.0079 207.603 20.2893 208.322 19.7143C209.061 19.1394 209.913 18.7082 210.878 18.4207C211.843 18.1127 212.88 17.9587 213.989 17.9587C215.529 17.9587 216.946 18.2051 218.239 18.6979C219.533 19.1702 220.662 19.7349 221.627 20.3919L219.749 23.8415Z" fill="white"/>
<path d="M239.23 18.1127H242.988L251.304 39.9807H246.93L244.897 34.5291H237.259L235.257 39.9807H230.883L239.23 18.1127ZM244.127 31.5415L241.109 22.9483L237.967 31.5415H244.127Z" fill="white"/>
<path d="M251.566 28.8927C251.566 27.5581 251.802 26.2439 252.274 24.9503C252.767 23.6362 253.475 22.4658 254.399 21.4391C255.323 20.4125 256.453 19.5809 257.787 18.9443C259.122 18.3078 260.641 17.9895 262.346 17.9895C264.358 17.9895 266.093 18.431 267.551 19.3139C269.029 20.1969 270.128 21.3467 270.847 22.7635L267.582 25.0119C267.294 24.3959 266.945 23.8826 266.535 23.4719C266.124 23.0407 265.682 22.7019 265.21 22.4555C264.738 22.2091 264.245 22.0346 263.732 21.9319C263.218 21.8087 262.715 21.7471 262.223 21.7471C261.155 21.7471 260.221 21.9627 259.42 22.3939C258.639 22.8251 257.982 23.3898 257.449 24.0879C256.935 24.7655 256.545 25.5458 256.278 26.4287C256.011 27.2911 255.878 28.1535 255.878 29.0159C255.878 29.981 256.032 30.9153 256.34 31.8187C256.648 32.7017 257.079 33.4819 257.633 34.1595C258.208 34.8371 258.886 35.3813 259.666 35.7919C260.467 36.2026 261.34 36.4079 262.284 36.4079C262.777 36.4079 263.29 36.3463 263.824 36.2231C264.358 36.0999 264.861 35.9049 265.333 35.6379C265.826 35.371 266.278 35.0322 266.689 34.6215C267.099 34.1903 267.428 33.677 267.674 33.0815L271.155 35.0835C270.805 35.9049 270.302 36.6338 269.645 37.2703C269.009 37.8863 268.28 38.4099 267.459 38.8411C266.658 39.2723 265.795 39.6009 264.871 39.8267C263.947 40.0526 263.044 40.1655 262.161 40.1655C260.6 40.1655 259.173 39.837 257.88 39.1799C256.586 38.5229 255.467 37.6707 254.523 36.6235C253.599 35.5558 252.87 34.3546 252.336 33.0199C251.822 31.6647 251.566 30.289 251.566 28.8927Z" fill="white"/>
<path d="M279.926 18.1127H283.683L291.999 39.9807H287.626L285.593 34.5291H277.955L275.953 39.9807H271.579L279.926 18.1127ZM284.823 31.5415L281.805 22.9483L278.663 31.5415H284.823Z" fill="white"/>
<path d="M294.398 39.9807V18.1127H302.344C304.131 18.1127 305.691 18.4002 307.026 18.9751C308.381 19.5501 309.51 20.3303 310.414 21.3159C311.317 22.3015 311.995 23.4617 312.447 24.7963C312.898 26.1105 313.124 27.517 313.124 29.0159C313.124 30.6791 312.868 32.1883 312.354 33.5435C311.862 34.8782 311.143 36.0281 310.198 36.9931C309.254 37.9377 308.114 38.6769 306.78 39.2107C305.465 39.7241 303.987 39.9807 302.344 39.9807H294.398ZM308.843 29.0159C308.843 27.9687 308.699 27.0037 308.412 26.1207C308.124 25.2378 307.704 24.4781 307.149 23.8415C306.595 23.205 305.907 22.7122 305.086 22.3631C304.285 22.0141 303.371 21.8395 302.344 21.8395H298.648V36.2539H302.344C303.392 36.2539 304.316 36.0691 305.116 35.6995C305.938 35.3299 306.615 34.8269 307.149 34.1903C307.704 33.5333 308.124 32.7633 308.412 31.8803C308.699 30.9974 308.843 30.0426 308.843 29.0159Z" fill="white"/>
<path d="M331.63 36.2539V39.9807H316.445V18.1127H331.352V21.8395H320.696V27.1063H329.905V30.5559H320.696V36.2539H331.63Z" fill="white"/>
<path d="M352.776 39.9807V25.5047L347.14 36.2847H344.83L339.194 25.5047V39.9807H334.943V18.1127H339.502L345.97 30.5559L352.499 18.1127H357.027V39.9807H352.776Z" fill="white"/>
<path d="M364.056 18.1127L369.446 28.6463L374.929 18.1127H379.518L371.572 32.3423V39.9807H367.352V32.2807L359.436 18.1127H364.056Z" fill="white"/>
<path d="M95.9775 59.9416C95.5115 59.9416 95.0851 59.8586 94.6981 59.6928C94.3111 59.5191 93.9794 59.2861 93.703 58.9939C93.4266 58.7017 93.2094 58.3621 93.0515 57.9751C92.9014 57.5802 92.8264 57.1656 92.8264 56.7313C92.8264 56.2969 92.9014 55.8862 93.0515 55.4993C93.2094 55.1123 93.4266 54.7727 93.703 54.4805C93.9873 54.1883 94.323 53.9593 94.71 53.7934C95.0969 53.6197 95.5234 53.5328 95.9893 53.5328C96.4553 53.5328 96.8778 53.6197 97.2569 53.7934C97.6439 53.9672 97.9716 54.2001 98.2401 54.4923C98.5086 54.7766 98.714 55.1123 98.8561 55.4993C99.0062 55.8783 99.0812 56.2732 99.0812 56.6839C99.0812 56.7707 99.0772 56.8497 99.0693 56.9208C99.0693 56.9919 99.0654 57.0472 99.0575 57.0866H93.9281C93.9518 57.3946 94.0229 57.675 94.1413 57.9277C94.2598 58.1804 94.4138 58.3976 94.6033 58.5793C94.7929 58.7609 95.0061 58.9031 95.243 59.0057C95.4879 59.1084 95.7445 59.1597 96.013 59.1597C96.2026 59.1597 96.3882 59.136 96.5698 59.0886C96.7514 59.0334 96.9212 58.9623 97.0792 58.8754C97.2371 58.7885 97.3753 58.6819 97.4938 58.5556C97.6202 58.4292 97.7149 58.2871 97.7781 58.1291L98.6784 58.3779C98.5757 58.6069 98.4336 58.8162 98.252 59.0057C98.0782 59.1953 97.8729 59.3611 97.636 59.5033C97.4069 59.6375 97.1503 59.7441 96.866 59.8231C96.5816 59.9021 96.2855 59.9416 95.9775 59.9416ZM98.098 56.3166C98.0743 56.0244 97.9992 55.7559 97.8729 55.5111C97.7544 55.2584 97.6004 55.0452 97.4109 54.8714C97.2292 54.6977 97.016 54.5634 96.7712 54.4686C96.5264 54.366 96.2657 54.3146 95.9893 54.3146C95.7129 54.3146 95.4523 54.366 95.2075 54.4686C94.9627 54.5634 94.7455 54.7016 94.556 54.8833C94.3743 55.057 94.2243 55.2663 94.1058 55.5111C93.9952 55.7559 93.9281 56.0244 93.9044 56.3166H98.098Z" fill="white"/>
<path d="M115.723 59.8231H114.68V56.364C114.68 55.7164 114.574 55.2386 114.361 54.9306C114.155 54.6226 113.847 54.4686 113.437 54.4686C113.01 54.4686 112.627 54.6226 112.288 54.9306C111.956 55.2307 111.719 55.6217 111.577 56.1034V59.8231H110.534V56.364C110.534 55.7006 110.432 55.2189 110.226 54.9188C110.021 54.6187 109.713 54.4686 109.302 54.4686C108.884 54.4686 108.505 54.6187 108.165 54.9188C107.825 55.211 107.585 55.6019 107.442 56.0916V59.8231H106.4V53.6394H107.348V54.9662C107.6 54.5081 107.928 54.1567 108.331 53.9119C108.734 53.6592 109.188 53.5328 109.693 53.5328C110.214 53.5328 110.625 53.675 110.925 53.9593C111.233 54.2357 111.423 54.595 111.494 55.0373C112.047 54.0343 112.832 53.5328 113.851 53.5328C114.207 53.5328 114.503 53.5999 114.74 53.7342C114.984 53.8605 115.178 54.0422 115.32 54.2791C115.462 54.5081 115.565 54.7806 115.628 55.0965C115.691 55.4124 115.723 55.7559 115.723 56.1271V59.8231Z" fill="white"/>
<path d="M126.833 59.9416C126.319 59.9416 125.865 59.8152 125.47 59.5625C125.083 59.3098 124.775 58.9899 124.546 58.603V62.3463H123.504V53.6394H124.428V54.8003C124.673 54.4213 124.989 54.1172 125.375 53.8882C125.77 53.6513 126.205 53.5328 126.679 53.5328C127.105 53.5328 127.496 53.6197 127.851 53.7934C128.207 53.9672 128.515 54.2041 128.775 54.5042C129.036 54.7964 129.237 55.136 129.379 55.523C129.53 55.9099 129.605 56.3127 129.605 56.7313C129.605 57.1735 129.537 57.5921 129.403 57.987C129.269 58.3739 129.079 58.7135 128.835 59.0057C128.59 59.29 128.298 59.5191 127.958 59.6928C127.618 59.8586 127.243 59.9416 126.833 59.9416ZM126.513 59.0413C126.821 59.0413 127.097 58.9781 127.342 58.8517C127.595 58.7175 127.808 58.5437 127.982 58.3305C128.163 58.1094 128.301 57.8606 128.396 57.5842C128.491 57.3078 128.538 57.0235 128.538 56.7313C128.538 56.4233 128.483 56.1311 128.373 55.8546C128.262 55.5703 128.112 55.3255 127.922 55.1202C127.733 54.907 127.508 54.7411 127.247 54.6226C126.994 54.4963 126.718 54.4331 126.418 54.4331C126.228 54.4331 126.031 54.4726 125.826 54.5516C125.628 54.6226 125.439 54.7214 125.257 54.8477C125.083 54.9662 124.929 55.1123 124.795 55.286C124.669 55.4519 124.586 55.6296 124.546 55.8191V57.5842C124.633 57.7895 124.744 57.983 124.878 58.1646C125.012 58.3384 125.166 58.4924 125.34 58.6266C125.514 58.753 125.699 58.8557 125.897 58.9346C126.094 59.0057 126.299 59.0413 126.513 59.0413Z" fill="white"/>
<path d="M139.745 59.9416C139.279 59.9416 138.853 59.8547 138.466 59.681C138.087 59.5072 137.759 59.2742 137.483 58.982C137.214 58.6898 137.005 58.3502 136.855 57.9633C136.705 57.5763 136.63 57.1696 136.63 56.7431C136.63 56.3087 136.705 55.8981 136.855 55.5111C137.013 55.1241 137.226 54.7845 137.495 54.4923C137.771 54.2001 138.099 53.9672 138.478 53.7934C138.865 53.6197 139.287 53.5328 139.745 53.5328C140.203 53.5328 140.626 53.6197 141.013 53.7934C141.4 53.9672 141.728 54.2001 141.996 54.4923C142.273 54.7845 142.486 55.1241 142.636 55.5111C142.794 55.8981 142.873 56.3087 142.873 56.7431C142.873 57.1696 142.798 57.5763 142.648 57.9633C142.498 58.3502 142.284 58.6898 142.008 58.982C141.732 59.2742 141.4 59.5072 141.013 59.681C140.634 59.8547 140.211 59.9416 139.745 59.9416ZM137.696 56.755C137.696 57.0787 137.747 57.3789 137.85 57.6553C137.961 57.9317 138.107 58.1725 138.288 58.3779C138.478 58.5832 138.695 58.7451 138.94 58.8636C139.193 58.982 139.461 59.0413 139.745 59.0413C140.03 59.0413 140.294 58.982 140.539 58.8636C140.792 58.7451 141.013 58.5832 141.202 58.3779C141.392 58.1646 141.538 57.9198 141.641 57.6434C141.751 57.3591 141.807 57.0551 141.807 56.7313C141.807 56.4154 141.751 56.1192 141.641 55.8428C141.538 55.5585 141.392 55.3137 141.202 55.1083C141.013 54.8951 140.792 54.7293 140.539 54.6108C140.294 54.4923 140.03 54.4331 139.745 54.4331C139.461 54.4331 139.193 54.4963 138.94 54.6226C138.695 54.7411 138.478 54.907 138.288 55.1202C138.107 55.3255 137.961 55.5703 137.85 55.8546C137.747 56.1311 137.696 56.4312 137.696 56.755Z" fill="white"/>
<path d="M157.835 53.6394H158.842L156.212 59.8231H155.347L154.104 56.8023L152.872 59.8231H152.007L149.377 53.6394H150.372L152.504 58.7925L153.547 56.2219L152.481 53.6513H153.345L154.104 55.6296L154.862 53.6513H155.727L154.672 56.2219L155.715 58.7925L157.835 53.6394Z" fill="white"/>
<path d="M168.505 59.9416C168.039 59.9416 167.613 59.8586 167.226 59.6928C166.839 59.5191 166.507 59.2861 166.231 58.9939C165.954 58.7017 165.737 58.3621 165.579 57.9751C165.429 57.5802 165.354 57.1656 165.354 56.7313C165.354 56.2969 165.429 55.8862 165.579 55.4993C165.737 55.1123 165.954 54.7727 166.231 54.4805C166.515 54.1883 166.851 53.9593 167.238 53.7934C167.625 53.6197 168.051 53.5328 168.517 53.5328C168.983 53.5328 169.405 53.6197 169.784 53.7934C170.171 53.9672 170.499 54.2001 170.768 54.4923C171.036 54.7766 171.242 55.1123 171.384 55.4993C171.534 55.8783 171.609 56.2732 171.609 56.6839C171.609 56.7707 171.605 56.8497 171.597 56.9208C171.597 56.9919 171.593 57.0472 171.585 57.0866H166.456C166.479 57.3946 166.55 57.675 166.669 57.9277C166.787 58.1804 166.941 58.3976 167.131 58.5793C167.32 58.7609 167.534 58.9031 167.771 59.0057C168.015 59.1084 168.272 59.1597 168.541 59.1597C168.73 59.1597 168.916 59.136 169.097 59.0886C169.279 59.0334 169.449 58.9623 169.607 58.8754C169.765 58.7885 169.903 58.6819 170.021 58.5556C170.148 58.4292 170.243 58.2871 170.306 58.1291L171.206 58.3779C171.103 58.6069 170.961 58.8162 170.78 59.0057C170.606 59.1953 170.4 59.3611 170.164 59.5033C169.935 59.6375 169.678 59.7441 169.394 59.8231C169.109 59.9021 168.813 59.9416 168.505 59.9416ZM170.626 56.3166C170.602 56.0244 170.527 55.7559 170.4 55.5111C170.282 55.2584 170.128 55.0452 169.938 54.8714C169.757 54.6977 169.544 54.5634 169.299 54.4686C169.054 54.366 168.793 54.3146 168.517 54.3146C168.241 54.3146 167.98 54.366 167.735 54.4686C167.49 54.5634 167.273 54.7016 167.084 54.8833C166.902 55.057 166.752 55.2663 166.633 55.5111C166.523 55.7559 166.456 56.0244 166.432 56.3166H170.626Z" fill="white"/>
<path d="M182.197 54.5516C181.676 54.5674 181.214 54.7016 180.811 54.9543C180.416 55.2071 180.136 55.5585 179.97 56.0086V59.8231H178.928V53.6394H179.899V55.0728C180.112 54.6463 180.393 54.3028 180.74 54.0422C181.088 53.7737 181.459 53.6236 181.854 53.592C181.933 53.592 182 53.592 182.055 53.592C182.11 53.592 182.158 53.596 182.197 53.6039V54.5516Z" fill="white"/>
<path d="M191.989 59.9416C191.523 59.9416 191.096 59.8586 190.709 59.6928C190.322 59.5191 189.991 59.2861 189.714 58.9939C189.438 58.7017 189.221 58.3621 189.063 57.9751C188.913 57.5802 188.838 57.1656 188.838 56.7313C188.838 56.2969 188.913 55.8862 189.063 55.4993C189.221 55.1123 189.438 54.7727 189.714 54.4805C189.999 54.1883 190.334 53.9593 190.721 53.7934C191.108 53.6197 191.535 53.5328 192.001 53.5328C192.466 53.5328 192.889 53.6197 193.268 53.7934C193.655 53.9672 193.983 54.2001 194.251 54.4923C194.52 54.7766 194.725 55.1123 194.867 55.4993C195.017 55.8783 195.092 56.2732 195.092 56.6839C195.092 56.7707 195.088 56.8497 195.081 56.9208C195.081 56.9919 195.077 57.0472 195.069 57.0866H189.939C189.963 57.3946 190.034 57.675 190.153 57.9277C190.271 58.1804 190.425 58.3976 190.615 58.5793C190.804 58.7609 191.017 58.9031 191.254 59.0057C191.499 59.1084 191.756 59.1597 192.024 59.1597C192.214 59.1597 192.399 59.136 192.581 59.0886C192.763 59.0334 192.932 58.9623 193.09 58.8754C193.248 58.7885 193.387 58.6819 193.505 58.5556C193.631 58.4292 193.726 58.2871 193.789 58.1291L194.69 58.3779C194.587 58.6069 194.445 58.8162 194.263 59.0057C194.089 59.1953 193.884 59.3611 193.647 59.5033C193.418 59.6375 193.161 59.7441 192.877 59.8231C192.593 59.9021 192.297 59.9416 191.989 59.9416ZM194.109 56.3166C194.085 56.0244 194.01 55.7559 193.884 55.5111C193.766 55.2584 193.612 55.0452 193.422 54.8714C193.24 54.6977 193.027 54.5634 192.782 54.4686C192.538 54.366 192.277 54.3146 192.001 54.3146C191.724 54.3146 191.464 54.366 191.219 54.4686C190.974 54.5634 190.757 54.7016 190.567 54.8833C190.386 55.057 190.235 55.2663 190.117 55.5111C190.006 55.7559 189.939 56.0244 189.916 56.3166H194.109Z" fill="white"/>
<path d="M204.958 59.9416C204.532 59.9416 204.137 59.8547 203.773 59.681C203.41 59.5072 203.098 59.2742 202.838 58.982C202.577 58.6898 202.372 58.3502 202.222 57.9633C202.08 57.5763 202.008 57.1696 202.008 56.7431C202.008 56.3087 202.076 55.8981 202.21 55.5111C202.352 55.1162 202.545 54.7727 202.79 54.4805C203.043 54.1883 203.339 53.9593 203.679 53.7934C204.026 53.6197 204.405 53.5328 204.816 53.5328C205.313 53.5328 205.756 53.6631 206.143 53.9237C206.538 54.1843 206.85 54.5002 207.079 54.8714V51.1754H208.121V58.5437C208.121 58.7885 208.232 58.9149 208.453 58.9228V59.8231C208.342 59.8389 208.251 59.8507 208.18 59.8586C208.117 59.8665 208.054 59.8705 207.991 59.8705C207.785 59.8705 207.604 59.8034 207.446 59.6691C207.296 59.527 207.221 59.3651 207.221 59.1834V58.6622C206.976 59.065 206.648 59.3808 206.238 59.6099C205.835 59.831 205.408 59.9416 204.958 59.9416ZM205.207 59.0413C205.396 59.0413 205.59 59.0057 205.787 58.9346C205.993 58.8636 206.182 58.7649 206.356 58.6385C206.538 58.5121 206.692 58.366 206.818 58.2002C206.952 58.0264 207.039 57.8448 207.079 57.6553V55.8783C207.007 55.6809 206.901 55.4953 206.759 55.3216C206.617 55.1399 206.455 54.9859 206.273 54.8596C206.099 54.7253 205.91 54.6226 205.704 54.5516C205.507 54.4726 205.31 54.4331 205.112 54.4331C204.804 54.4331 204.524 54.5002 204.271 54.6345C204.026 54.7609 203.813 54.9346 203.631 55.1557C203.458 55.369 203.323 55.6177 203.229 55.902C203.134 56.1784 203.086 56.4627 203.086 56.755C203.086 57.063 203.142 57.3591 203.252 57.6434C203.363 57.9198 203.513 58.1607 203.702 58.366C203.892 58.5714 204.113 58.7372 204.366 58.8636C204.626 58.982 204.907 59.0413 205.207 59.0413Z" fill="white"/>
<path d="M228.352 59.9416C227.871 59.9416 227.432 59.8231 227.037 59.5862C226.643 59.3493 226.331 59.0413 226.102 58.6622V59.8231H225.178V51.1754H226.22V54.8714C226.481 54.4686 226.8 54.1449 227.18 53.9C227.559 53.6552 228.001 53.5328 228.506 53.5328C228.933 53.5328 229.316 53.6236 229.655 53.8053C229.995 53.9869 230.283 54.2278 230.52 54.5279C230.765 54.8201 230.951 55.1636 231.077 55.5585C231.211 55.9455 231.278 56.3443 231.278 56.755C231.278 57.1893 231.203 57.6 231.053 57.987C230.903 58.3739 230.698 58.7135 230.437 59.0057C230.177 59.29 229.865 59.5191 229.501 59.6928C229.146 59.8586 228.763 59.9416 228.352 59.9416ZM228.092 59.0413C228.4 59.0413 228.684 58.9781 228.945 58.8517C229.205 58.7254 229.43 58.5556 229.62 58.3423C229.809 58.1291 229.956 57.8882 230.058 57.6197C230.161 57.3433 230.212 57.0551 230.212 56.755C230.212 56.4549 230.161 56.1666 230.058 55.8902C229.963 55.6059 229.825 55.3571 229.644 55.1439C229.47 54.9306 229.257 54.7609 229.004 54.6345C228.759 54.5002 228.487 54.4331 228.186 54.4331C227.965 54.4331 227.756 54.4726 227.559 54.5516C227.361 54.6305 227.176 54.7372 227.002 54.8714C226.836 54.9978 226.686 55.1478 226.552 55.3216C226.425 55.4953 226.315 55.6809 226.22 55.8783V57.6671C226.26 57.8645 226.342 58.0462 226.469 58.212C226.603 58.3779 226.757 58.524 226.931 58.6503C227.112 58.7688 227.302 58.8636 227.499 58.9346C227.705 59.0057 227.902 59.0413 228.092 59.0413Z" fill="white"/>
<path d="M238.794 61.5053C238.897 61.5211 239 61.5329 239.102 61.5408C239.205 61.5487 239.284 61.5526 239.339 61.5526C239.434 61.5526 239.517 61.529 239.588 61.4816C239.667 61.4421 239.742 61.3592 239.813 61.2328C239.892 61.1064 239.979 60.9287 240.074 60.6997C240.168 60.4786 240.287 60.1864 240.429 59.8231L237.811 53.6394H238.889L240.998 58.8873L242.917 53.6394H243.912L240.903 61.446C240.792 61.7224 240.607 61.9633 240.346 62.1686C240.093 62.3819 239.742 62.4885 239.292 62.4885C239.221 62.4885 239.146 62.4845 239.067 62.4766C238.996 62.4687 238.905 62.453 238.794 62.4293V61.5053Z" fill="white"/>
<path d="M259.958 59.8231V53.6394H261V59.8231H259.958ZM259.958 52.4785V51.1754H261V52.4785H259.958Z" fill="white"/>
<path d="M274.214 59.8231H273.172V56.364C273.172 55.7006 273.069 55.2189 272.864 54.9188C272.666 54.6187 272.362 54.4686 271.951 54.4686C271.738 54.4686 271.525 54.5121 271.312 54.599C271.099 54.6779 270.897 54.7885 270.708 54.9306C270.518 55.0728 270.352 55.2426 270.21 55.44C270.068 55.6375 269.961 55.8546 269.89 56.0916V59.8231H268.848V53.6394H269.795V54.9662C270.04 54.5318 270.392 54.1843 270.85 53.9237C271.316 53.6631 271.821 53.5328 272.366 53.5328C272.721 53.5328 273.018 53.5999 273.255 53.7342C273.491 53.8605 273.681 54.0422 273.823 54.2791C273.965 54.5081 274.064 54.7806 274.119 55.0965C274.182 55.4124 274.214 55.7559 274.214 56.1271V59.8231Z" fill="white"/>
<path d="M287.361 59.8231H286.319V56.364C286.319 55.7006 286.216 55.2189 286.011 54.9188C285.814 54.6187 285.509 54.4686 285.099 54.4686C284.886 54.4686 284.672 54.5121 284.459 54.599C284.246 54.6779 284.045 54.7885 283.855 54.9306C283.665 55.0728 283.5 55.2426 283.357 55.44C283.215 55.6375 283.109 55.8546 283.038 56.0916V59.8231H281.995V53.6394H282.943V54.9662C283.188 54.5318 283.539 54.1843 283.997 53.9237C284.463 53.6631 284.969 53.5328 285.513 53.5328C285.869 53.5328 286.165 53.5999 286.402 53.7342C286.639 53.8605 286.828 54.0422 286.971 54.2791C287.113 54.5081 287.211 54.7806 287.267 55.0965C287.33 55.4124 287.361 55.7559 287.361 56.1271V59.8231Z" fill="white"/>
<path d="M297.843 59.9416C297.377 59.9416 296.951 59.8547 296.564 59.681C296.185 59.5072 295.857 59.2742 295.581 58.982C295.312 58.6898 295.103 58.3502 294.953 57.9633C294.803 57.5763 294.728 57.1696 294.728 56.7431C294.728 56.3087 294.803 55.8981 294.953 55.5111C295.111 55.1241 295.324 54.7845 295.593 54.4923C295.869 54.2001 296.197 53.9672 296.576 53.7934C296.963 53.6197 297.385 53.5328 297.843 53.5328C298.301 53.5328 298.724 53.6197 299.111 53.7934C299.498 53.9672 299.826 54.2001 300.094 54.4923C300.371 54.7845 300.584 55.1241 300.734 55.5111C300.892 55.8981 300.971 56.3087 300.971 56.7431C300.971 57.1696 300.896 57.5763 300.746 57.9633C300.596 58.3502 300.382 58.6898 300.106 58.982C299.83 59.2742 299.498 59.5072 299.111 59.681C298.732 59.8547 298.309 59.9416 297.843 59.9416ZM295.794 56.755C295.794 57.0787 295.845 57.3789 295.948 57.6553C296.059 57.9317 296.205 58.1725 296.386 58.3779C296.576 58.5832 296.793 58.7451 297.038 58.8636C297.291 58.982 297.559 59.0413 297.843 59.0413C298.128 59.0413 298.392 58.982 298.637 58.8636C298.89 58.7451 299.111 58.5832 299.301 58.3779C299.49 58.1646 299.636 57.9198 299.739 57.6434C299.849 57.3591 299.905 57.0551 299.905 56.7313C299.905 56.4154 299.849 56.1192 299.739 55.8428C299.636 55.5585 299.49 55.3137 299.301 55.1083C299.111 54.8951 298.89 54.7293 298.637 54.6108C298.392 54.4923 298.128 54.4331 297.843 54.4331C297.559 54.4331 297.291 54.4963 297.038 54.6226C296.793 54.7411 296.576 54.907 296.386 55.1202C296.205 55.3255 296.059 55.5703 295.948 55.8546C295.845 56.1311 295.794 56.4312 295.794 56.755Z" fill="white"/>
<path d="M309.975 59.8231L307.534 53.6394H308.612L310.567 58.911L312.533 53.6394H313.528L311.088 59.8231H309.975Z" fill="white"/>
<path d="M322.157 59.9416C321.865 59.9416 321.592 59.8942 321.34 59.7994C321.087 59.6967 320.866 59.5585 320.676 59.3848C320.495 59.2111 320.348 59.0097 320.238 58.7806C320.135 58.5437 320.084 58.2871 320.084 58.0106C320.084 57.7263 320.147 57.4697 320.273 57.2406C320.4 57.0037 320.578 56.8023 320.807 56.6365C321.043 56.4706 321.32 56.3403 321.636 56.2456C321.96 56.1508 322.311 56.1034 322.69 56.1034C322.99 56.1034 323.294 56.1311 323.602 56.1863C323.91 56.2416 324.183 56.3166 324.42 56.4114V55.9139C324.42 55.4084 324.277 55.0136 323.993 54.7293C323.709 54.4371 323.306 54.291 322.785 54.291C322.161 54.291 321.505 54.5318 320.818 55.0136L320.475 54.3383C321.272 53.8013 322.074 53.5328 322.88 53.5328C323.693 53.5328 324.325 53.75 324.775 54.1843C325.233 54.6187 325.462 55.2307 325.462 56.0205V58.5437C325.462 58.7885 325.573 58.9149 325.794 58.9228V59.8231C325.683 59.8389 325.592 59.8507 325.521 59.8586C325.45 59.8665 325.375 59.8705 325.296 59.8705C325.091 59.8705 324.925 59.8113 324.799 59.6928C324.68 59.5664 324.609 59.4164 324.585 59.2426L324.562 58.8043C324.285 59.1755 323.934 59.4598 323.507 59.6573C323.089 59.8468 322.639 59.9416 322.157 59.9416ZM322.429 59.1597C322.801 59.1597 323.144 59.0926 323.46 58.9583C323.784 58.8162 324.029 58.6306 324.195 58.4016C324.345 58.2515 324.42 58.0975 324.42 57.9396V57.0274C323.914 56.83 323.389 56.7313 322.844 56.7313C322.323 56.7313 321.896 56.8418 321.565 57.063C321.241 57.2841 321.079 57.5723 321.079 57.9277C321.079 58.1015 321.111 58.2634 321.174 58.4134C321.245 58.5635 321.34 58.6938 321.458 58.8043C321.584 58.9149 321.731 59.0018 321.896 59.065C322.062 59.1281 322.24 59.1597 322.429 59.1597Z" fill="white"/>
<path d="M336.441 59.5151C336.378 59.5467 336.295 59.5862 336.192 59.6336C336.09 59.6731 335.971 59.7165 335.837 59.7639C335.711 59.8034 335.568 59.835 335.411 59.8586C335.26 59.8902 335.103 59.906 334.937 59.906C334.558 59.906 334.23 59.8034 333.953 59.598C333.677 59.3848 333.539 59.0571 333.539 58.6148V54.4568H332.698V53.6394H333.539V51.5782H334.581V53.6394H335.967V54.4568H334.581V58.295C334.597 58.524 334.672 58.6898 334.806 58.7925C334.941 58.8952 335.099 58.9465 335.28 58.9465C335.486 58.9465 335.671 58.9149 335.837 58.8517C336.011 58.7806 336.129 58.7254 336.192 58.6859L336.441 59.5151Z" fill="white"/>
<path d="M343.567 59.8231V53.6394H344.61V59.8231H343.567ZM343.567 52.4785V51.1754H344.61V52.4785H343.567Z" fill="white"/>
<path d="M355.158 59.9416C354.693 59.9416 354.266 59.8547 353.879 59.681C353.5 59.5072 353.172 59.2742 352.896 58.982C352.627 58.6898 352.418 58.3502 352.268 57.9633C352.118 57.5763 352.043 57.1696 352.043 56.7431C352.043 56.3087 352.118 55.8981 352.268 55.5111C352.426 55.1241 352.639 54.7845 352.908 54.4923C353.184 54.2001 353.512 53.9672 353.891 53.7934C354.278 53.6197 354.7 53.5328 355.158 53.5328C355.616 53.5328 356.039 53.6197 356.426 53.7934C356.813 53.9672 357.141 54.2001 357.409 54.4923C357.686 54.7845 357.899 55.1241 358.049 55.5111C358.207 55.8981 358.286 56.3087 358.286 56.7431C358.286 57.1696 358.211 57.5763 358.061 57.9633C357.911 58.3502 357.697 58.6898 357.421 58.982C357.145 59.2742 356.813 59.5072 356.426 59.681C356.047 59.8547 355.624 59.9416 355.158 59.9416ZM353.109 56.755C353.109 57.0787 353.16 57.3789 353.263 57.6553C353.374 57.9317 353.52 58.1725 353.701 58.3779C353.891 58.5832 354.108 58.7451 354.353 58.8636C354.606 58.982 354.874 59.0413 355.158 59.0413C355.443 59.0413 355.707 58.982 355.952 58.8636C356.205 58.7451 356.426 58.5832 356.616 58.3779C356.805 58.1646 356.951 57.9198 357.054 57.6434C357.164 57.3591 357.22 57.0551 357.22 56.7313C357.22 56.4154 357.164 56.1192 357.054 55.8428C356.951 55.5585 356.805 55.3137 356.616 55.1083C356.426 54.8951 356.205 54.7293 355.952 54.6108C355.707 54.4923 355.443 54.4331 355.158 54.4331C354.874 54.4331 354.606 54.4963 354.353 54.6226C354.108 54.7411 353.891 54.907 353.701 55.1202C353.52 55.3255 353.374 55.5703 353.263 55.8546C353.16 56.1311 353.109 56.4312 353.109 56.755Z" fill="white"/>
<path d="M371.075 59.8231H370.033V56.364C370.033 55.7006 369.93 55.2189 369.725 54.9188C369.527 54.6187 369.223 54.4686 368.813 54.4686C368.599 54.4686 368.386 54.5121 368.173 54.599C367.96 54.6779 367.758 54.7885 367.569 54.9306C367.379 55.0728 367.213 55.2426 367.071 55.44C366.929 55.6375 366.823 55.8546 366.751 56.0916V59.8231H365.709V53.6394H366.657V54.9662C366.902 54.5318 367.253 54.1843 367.711 53.9237C368.177 53.6631 368.682 53.5328 369.227 53.5328C369.583 53.5328 369.879 53.5999 370.116 53.7342C370.353 53.8605 370.542 54.0422 370.684 54.2791C370.827 54.5081 370.925 54.7806 370.981 55.0965C371.044 55.4124 371.075 55.7559 371.075 56.1271V59.8231Z" fill="white"/>
<path fill-rule="evenodd" clip-rule="evenodd" d="M77 38.5L38.5 0L29.2148 9.28523L55.0001 35.0705C55.6447 34.657 56.4113 34.4172 57.234 34.4172C59.522 34.4172 61.3767 36.272 61.3767 38.5599C61.3767 40.8479 59.522 42.7027 57.234 42.7027C54.946 42.7027 53.0913 40.8479 53.0913 38.5599C53.0913 37.7372 53.3311 36.9705 53.7446 36.326L27.9593 10.5407L10.1286 28.3714L36.0618 54.3046C36.7064 53.8911 37.4731 53.6513 38.2959 53.6513C40.5838 53.6513 42.4386 55.506 42.4386 57.794C42.4386 60.082 40.5838 61.9367 38.2959 61.9367C36.0079 61.9367 34.1531 60.082 34.1531 57.794C34.1531 56.9713 34.3929 56.2047 34.8064 55.5601L8.87317 29.6268L0 38.5L38.5 77L77 38.5ZM28.9494 25.0707C26.6614 25.0707 24.8066 26.9254 24.8066 29.2134C24.8066 31.5014 26.6614 33.3561 28.9494 33.3561C29.772 33.3561 30.5387 33.1163 31.1833 32.7028L56.5558 58.0753L57.8112 56.8199L32.4387 31.4474C32.8523 30.8028 33.0921 30.0361 33.0921 29.2134C33.0921 26.9254 31.2373 25.0707 28.9494 25.0707ZM27.1642 29.2134C27.1642 28.2275 27.9635 27.4283 28.9494 27.4283C29.9353 27.4283 30.7345 28.2275 30.7345 29.2134C30.7345 30.1993 29.9353 30.9985 28.9494 30.9985C27.9635 30.9985 27.1642 30.1993 27.1642 29.2134ZM57.2341 40.3451C58.22 40.3451 59.0193 39.5458 59.0193 38.5599C59.0193 37.574 58.22 36.7748 57.2341 36.7748C56.2482 36.7748 55.449 37.574 55.449 38.5599C55.449 39.5458 56.2482 40.3451 57.2341 40.3451ZM38.2959 59.5791C39.2818 59.5791 40.081 58.7799 40.081 57.794C40.081 56.8081 39.2818 56.0088 38.2959 56.0088C37.31 56.0088 36.5107 56.8081 36.5107 57.794C36.5107 58.7799 37.31 59.5791 38.2959 59.5791Z" fill="white"/>
</svg>
