<svg width="130" height="65" viewBox="0 0 130 65" fill="none" xmlns="http://www.w3.org/2000/svg">
<path fill-rule="evenodd" clip-rule="evenodd" d="M91.2148 27.5219H95.2155C98.0053 27.5219 99.4595 28.5213 99.4595 30.6602C99.4595 31.6098 98.8934 32.3178 98.3132 32.6871V32.7187C99.0884 32.9926 100.28 33.8284 100.28 35.3897C100.28 37.4647 99.0544 38.8957 95.6986 38.8957H91.2148V27.5219ZM94.9582 32.1875C96.1518 32.1875 96.7486 31.98 96.7486 30.9648C96.7486 30.0004 96.1028 29.6144 94.8138 29.6144H93.973V32.1875H94.9582ZM95.3583 36.7559C96.8117 36.7559 97.5388 36.3716 97.5388 35.4528C97.5388 34.4235 96.7486 34.0534 95.1666 34.0534H93.973V36.7559H95.3583ZM101.145 36.3874C101.145 34.1671 103.18 33.7172 104.919 33.7172H106.452V33.1694C106.452 32.3983 105.954 32.1734 104.856 32.1734C103.986 32.1734 103.047 32.3651 102.227 32.5593L101.693 30.6137C102.693 30.2261 103.854 29.9049 105.259 29.9049C107.986 29.9049 109.083 30.676 109.083 32.6548V36.5633C109.083 36.8555 109.373 36.9194 109.875 36.9327L109.778 38.9604C109.567 38.9787 109.357 38.9787 109.147 38.9787C108.084 38.9787 106.954 38.8003 106.71 38.0441C106.066 38.5421 105.145 39.0401 104.178 39.0401C102.241 39.0401 101.145 38.1396 101.145 36.3874ZM106.452 36.6613V35.276L105.129 35.31C104.338 35.3233 103.76 35.5806 103.76 36.2255C103.76 36.7401 104.259 36.9651 104.742 36.9651C105.259 36.9651 105.874 36.8198 106.452 36.6596V36.6613ZM111.194 30.1141H113.888V30.9989C114.419 30.5963 115.583 29.8883 116.76 29.8883C119.519 29.8883 119.714 31.3998 119.714 33.3951V38.8957H117.034V33.6193C117.034 32.4132 116.76 32.2041 115.857 32.2041C115.05 32.2041 114.323 32.463 113.888 32.6722V38.8957H111.194V30.1132V30.1141ZM121.45 26.7682H124.143V33.3628L126.583 30.1141H129.469L126.257 34.1671L130 38.8957H126.678L124.143 35.2768V38.8957H121.449L121.45 26.7682Z" fill="#A8ACB4"/>
<path fill-rule="evenodd" clip-rule="evenodd" d="M27.015 18.8219H34.0403V30.1982H22.6309V27.6318L28.9332 21.3493L29.2428 21.0422L27.015 18.8219Z" fill="#A8ACB4"/>
<path fill-rule="evenodd" clip-rule="evenodd" d="M19.9394 13L28.0088 21.0429L19.9394 29.0867L18.1216 27.2731V17.9519H14.9717L19.9394 13Z" fill="#A8ACB4"/>
<path fill-rule="evenodd" clip-rule="evenodd" d="M5.84082 18.8219V25.8273L7.75817 23.9166L8.06943 23.6095L14.6756 30.199H17.2511V18.8219H5.84082Z" fill="#A8ACB4"/>
<path fill-rule="evenodd" clip-rule="evenodd" d="M0 32.8815L8.06947 24.8378L16.1348 32.8815L14.3154 34.6968H4.96768V37.8359L0 32.8815Z" fill="#A8ACB4"/>
<path fill-rule="evenodd" clip-rule="evenodd" d="M5.84082 46.9422V35.5651H17.2511V38.1316L10.9488 44.414L10.6392 44.7211L10.9488 45.0282L12.867 46.9422H5.84082Z" fill="#A8ACB4"/>
<path fill-rule="evenodd" clip-rule="evenodd" d="M19.942 52.7639L11.8726 44.721L19.942 36.6764L21.7573 38.4883V47.8111H24.9097L19.942 52.7639Z" fill="#A8ACB4"/>
<path fill-rule="evenodd" clip-rule="evenodd" d="M34.0405 46.9422H22.6294V35.5651H25.205L31.5048 41.8501L31.8144 42.1547L32.1215 41.8476L34.0405 39.936V46.9422Z" fill="#A8ACB4"/>
<path fill-rule="evenodd" clip-rule="evenodd" d="M31.8152 40.9271L23.749 32.8817L25.5668 31.0681H34.9145V27.929L39.8822 32.8817L31.8152 40.9271Z" fill="#A8ACB4"/>
<path fill-rule="evenodd" clip-rule="evenodd" d="M45.6514 27.4154H50.126C52.7132 27.4154 54.5683 28.9111 54.5683 31.4444C54.5683 33.6746 52.7132 35.553 49.2811 35.553H48.4344V38.7652H45.6514V27.4154ZM49.3782 33.4497C51.1046 33.4497 51.7197 32.5641 51.7197 31.5091C51.7197 30.3695 51.2507 29.5527 49.7691 29.5527H48.4344V33.4497H49.3773H49.3782ZM82.2338 27.4154H78.5153L74.7021 38.7643H77.5242L78.595 35.4426H82.1541L83.2298 38.7643H86.0519L82.2329 27.4154H82.2338ZM79.2374 33.4696L80.3778 29.1012L81.5133 33.4696H79.2374ZM61.7347 27.4154H58.0137L54.2006 38.7643H57.0227L58.0934 35.4426H61.6525L62.7282 38.7643H65.5503L61.7339 27.4154H61.7347ZM58.7342 33.4696L59.8738 29.1012L61.0109 33.4696H58.7342ZM71.4783 38.5643C71.641 39.0125 71.827 39.7272 71.827 40.1812C71.827 41.5939 70.3935 42.3616 69.4406 42.8182L68.5849 41.0693C68.9642 40.807 69.7303 40.4609 69.7303 39.8492C69.7303 39.5172 69.6589 39.1046 69.5859 38.7618C67.9275 38.7411 66.9331 38.4215 66.1529 37.9874L66.8833 36.0834C67.8445 36.427 68.5492 36.583 69.7411 36.583C71.0359 36.583 71.6352 36.1788 71.6352 35.5073C71.6352 33.7145 66.5015 34.2017 66.5015 30.4575C66.5015 28.3368 68.4712 27.4154 70.3794 27.4154C72.0942 27.4154 72.9168 27.7931 73.7576 28.1658L73.0089 30.0076C72.2146 29.7727 71.5572 29.5552 70.4599 29.5552C69.3726 29.5552 69.0364 29.9736 69.0364 30.4409C69.0364 31.91 74.2597 31.91 74.2597 35.4152C74.2597 37.2014 73.0247 38.1775 71.4792 38.5643H71.4783Z" fill="#A8ACB4"/>
</svg>
