<svg width="130" height="65" viewBox="0 0 130 65" fill="none" xmlns="http://www.w3.org/2000/svg">
<path d="M7.69929 21.5939C7.69929 29.6982 0.9104 31.2149 0.9104 39.0046C0.9104 42.0457 2.82687 44.6792 5.08897 44.9939C4.92389 44.4393 4.86973 44.0111 4.86973 43.4127C4.86973 37.7897 13.9078 36.046 13.9078 26.456C13.9078 21.8699 10.6733 17.9931 6.89969 17.0722C6.89969 17.0722 7.69671 19.5613 7.69671 21.5913L7.69929 21.5939Z" fill="#FF2F2B"/>
<path d="M7.12671 43.7532C7.12671 45.3447 8.25389 47.0393 9.72413 47.5913C9.64675 47.3566 9.61064 47.1502 9.61064 46.8046C9.61064 43.6707 18.8809 42.6724 18.8809 34.483C18.8809 32.2183 17.9342 29.7601 16.0591 28.148C14.79 37.457 7.12671 38.7389 7.12671 43.7532V43.7532Z" fill="#6EC248"/>
<path d="M2.26984 19.6722C2.26984 19.6722 2.71607 20.4744 2.71607 21.3695C2.71607 24.2455 0 25.3417 0 28.2641C0 29.6441 0.750595 30.7764 1.81071 31.4341C1.83909 31.1839 1.86488 30.9492 1.92937 30.7532C2.56389 28.7232 5.54048 26.4766 5.54048 23.2911C5.54048 21.3824 3.95675 19.8115 2.26984 19.6722V19.6722Z" fill="#33ADE1"/>
<path d="M31.7571 36.3762C33.5136 37.96 35.1799 38.8911 37.5839 38.8911C38.9174 38.8911 41.3471 38.3288 41.3471 36.5748C41.3471 35.5611 40.5837 35.0478 39.0902 34.7951L34.8987 34.1141C31.169 33.5234 29.1287 31.5425 29.1287 28.5736C29.1287 23.7141 33.0622 21.7022 37.362 21.7022C40.6997 21.7022 43.9833 23.059 46.2428 25.5764L42.4227 28.3183C41.0918 26.7062 39.1392 25.7699 37.019 25.7699C35.866 25.7699 34.1636 26.505 34.1636 27.8076C34.1636 28.8806 35.0432 29.4197 36.9622 29.7318L38.8916 30.0413C42.9051 30.6913 46.217 31.9346 46.217 35.7778C46.217 41.8316 40.7539 42.9665 36.9958 42.9665C33.5755 42.9665 30.3642 41.86 27.6172 38.8653L31.7571 36.3762ZM58.6005 42.9691C52.1753 42.9691 48.4146 37.9883 48.4146 32.3292C48.4146 26.6804 52.1753 21.7022 58.6005 21.7022C65.018 21.7022 68.7761 26.6804 68.7761 32.3292C68.7761 37.9857 65.0154 42.9691 58.6005 42.9691ZM58.6005 25.9401C55.6549 25.9401 53.4521 27.8101 53.4521 32.3292C53.4521 35.2748 54.6412 38.726 58.6005 38.726C62.3303 38.726 63.7464 35.4425 63.7464 32.3292C63.7464 29.1643 62.3303 25.9401 58.6005 25.9401ZM85.2402 28.9709C84.5309 27.1008 82.8053 25.9375 81.0461 25.9375C78.2811 25.9375 76.0783 27.8127 76.0783 32.3318C76.0783 35.2748 77.2648 38.726 81.2267 38.726C82.5835 38.726 84.5644 37.7098 85.3537 35.8965L89.3414 37.8207C87.6158 40.9598 84.6186 42.9665 81.2267 42.9665C74.8015 42.9665 71.0382 37.9883 71.0382 32.3318C71.0382 26.683 74.5487 21.7048 80.8269 21.7048C84.7836 21.7048 87.3836 23.6264 89.2537 26.959L85.2402 28.9709ZM97.1775 22.2722H102.38L109.989 42.399H104.583L103.567 39.2342H96.1329L95.1114 42.399H89.7438L97.1775 22.2722ZM102.349 35.4992L99.8652 27.1885H99.811L97.3194 35.4992H102.349ZM111.986 22.2697H122.053C126.58 22.2697 129.355 24.3641 129.355 28.8832C129.355 31.4883 127.712 33.575 125.192 34.3127L129.809 42.399H124.176L120.216 35.1613H117.023V42.399H111.986V22.2697ZM117.023 31.4213H121.632C123.245 31.398 124.32 30.583 124.32 28.7129C124.32 26.8429 123.245 26.0252 121.632 25.9969H117.023V31.4213Z" fill="#0C0C0C"/>
</svg>
