<svg width="130" height="65" viewBox="0 0 130 65" fill="none" xmlns="http://www.w3.org/2000/svg">
<path d="M14.5186 23.6294H0.000488281L7.30357 31.2715L14.5186 23.6294Z" fill="#A8ACB4"/>
<path d="M14.0921 32.7992L6.87793 40.4404H21.396L14.0921 32.7992Z" fill="#A8ACB4"/>
<path d="M16.0917 23.6294L0.000488281 40.4404H5.30431L21.396 23.6294H16.0917Z" fill="#A8ACB4"/>
<path d="M88.2518 37.9378C87.7085 38.5782 86.8933 38.8533 85.8063 38.8533C85.1728 38.8533 84.629 38.762 84.2664 38.487C83.9042 38.2119 83.7231 37.9378 83.7231 37.4794V32.1729C83.9042 32.1729 84.0853 32.1729 84.4475 32.1729C84.7202 32.1729 85.1727 32.1729 85.6253 32.1729C86.7127 32.1729 87.6173 32.447 88.161 32.9966C88.795 33.5449 89.0669 34.2774 89.0669 35.1929C89.0669 36.382 88.795 37.297 88.2518 37.9378ZM83.7236 25.4003C83.9959 25.4003 84.2668 25.4003 84.6295 25.4003C84.9917 25.4003 85.2631 25.4003 85.4442 25.4003C86.4399 25.4003 87.1657 25.6754 87.6173 26.1329C88.0707 26.5904 88.343 27.2308 88.343 28.0541C88.343 28.5125 88.2522 28.9691 88.1614 29.3353C88.0711 29.7016 87.89 30.0674 87.6177 30.3424C87.3472 30.6166 87.0753 30.8916 86.6228 30.9824C86.1703 31.1657 85.7169 31.1657 85.1737 31.1657H83.8153V25.3999H83.7236V25.4003ZM91.24 37.3882C91.5123 36.8395 91.6934 36.2903 91.6934 35.5587C91.6934 34.8261 91.5123 34.2779 91.24 33.8195C90.9686 33.362 90.6064 32.9054 90.1534 32.6294C89.7009 32.3558 89.2475 32.0816 88.7047 31.8983C88.161 31.7149 87.7085 31.6237 87.2551 31.5316V31.4408C87.7085 31.3496 88.161 31.1667 88.6135 30.9828C89.0669 30.7999 89.4291 30.5253 89.7009 30.2517C90.0627 29.9762 90.3345 29.6108 90.5161 29.1529C90.6967 28.6954 90.7866 28.2379 90.7866 27.6892C90.7866 27.0479 90.6972 26.5904 90.4248 26.1329C90.1534 25.6754 89.7908 25.4003 89.4291 25.1262C88.9766 24.8516 88.5241 24.6678 88.0707 24.5766C87.6173 24.4854 87.0749 24.3941 86.5312 24.3941H79.558V25.1262C79.7387 25.1262 79.9198 25.1262 80.1916 25.2179C80.4635 25.3091 80.6441 25.3999 80.916 25.4916C81.1888 25.5842 81.2786 25.7666 81.3689 25.95C81.4597 26.1329 81.4597 26.3158 81.4597 26.5904V37.4794C81.4597 37.7549 81.4597 37.9378 81.3689 38.1207C81.2786 38.3032 81.0966 38.3953 80.916 38.487C80.7353 38.5787 80.5538 38.5782 80.1916 38.6699C79.8299 38.7616 79.6479 38.7616 79.4668 38.7616V39.6766H86.6219C87.2551 39.6766 87.8896 39.5858 88.4319 39.402C89.0664 39.2186 89.5194 38.9445 90.0627 38.6703C90.5161 38.3032 90.8782 37.9378 91.24 37.3882Z" fill="#A8ACB4"/>
<path d="M35.2619 38.9404C34.4621 38.9404 33.928 38.8482 33.6615 38.7556C33.3951 38.6635 33.3053 38.4793 33.3053 38.2038C33.3053 38.019 33.75 37.2833 34.6396 36.1782C35.5292 34.9813 36.2408 33.9683 36.952 33.1405C37.3968 33.6928 37.7526 34.3373 38.1979 34.8897C38.6422 35.5342 38.9985 36.086 39.2649 36.5463C39.5313 37.0074 39.7986 37.3746 39.9761 37.6519C40.154 38.0195 40.2434 38.2042 40.2434 38.2963C40.2434 38.4792 40.0655 38.664 39.6212 38.7561C39.2649 38.8487 38.7316 38.9408 38.1089 38.9408V39.677H45.8473V38.9408C45.6693 38.9408 45.4025 38.9408 45.0462 38.8487C44.7793 38.8487 44.512 38.7561 44.335 38.664C44.1575 38.5727 43.8907 38.3889 43.6233 38.0195C43.3569 37.7445 43.0006 37.375 42.8227 37.1C42.1111 36.1791 41.3994 35.1665 40.5988 34.153C39.8881 33.1414 39.1764 32.2205 38.5542 31.3922C39.2649 30.4713 39.8876 29.643 40.4213 28.9985C40.8657 28.3541 41.3994 27.7096 42.0226 26.973C42.3779 26.6044 42.6453 26.2359 42.8227 26.053C43.0006 25.8687 43.3569 25.6844 43.7128 25.4997C43.8907 25.4085 44.1575 25.3155 44.5125 25.3155C44.8687 25.3155 45.0467 25.2242 45.3131 25.2242V24.3955H39.1764V25.1321C39.8876 25.1321 40.3324 25.2242 40.5988 25.3155C40.8661 25.4085 41.0436 25.5914 41.0436 25.8687C41.0436 26.1442 40.6887 26.6975 40.066 27.6174C39.4437 28.5379 38.6427 29.4597 37.8421 30.5639C37.3977 29.9194 36.9525 29.3662 36.5971 28.9064C36.2417 28.4466 35.9753 27.9869 35.708 27.5253C35.4402 27.1577 35.2628 26.7887 34.9959 26.4211C34.818 26.053 34.7295 25.8687 34.7295 25.6844C34.7295 25.5002 34.9959 25.3159 35.4402 25.2242C35.885 25.1321 36.4197 25.04 36.8649 25.04V24.3955H29.2151V25.1321C29.3934 25.1321 29.6594 25.1321 30.0157 25.2242C30.3715 25.2242 30.6379 25.3155 30.8167 25.4085C31.1721 25.4997 31.3496 25.684 31.6169 25.8687C31.7944 26.053 32.0612 26.3289 32.417 26.7882C33.2181 27.8934 33.9293 28.8147 34.641 29.8273C35.3531 30.7477 35.8859 31.5765 36.3307 32.1279C35.7089 32.865 35.0862 33.7845 34.286 34.7059C33.4841 35.6267 32.8618 36.4555 32.417 37.1C32.1506 37.375 31.9732 37.6523 31.7072 37.9283C31.4399 38.2042 31.1726 38.3889 30.7278 38.5727C30.4614 38.7561 30.1949 38.7561 29.8378 38.8487C29.5713 38.8487 29.3049 38.9408 29.0376 38.9408V39.677H35.1747V38.9408H35.2619V38.9404Z" fill="#A8ACB4"/>
<path d="M99.8739 36.9838C99.6047 37.355 99.1549 37.6337 98.7955 37.9128C98.3462 38.1906 97.8968 38.2836 97.3567 38.2836C96.8176 38.2836 96.4586 38.1906 96.0986 37.8198C95.7392 37.5407 95.5595 37.0768 95.5595 36.5195C95.5595 36.0556 95.6489 35.683 95.9198 35.3131C96.189 34.9409 96.459 34.6623 96.818 34.4775C97.2678 34.1984 97.7176 34.0123 98.1669 33.8267C98.6162 33.6411 99.2453 33.455 99.8748 33.2694V36.9838H99.8739ZM103.92 39.0261V38.4688C102.571 38.4688 102.032 37.7263 102.032 37.0768V31.7839C102.032 31.0414 102.032 28.9055 99.5153 28.3486C99.0651 28.2556 96.8176 27.8852 95.1101 28.999C94.7507 29.2772 94.3903 29.4628 94.1212 29.8346C93.8507 30.1132 93.7608 30.4849 93.7608 30.8557C93.7608 31.7843 94.4806 32.063 94.9295 32.063C96.6378 32.063 96.3682 30.6706 96.2775 30.3914C96.1885 30.1132 96.0982 29.8341 96.0982 29.6489C96.188 29.5559 96.7277 29.0911 97.7167 29.0911C99.5149 29.0911 99.8734 30.4845 99.8734 31.4135V32.5273C99.5148 32.7125 98.795 32.9912 97.7167 33.2698C96.4586 33.6411 94.0313 34.1054 93.4009 35.8695C93.3115 36.1487 93.2207 36.5199 93.2207 36.9842C93.2207 37.6342 93.4921 38.3762 94.0313 38.9345C94.5705 39.3979 95.2894 39.677 96.188 39.677C98.3457 39.677 99.4241 38.5628 99.8734 38.098H99.9637C100.053 38.5623 100.323 39.0266 100.684 39.3048C101.042 39.5839 101.491 39.6765 102.121 39.6765C102.48 39.6765 102.75 39.6765 103.02 39.5839C103.201 39.3044 103.56 39.2113 103.92 39.0261Z" fill="#A8ACB4"/>
<path d="M54.0599 37.0546C53.7926 37.4295 53.3482 37.71 52.9915 37.9918C52.5453 38.2723 52.1001 38.3649 51.5646 38.3649C51.0295 38.3649 50.6732 38.2723 50.3169 37.897C49.9602 37.616 49.7818 37.1485 49.7818 36.5867C49.7818 36.1192 49.8707 35.7443 50.1376 35.3699C50.4058 34.9959 50.6732 34.7145 51.0295 34.5275C51.4751 34.2466 51.9217 34.0591 52.367 33.8726C52.9012 33.6847 53.4367 33.4986 54.0594 33.3107V37.0546H54.0599ZM58.0725 39.1147V38.5532C56.7354 38.5532 56.1998 37.8044 56.1998 37.1485V31.8129C56.1998 31.065 56.1998 28.911 53.7045 28.35C53.2588 28.256 51.0295 27.8816 49.3366 29.004C48.9794 29.2849 48.6226 29.4728 48.3553 29.8464C48.088 30.1269 47.9986 30.5022 47.9986 30.8766C47.9986 31.8125 48.7125 32.0939 49.1582 32.0939C50.8515 32.0939 50.5847 30.6887 50.4953 30.4082C50.4063 30.1273 50.3169 29.8468 50.3169 29.6603C50.3169 29.3793 50.8515 29.0044 51.8328 29.0044C53.6156 29.0044 53.9723 30.4087 53.9723 31.3459V32.4688C53.6156 32.6558 52.9016 32.9363 51.8328 33.2167C50.5842 33.5916 48.1778 34.0591 47.5538 35.8382C47.4639 36.1192 47.3745 36.4932 47.3745 36.9616C47.3745 37.616 47.6418 38.3653 48.1778 38.9272C48.7125 39.3956 49.4255 39.6761 50.3169 39.6761C52.4568 39.6761 53.5257 38.5528 53.9723 38.0849H54.0599C54.1497 38.5528 54.4171 39.0207 54.7738 39.3017C55.1305 39.5826 55.5758 39.6761 56.1998 39.6761C56.5566 39.6761 56.8239 39.6761 57.0912 39.5826C57.3595 39.3961 57.7153 39.3021 58.0725 39.1147Z" fill="#A8ACB4"/>
<path d="M60.3425 25.3867V37.808C60.3425 38.7429 59.3821 38.929 58.6836 38.929V39.6761H64.1849V38.929C63.3992 38.929 62.4393 38.7429 62.4393 37.808V23.0525L62.2632 22.8655L58.0723 23.0525V23.7061C60.2558 23.7065 60.3425 24.7341 60.3425 25.3867Z" fill="#A8ACB4"/>
<path d="M127.874 37.036C127.521 36.5694 124.42 32.1797 124.42 32.1797L126.457 30.2181C126.457 30.2181 127.963 28.817 129.026 28.817V28.07H124.508V28.817C125.393 28.817 125.66 29.0975 125.747 29.2836C125.926 29.7515 125.216 30.4051 125.216 30.4051C125.216 30.4051 122.824 32.8332 122.204 33.4868V22.187L122.027 22L117.774 22.187V22.9341C119.99 22.9341 120.077 23.9611 120.077 24.6147V36.942C120.077 37.877 119.104 38.0626 118.395 38.0626V38.8106H123.976V38.0626C123.178 38.0626 122.292 37.877 122.292 36.942V34.2334L123.178 33.3937C123.444 33.7664 126.811 38.8106 126.811 38.8106H129.999V38.0626C128.583 38.0626 128.139 37.5035 127.874 37.036Z" fill="#A8ACB4"/>
<path d="M73.6098 37.3324C73.3339 37.6056 72.9653 37.8788 72.5968 38.0613C72.2283 38.2437 71.675 38.4262 71.1222 38.4262C70.4777 38.4262 69.9244 38.3354 69.4647 38.0613C69.0036 37.7871 68.6359 37.5144 68.3586 37.0582C68.0827 36.6025 67.8063 36.1469 67.7141 35.6907C67.6216 35.2351 67.5294 34.6877 67.5294 34.0491C67.5294 32.4987 67.8063 31.3146 68.4517 30.494C69.0957 29.6725 69.8332 29.2178 70.8462 29.2178C71.3065 29.2178 71.6745 29.3085 71.9519 29.3993C72.2278 29.4905 72.5047 29.6725 72.7815 29.855C72.9653 30.0379 73.15 30.2203 73.3339 30.4023C73.5177 30.5834 73.6098 30.858 73.6098 30.9492V37.3324V37.3324ZM76.4655 43.258C76.2812 43.1663 76.097 43.0764 76.0039 42.8935C75.9132 42.7106 75.8201 42.5282 75.8201 42.2549V32.226C75.8201 31.6791 75.8201 30.9497 75.9132 30.2208C76.0039 29.4914 76.0039 28.8524 76.0039 28.306L75.3599 28.2152L74.3469 29.5827C74.2538 29.4914 74.07 29.4002 73.7936 29.2182C73.5172 29.0353 73.333 28.9441 73.0561 28.8524C72.7811 28.7612 72.4116 28.6709 72.0435 28.5792C71.6745 28.488 71.2143 28.488 70.6615 28.488C69.924 28.488 69.2795 28.6704 68.542 28.8524C67.8058 29.1265 67.253 29.491 66.6998 29.9467C66.1465 30.4028 65.7784 31.0414 65.409 31.6786C65.1339 32.3172 64.9492 33.047 64.9492 33.8667C64.9492 34.6877 65.1335 35.5087 65.409 36.2376C65.6867 36.9665 66.0544 37.5139 66.5155 38.0613C66.9757 38.5169 67.5281 38.9726 68.1735 39.1555C68.8188 39.4287 69.4633 39.52 70.2009 39.52C70.6611 39.52 71.0291 39.52 71.3055 39.4287C71.5829 39.338 71.9509 39.2472 72.2269 39.0643C72.5033 38.9726 72.7806 38.7902 72.9644 38.6082C73.2399 38.4262 73.4251 38.3349 73.5168 38.1525H73.6089V42.3462C73.6089 42.6198 73.5168 42.8018 73.4251 42.9848C73.333 43.1658 73.1491 43.258 72.8714 43.3492C72.6876 43.3492 72.5033 43.4395 72.2269 43.4395C71.9509 43.4395 71.7667 43.4395 71.4898 43.5312V44.2606H77.9387V43.5312C77.7549 43.5312 77.4785 43.4395 77.2017 43.4395C76.9266 43.44 76.7419 43.3492 76.4655 43.258Z" fill="#A8ACB4"/>
<path d="M112.013 38.1861V38.9118H117.674V38.1861C116.931 38.1861 115.91 38.0054 115.91 37.0986V31.5679C115.91 30.5712 115.725 29.7551 115.169 29.1206C114.611 28.4866 113.961 28.2143 112.663 28.2143C110.807 28.2143 109.23 29.8463 109.044 30.027H108.951V28.4861L108.765 28.3041L104.684 28.576V29.2109C106.353 29.2109 106.725 29.9358 106.725 30.6615V35.1937V37.1889C106.725 38.0957 105.704 38.2768 104.961 38.2768V38.9104H110.621V38.1847C109.879 38.1847 108.951 38.0041 108.951 37.0972V31.0232C109.416 30.2984 110.25 29.4814 111.642 29.4814C112.663 29.4814 113.591 30.2076 113.591 31.8397V37.188C113.683 38.0054 112.848 38.1861 112.013 38.1861Z" fill="#A8ACB4"/>
</svg>
