<svg width="131" height="65" viewBox="0 0 131 65" fill="none" xmlns="http://www.w3.org/2000/svg">
<path d="M47.0564 39.149H46.928C46.7597 39.1449 46.5995 39.0762 46.4804 38.9571C46.3614 38.8381 46.2927 38.6778 46.2886 38.5096V37.4858C45.8796 38.087 45.3246 38.5745 44.6758 38.9026C44.0269 39.2307 43.3053 39.3888 42.5787 39.3619C41.2211 39.3562 39.9214 38.8114 38.9655 37.8474C38.0096 36.8834 37.4758 35.5792 37.4815 34.2216C37.4872 32.864 38.032 31.5643 38.996 30.6084C39.96 29.6525 41.2642 29.1187 42.6218 29.1244C43.3436 29.099 44.0605 29.2533 44.708 29.5733C45.3555 29.8934 45.9134 30.3693 46.3316 30.9582V29.9807C46.3358 29.8124 46.4045 29.6522 46.5235 29.5332C46.6425 29.4141 46.8028 29.3454 46.9711 29.3413H47.0954C47.2637 29.3454 47.4239 29.4141 47.543 29.5332C47.662 29.6522 47.7307 29.8124 47.7348 29.9807V38.512C47.7133 38.6804 47.6338 38.8361 47.51 38.9523C47.3862 39.0686 47.2259 39.1381 47.0564 39.149ZM42.621 37.9546C43.1148 37.98 43.6084 37.9015 44.0699 37.7242C44.5315 37.5469 44.9507 37.2747 45.3004 36.9252C45.6502 36.5756 45.9227 36.1566 46.1003 35.6952C46.2779 35.2338 46.3567 34.7402 46.3316 34.2464C46.3389 33.7591 46.2476 33.2754 46.0632 32.8244C45.8788 32.3733 45.6051 31.9642 45.2586 31.6216C44.9121 31.279 44.4999 31.0101 44.0467 30.8308C43.5936 30.6516 43.1089 30.5659 42.6218 30.5787C42.1366 30.5579 41.6524 30.6389 41.2003 30.8165C40.7483 30.994 40.3384 31.2642 39.997 31.6096C39.6556 31.955 39.3903 32.3681 39.2181 32.8222C39.0459 33.2763 38.9707 33.7614 38.9972 34.2464C38.9809 34.7307 39.0629 35.2134 39.2382 35.6652C39.4135 36.117 39.6785 36.5287 40.0172 36.8754C40.3559 37.222 40.7613 37.4965 41.2089 37.6823C41.6565 37.868 42.1372 37.9612 42.6218 37.9562L42.621 37.9546Z" fill="#A8ACB4"/>
<path d="M59.0825 30.7908L52.6434 37.7417H58.6137C58.782 37.7459 58.9422 37.8146 59.0613 37.9336C59.1803 38.0526 59.249 38.2129 59.2531 38.3812V38.4624C59.249 38.6307 59.1803 38.791 59.0613 38.91C58.9422 39.0291 58.782 39.0977 58.6137 39.1019H51.4068C51.2385 39.0977 51.0782 39.0291 50.9592 38.91C50.8402 38.791 50.7715 38.6307 50.7674 38.4624V38.0789C50.7632 37.9997 50.7763 37.9205 50.8058 37.8469C50.8352 37.7732 50.8803 37.7069 50.938 37.6524L57.2495 30.7014H51.748C51.5797 30.6973 51.4195 30.6286 51.3005 30.5096C51.1814 30.3905 51.1127 30.2303 51.1086 30.062V29.9807C51.1127 29.8125 51.1814 29.6522 51.3005 29.5332C51.4195 29.4141 51.5797 29.3454 51.748 29.3413H58.573C58.7413 29.3454 58.9016 29.4141 59.0206 29.5332C59.1397 29.6522 59.2084 29.8125 59.2125 29.9807V30.322C59.2375 30.4044 59.2386 30.4923 59.2155 30.5753C59.1925 30.6583 59.1464 30.733 59.0825 30.7908Z" fill="#A8ACB4"/>
<path d="M61.7261 34.2025C61.6881 33.5369 61.789 32.8708 62.0225 32.2464C62.256 31.6219 62.6169 31.053 63.0822 30.5756C63.5476 30.0983 64.1072 29.723 64.7254 29.4737C65.3437 29.2244 66.0071 29.1066 66.6734 29.1276C69.4456 29.1276 71.4923 31.089 71.4923 34.2025C71.4882 34.3708 71.4195 34.531 71.3005 34.6501C71.1814 34.7691 71.0212 34.8378 70.8529 34.8419H63.1764C63.2543 35.7158 63.6651 36.5264 64.3239 37.1059C64.9826 37.6854 65.8389 37.9895 66.7156 37.9554C67.2657 37.9686 67.8111 37.8518 68.3077 37.6147C68.8042 37.3775 69.2377 37.0266 69.5732 36.5904C69.6441 36.491 69.742 36.4141 69.8554 36.3687C69.9687 36.3234 70.0927 36.3115 70.2126 36.3345L70.341 36.3775C70.5048 36.4219 70.6469 36.5242 70.741 36.6654C70.8352 36.8066 70.8749 36.9771 70.8529 37.1454C70.844 37.236 70.8149 37.3235 70.7676 37.4013C70.1179 38.2425 69.2192 38.8572 68.1997 39.1577C67.1801 39.4582 66.0917 39.4291 65.0897 39.0746C64.0876 38.7202 63.223 38.0584 62.6192 37.1837C62.0154 36.309 61.7031 35.2659 61.7269 34.2033L61.7261 34.2025ZM70.042 33.563C69.9849 32.7192 69.6011 31.9309 68.9721 31.3654C68.3431 30.8 67.5185 30.5021 66.6734 30.5349C65.8131 30.5113 64.9747 30.8081 64.3208 31.3676C63.6668 31.9271 63.244 32.7095 63.1341 33.563H70.042Z" fill="#A8ACB4"/>
<path d="M80.3191 30.1083C80.3088 30.1927 80.2818 30.2741 80.2396 30.3479C80.1974 30.4217 80.1408 30.4863 80.0733 30.5379C80.0058 30.5895 79.9287 30.6271 79.8464 30.6485C79.7641 30.6699 79.6784 30.6746 79.5943 30.6624H79.5131C79.2739 30.6168 79.0316 30.5896 78.7883 30.5812C76.7839 30.5812 75.9738 32.9269 75.9738 35.5285V38.5136C75.9697 38.6819 75.901 38.8422 75.782 38.9612C75.6629 39.0802 75.5027 39.1489 75.3344 39.1531H75.2068C75.0385 39.1489 74.8783 39.0802 74.7592 38.9612C74.6402 38.8422 74.5715 38.6819 74.5674 38.5136V29.9824C74.5715 29.8141 74.6402 29.6538 74.7592 29.5348C74.8783 29.4157 75.0385 29.3471 75.2068 29.3429H75.3344C75.5027 29.3471 75.6629 29.4157 75.782 29.5348C75.901 29.6538 75.9697 29.8141 75.9738 29.9824V31.5602C76.4426 29.8971 77.3388 29.1292 78.7883 29.1292C79.1475 29.1298 79.5053 29.1729 79.8543 29.2576C80.0003 29.298 80.1273 29.3886 80.2131 29.5135C80.2988 29.6383 80.3378 29.7894 80.3231 29.9401L80.3191 30.1083Z" fill="#A8ACB4"/>
<path d="M83.7311 24.693C83.9318 24.7011 84.1256 24.7681 84.2886 24.8855C84.4516 25.0029 84.5764 25.1657 84.6476 25.3535C84.7188 25.5414 84.7333 25.746 84.6891 25.9419C84.645 26.1379 84.5442 26.3166 84.3993 26.4557C84.2544 26.5948 84.0718 26.6883 83.8742 26.7245C83.6767 26.7607 83.4728 26.738 83.288 26.6593C83.1032 26.5806 82.9456 26.4492 82.8349 26.2816C82.7241 26.1141 82.6651 25.9176 82.665 25.7168C82.6645 25.5785 82.692 25.4417 82.7459 25.3144C82.7998 25.1872 82.879 25.0722 82.9787 24.9764C83.0784 24.8807 83.1964 24.8062 83.3258 24.7575C83.4551 24.7088 83.593 24.6868 83.7311 24.693ZM83.7733 39.1498H83.692C83.5238 39.1457 83.3635 39.077 83.2445 38.958C83.1254 38.8389 83.0567 38.6787 83.0526 38.5104V29.9791C83.0567 29.8108 83.1254 29.6506 83.2445 29.5315C83.3635 29.4125 83.5238 29.3438 83.692 29.3397H83.7733C83.9416 29.3438 84.1018 29.4125 84.2209 29.5315C84.3399 29.6506 84.4086 29.8108 84.4127 29.9791V38.5104C84.4086 38.6787 84.3399 38.8389 84.2209 38.958C84.1018 39.077 83.9416 39.1457 83.7733 39.1498Z" fill="#A8ACB4"/>
<path d="M95.8001 37.4866C95.9232 37.6118 95.9921 37.7803 95.9921 37.9558C95.9921 38.1313 95.9232 38.2998 95.8001 38.425C95.7571 38.4681 95.7189 38.5063 95.6726 38.5063C94.8078 39.0628 93.8012 39.359 92.7728 39.3594C91.4212 39.3594 90.125 38.8225 89.1693 37.8668C88.2137 36.9112 87.6768 35.615 87.6768 34.2634C87.6768 32.9119 88.2137 31.6157 89.1693 30.66C90.125 29.7043 91.4212 29.1674 92.7728 29.1674C93.7938 29.1796 94.7938 29.4598 95.6726 29.9799C95.8147 30.0742 95.9158 30.2189 95.9553 30.3848C95.9949 30.5507 95.9699 30.7255 95.8855 30.8737C95.8424 30.9159 95.8424 30.9549 95.8042 31.0012L95.7229 31.0825C95.6177 31.1877 95.4793 31.2532 95.3312 31.268C95.1831 31.2828 95.0345 31.246 94.9104 31.1637C94.2676 30.7738 93.5303 30.5673 92.7785 30.5665C92.2838 30.5592 91.7926 30.6504 91.3335 30.8346C90.8744 31.0189 90.4565 31.2925 90.1041 31.6398C89.7518 31.987 89.4719 32.4008 89.2809 32.8571C89.0899 33.3135 88.9916 33.8032 88.9916 34.298C88.9916 34.7927 89.0899 35.2824 89.2809 35.7388C89.4719 36.1951 89.7518 36.6089 90.1041 36.9561C90.4565 37.3034 90.8744 37.577 91.3335 37.7613C91.7926 37.9455 92.2838 38.0367 92.7785 38.0294C93.5303 38.0285 94.2676 37.822 94.9104 37.4322C95.0345 37.3499 95.1831 37.3131 95.3312 37.3279C95.4793 37.3427 95.6177 37.4082 95.7229 37.5134L95.8001 37.4866Z" fill="#A8ACB4"/>
<path d="M107.868 39.1498H107.74C107.572 39.1457 107.412 39.077 107.293 38.9579C107.174 38.8389 107.105 38.6786 107.101 38.5104V37.4866C106.692 38.0878 106.137 38.5754 105.488 38.9035C104.839 39.2317 104.118 39.3896 103.391 39.3627C102.721 39.376 102.056 39.2518 101.436 38.9976C100.816 38.7434 100.254 38.3646 99.7867 37.8848C99.319 37.405 98.9548 36.8343 98.7165 36.208C98.4782 35.5818 98.371 34.9133 98.4015 34.2439C98.3682 33.5759 98.4738 32.9083 98.7117 32.2832C98.9495 31.6581 99.3144 31.0891 99.7833 30.6122C100.252 30.1353 100.815 29.7608 101.436 29.5124C102.057 29.264 102.723 29.1471 103.391 29.169C104.113 29.1437 104.83 29.298 105.477 29.618C106.125 29.9381 106.683 30.4139 107.101 31.0029V29.9848C107.105 29.8165 107.174 29.6562 107.293 29.5372C107.412 29.4182 107.572 29.3495 107.74 29.3454H107.868C108.036 29.3495 108.196 29.4182 108.316 29.5372C108.435 29.6562 108.503 29.8165 108.507 29.9848V38.516C108.509 38.6004 108.493 38.6843 108.462 38.7626C108.43 38.8408 108.383 38.9119 108.324 38.9716C108.264 39.0313 108.193 39.0784 108.114 39.1099C108.036 39.1415 107.952 39.157 107.868 39.1555V39.1498ZM103.433 37.9554C103.926 37.9807 104.42 37.9021 104.882 37.7246C105.343 37.5472 105.762 37.2748 106.112 36.9251C106.462 36.5754 106.734 36.1562 106.912 35.6947C107.089 35.2331 107.168 34.7394 107.142 34.2455C107.15 33.7583 107.058 33.2746 106.874 32.8236C106.69 32.3725 106.416 31.9634 106.069 31.6208C105.723 31.2782 105.311 31.0092 104.857 30.83C104.404 30.6508 103.92 30.565 103.433 30.5779C102.947 30.5571 102.463 30.6381 102.011 30.8156C101.559 30.9932 101.149 31.2634 100.808 31.6088C100.466 31.9542 100.201 32.3673 100.029 32.8214C99.8567 33.2755 99.7814 33.7606 99.8079 34.2455C99.7916 34.7299 99.8735 35.2126 100.049 35.6645C100.224 36.1164 100.489 36.5281 100.828 36.8748C101.166 37.2215 101.572 37.496 102.019 37.6817C102.467 37.8674 102.948 37.9605 103.433 37.9554Z" fill="#A8ACB4"/>
<path d="M118.188 30.1083C118.178 30.1927 118.151 30.2741 118.109 30.3479C118.067 30.4217 118.01 30.4863 117.942 30.5379C117.875 30.5895 117.798 30.6271 117.716 30.6485C117.633 30.6699 117.548 30.6746 117.463 30.6624H117.382C117.143 30.6168 116.901 30.5896 116.657 30.5812C114.653 30.5812 113.843 32.9269 113.843 35.5285V38.5136C113.839 38.6819 113.77 38.8422 113.651 38.9612C113.532 39.0802 113.372 39.1489 113.204 39.1531H113.076C112.908 39.1489 112.747 39.0802 112.628 38.9612C112.509 38.8422 112.441 38.6819 112.437 38.5136V29.9824C112.441 29.8141 112.509 29.6538 112.628 29.5348C112.747 29.4157 112.908 29.3471 113.076 29.3429H113.204C113.372 29.3471 113.532 29.4157 113.651 29.5348C113.77 29.6538 113.839 29.8141 113.843 29.9824V31.5602C114.312 29.8971 115.208 29.1292 116.657 29.1292C117.017 29.1298 117.374 29.1729 117.723 29.2576C117.869 29.298 117.996 29.3886 118.082 29.5135C118.168 29.6383 118.207 29.7894 118.192 29.9401L118.188 30.1083Z" fill="#A8ACB4"/>
<path d="M129.361 39.1498H129.236C129.068 39.1457 128.908 39.077 128.789 38.958C128.67 38.8389 128.601 38.6787 128.597 38.5104V37.4866C128.188 38.0878 127.633 38.5753 126.984 38.9034C126.335 39.2316 125.614 39.3896 124.887 39.3627C124.217 39.376 123.552 39.2518 122.932 38.9976C122.312 38.7434 121.751 38.3647 121.283 37.8848C120.815 37.405 120.451 36.8343 120.213 36.2081C119.974 35.5818 119.867 34.9133 119.898 34.2439C119.864 33.5759 119.97 32.9083 120.208 32.2832C120.446 31.6581 120.811 31.0891 121.279 30.6122C121.748 30.1353 122.311 29.7608 122.932 29.5124C123.553 29.264 124.219 29.1471 124.887 29.1691C125.609 29.1437 126.326 29.298 126.973 29.618C127.621 29.9381 128.179 30.414 128.597 31.0029V24.7336C128.601 24.5653 128.67 24.4051 128.789 24.286C128.908 24.167 129.068 24.0983 129.236 24.0942H129.364C129.532 24.0983 129.693 24.167 129.812 24.286C129.931 24.4051 129.999 24.5653 130.003 24.7336V38.5096C130 38.6785 129.93 38.8395 129.811 38.9588C129.691 39.0781 129.53 39.1465 129.361 39.1498ZM124.925 37.9554C125.419 37.9808 125.913 37.9021 126.374 37.7247C126.836 37.5472 127.255 37.2748 127.605 36.9251C127.955 36.5754 128.227 36.1563 128.404 35.6947C128.582 35.2331 128.661 34.7394 128.635 34.2456C128.643 33.7583 128.551 33.2746 128.367 32.8236C128.182 32.3725 127.909 31.9634 127.562 31.6208C127.216 31.2782 126.803 31.0092 126.35 30.83C125.897 30.6508 125.412 30.5651 124.925 30.5779C124.44 30.5571 123.956 30.6381 123.504 30.8157C123.052 30.9932 122.642 31.2634 122.301 31.6088C121.959 31.9542 121.694 32.3673 121.522 32.8214C121.35 33.2755 121.274 33.7606 121.301 34.2456C121.285 34.7299 121.367 35.2126 121.542 35.6644C121.717 36.1162 121.982 36.5279 122.321 36.8745C122.659 37.2212 123.065 37.4957 123.512 37.6815C123.96 37.8672 124.441 37.9604 124.925 37.9554Z" fill="#A8ACB4"/>
<path d="M34.7314 44.9494H29.273C28.8558 44.9499 28.4452 44.8445 28.0797 44.6431C27.7143 44.4418 27.4058 44.1511 27.1833 43.7981L12.9832 21.0684C12.8881 20.9084 12.8571 20.7182 12.8966 20.5362C12.9361 20.3542 13.0431 20.194 13.1961 20.0877C13.3121 20.0208 13.4464 19.9924 13.5796 20.0065H16.3518C17.6027 20.0093 18.8327 20.3272 19.9283 20.9309C21.0238 21.5346 21.9497 22.4045 22.6203 23.4604L35.3286 43.8444C35.3807 43.9223 35.4165 44.0098 35.434 44.1018C35.4515 44.1939 35.4503 44.2885 35.4305 44.38C35.4106 44.4715 35.3725 44.5581 35.3184 44.6346C35.2643 44.7111 35.1954 44.7759 35.1157 44.8251C35.0632 44.8704 35.0021 44.9047 34.9361 44.926C34.8701 44.9474 34.8005 44.9553 34.7314 44.9494Z" fill="#A8ACB4" fill-opacity="0.85"/>
<path d="M21.5121 37.5727C20.7351 36.3363 19.6856 35.2939 18.444 34.5253C17.2024 33.7567 15.8014 33.2822 14.3482 33.1381L11.9172 32.9252C11.6927 32.9035 11.4761 32.8307 11.284 32.7124C11.092 32.5941 10.9295 32.4335 10.809 32.2427L9.70074 30.4552C9.60246 30.305 9.44965 30.1988 9.27456 30.1591C9.09947 30.1194 8.91579 30.1492 8.7623 30.2424C8.6717 30.2905 8.59756 30.3646 8.54943 30.4552L1.81055 41.1973L0.104302 43.8842C0.00916426 44.0443 -0.02177 44.2345 0.0177312 44.4165C0.0572324 44.5985 0.164233 44.7587 0.317177 44.8649C0.370269 44.9076 0.432635 44.9371 0.499247 44.9512C0.56586 44.9654 0.634857 44.9636 0.700677 44.9462H6.15986C6.57712 44.9466 6.98767 44.8412 7.35314 44.6399C7.7186 44.4385 8.02704 44.1478 8.24961 43.7949L12.3861 37.2274C14.058 36.8933 15.7563 36.7078 17.4609 36.6733C18.8691 36.5848 20.2736 36.8966 21.5121 37.5727Z" fill="#A8ACB4"/>
<path d="M1.80958 41.1965L0.103325 43.8834C0.00818768 44.0435 -0.0227465 44.2337 0.0167546 44.4157C0.0562558 44.5976 0.163257 44.7579 0.3162 44.8641C0.432234 44.9311 0.566492 44.9595 0.6997 44.9454H6.1597C6.57696 44.9458 6.98751 44.8404 7.35297 44.6391C7.71844 44.4377 8.02688 44.147 8.24945 43.7941L12.3851 37.2307C8.6603 37.9426 5.08399 39.2837 1.80958 41.1965Z" fill="#A8ACB4"/>
</svg>
