<svg width="130" height="65" viewBox="0 0 130 65" fill="none" xmlns="http://www.w3.org/2000/svg">
<path d="M37.2159 38.7877C37.2159 38.7877 36.3607 47.3105 36.1902 48.7918H39.049C39.049 48.7918 39.3913 46.484 40.1725 39.9279C40.3192 38.7388 40.5148 36.3595 40.5148 36.3595L37.2159 38.7877V38.7877Z" fill="#A8ACB4"/>
<path d="M29.4458 16.8606C33.1108 15.9626 35.7502 17.6383 36.9476 24.9707C37.2899 27.108 37.4366 29.5112 37.4605 31.9883C38.5601 31.1141 39.6359 30.2638 40.6377 29.4635C40.5399 26.5248 40.1964 23.7077 39.612 21.1101C38.3395 15.4772 34.6983 13.0728 31.0094 13.0728C30.5204 13.0728 30.0075 13.1205 29.4458 13.2183V16.8606V16.8606Z" fill="#A8ACB4"/>
<path d="M31.0093 13.0477C26.7336 13.0477 18.9384 16.6913 11.0692 25.2129C2.17432 34.8305 0.0251465 42.3824 0.0251465 46.3397C0.0251465 50.2981 2.68836 53.43 7.50194 53.43C12.3155 53.43 20.0368 50.4197 31.5221 42.7223C43.0074 35.0249 54.1016 25.4335 54.1016 25.4335L51.7067 19.9711C49.2379 21.9366 38.3895 32.3056 23.9225 41.5809C10.0185 50.4663 5.59607 49.01 5.00928 47.8686C4.49643 46.8978 3.47074 43.4975 9.09056 34.4655C14.7104 25.4323 23.4836 19.0456 27.9549 17.3222C29.0545 16.8845 30.0814 16.6424 31.0343 16.6186V13.0477H31.0093ZM126.896 31.9156V48.7918H129.779V31.9156H128.338H126.896ZM73.9677 39.3459V37.0631H64.6817V39.5892H70.4983L64.5111 46.4124L65.5619 48.7918H74.1633V46.2669H67.8339L73.9677 39.3459ZM54.0765 31.9156L46.7214 48.7918H49.9714L51.6578 44.8095H59.3302L61.0166 48.7918H64.2666L56.9353 31.9156H54.0765V31.9156ZM52.7813 42.2119L55.4934 35.824L58.2067 42.2107H52.7813V42.2119ZM114.752 36.796C111.086 36.796 108.691 39.4198 108.691 42.9155C108.691 46.5341 111.062 49.0577 114.702 49.0577C116.926 49.0577 118.734 48.1608 119.859 46.6307L117.732 45.0528C117.097 45.9747 116.046 46.509 114.727 46.509C112.968 46.509 111.794 45.3927 111.6 43.742H120.396V42.5506C120.396 38.9082 118.245 36.7948 114.752 36.7948V36.796ZM111.649 41.6775C111.966 40.0508 113.066 39.0537 114.63 39.0537C116.145 39.0537 117.243 39.9291 117.488 41.6775H111.649ZM122.033 48.7918H124.917V31.9156H122.033V40.3656V48.7918ZM102.265 39.3709C103.584 39.3709 104.684 40.0985 105.221 41.3615L107.714 40.0257C106.688 37.9624 105.1 36.7721 102.192 36.7721C98.5019 36.7721 96.0582 39.297 96.0582 42.8905C96.0582 46.4852 98.4531 49.0351 102.117 49.0351C104.732 49.0351 106.638 47.8209 107.714 45.853L105.221 44.5173C104.611 45.7075 103.633 46.4375 102.264 46.4375C100.383 46.4375 98.9898 44.8584 98.9898 42.8666C98.9898 40.925 100.383 39.3709 102.265 39.3709V39.3709ZM91.3412 38.7639H91.1456V37.0631H88.263V48.7918H91.1456V43.3532C91.1456 41.2398 92.2942 39.5892 94.0545 39.5892C94.4934 39.5892 94.9335 39.6369 95.3497 39.7836V36.9904C94.8608 36.8938 94.6163 36.8938 94.3479 36.8938C92.9549 36.8938 91.7813 37.6702 91.3424 38.7639H91.3412ZM81.0545 36.796C77.3883 36.796 74.9934 39.4198 74.9934 42.9155C74.9934 46.5341 77.3644 49.0577 81.0044 49.0577C83.2287 49.0577 85.0368 48.1608 86.1615 46.6307L84.035 45.0528C83.4005 45.9747 82.3497 46.509 81.0295 46.509C79.2703 46.509 78.0967 45.3927 77.9023 43.742H86.6743V42.5506C86.6743 38.9082 84.549 36.7948 81.0545 36.7948V36.796ZM77.9512 41.6775C78.2685 40.0508 79.3681 39.0537 80.9329 39.0537C82.4475 39.0537 83.546 39.9291 83.7905 41.6775H77.9512Z" fill="#A8ACB4"/>
</svg>
