<svg width="50" height="50" viewBox="0 0 50 50" fill="none" xmlns="http://www.w3.org/2000/svg">
<path d="M42.5781 41.2109C41.1719 41.2109 39.9187 41.8757 39.1138 42.9066L35.2539 41.62V32.3242H38.1836C41.3114 32.3242 44.268 31.1063 46.5084 28.895C48.7601 26.6727 50 23.7287 50 20.6055C50 14.1408 44.6562 8.88672 38.1836 8.88672C37.2868 8.88672 36.4056 8.98721 35.5523 9.18203C34.5609 6.77988 32.9404 4.63603 30.8893 3.04189C28.3284 1.05186 25.2789 0 22.0703 0C18.1661 0 14.4872 1.54443 11.7112 4.34873C8.94521 7.14307 7.42188 10.8356 7.42188 14.7461C7.42188 14.7864 7.42236 14.8265 7.42314 14.8662C3.28613 15.5523 0 19.1505 0 23.5352C0 28.3863 4.0333 32.3242 8.88672 32.3242H14.7461V41.62L10.8862 42.9066C10.0813 41.8757 8.82812 41.2109 7.42188 41.2109C4.99873 41.2109 3.02734 43.1823 3.02734 45.6055C3.02734 48.0286 4.99873 50 7.42188 50C9.81826 50 11.7715 48.0717 11.8144 45.6854L16.6741 44.0654C17.2723 43.866 17.6758 43.3063 17.6758 42.6758V32.3242H23.5352V41.4629C21.8302 42.0676 20.6055 43.6958 20.6055 45.6055C20.6055 48.0286 22.5769 50 25 50C27.4231 50 29.3945 48.0286 29.3945 45.6055C29.3945 43.6958 28.1698 42.0676 26.4648 41.4629V32.3242H32.3242V42.6758C32.3242 43.3063 32.7277 43.866 33.3259 44.0654L38.1856 45.6854C38.2285 48.0717 40.1817 50 42.5781 50C45.0013 50 46.9727 48.0286 46.9727 45.6055C46.9727 43.1823 45.0013 41.2109 42.5781 41.2109ZM7.42188 47.0703C6.61416 47.0703 5.95703 46.4132 5.95703 45.6055C5.95703 44.7978 6.61416 44.1406 7.42188 44.1406C8.22959 44.1406 8.88672 44.7978 8.88672 45.6055C8.88672 46.4132 8.22959 47.0703 7.42188 47.0703ZM25 47.0703C24.1923 47.0703 23.5352 46.4132 23.5352 45.6055C23.5352 44.7978 24.1923 44.1406 25 44.1406C25.8077 44.1406 26.4648 44.7978 26.4648 45.6055C26.4648 46.4132 25.8077 47.0703 25 47.0703ZM8.88672 29.3945C5.65771 29.3945 2.92969 26.7112 2.92969 23.5352C2.92969 18.4385 9.32451 15.6866 13.03 19.392C13.6021 19.9641 14.5295 19.9641 15.1016 19.392C15.6736 18.8199 15.6736 17.8925 15.1016 17.3204C13.7933 16.0122 12.1446 15.1695 10.3559 14.8702C10.3541 14.8286 10.3517 14.7864 10.3517 14.7462C10.3517 8.23066 15.6087 2.92979 22.0704 2.92979C26.728 2.92979 30.9697 5.8583 32.7992 10.1915C31.742 10.7396 30.7636 11.4528 29.8973 12.3191C29.3252 12.8912 29.3252 13.8187 29.8973 14.3907C30.4692 14.9628 31.3968 14.9628 31.9688 14.3907C32.8081 13.5515 33.7874 12.9037 34.8537 12.4675C35.2634 12.4102 36.3933 11.8164 38.1836 11.8164C43.0838 11.8164 47.0703 15.7592 47.0703 20.6055C47.0703 25.4518 43.0838 29.3945 38.1836 29.3945H8.88672ZM42.5781 47.0703C41.7704 47.0703 41.1133 46.4132 41.1133 45.6055C41.1133 44.7978 41.7704 44.1406 42.5781 44.1406C43.3858 44.1406 44.043 44.7978 44.043 45.6055C44.043 46.4132 43.3858 47.0703 42.5781 47.0703Z" fill="#3F79FF"/>
</svg>
