<svg width="50" height="55" viewBox="0 0 50 55" fill="none" xmlns="http://www.w3.org/2000/svg">
<path d="M0.916664 51.6184L6.42856 54.7681C6.70534 54.9215 7.01685 55.0013 7.33331 55C7.65395 55 7.96935 54.9186 8.24997 54.7635L13.75 51.6157C14.0283 51.4534 14.2593 51.2211 14.4201 50.942C14.5809 50.6628 14.6659 50.3465 14.6666 50.0243V43.4757C14.6662 43.1531 14.5813 42.8363 14.4205 42.5566C14.2597 42.277 14.0285 42.0443 13.75 41.8816L8.24997 38.7402V35.75C8.24997 35.5069 8.34655 35.2738 8.51846 35.1019C8.69037 34.93 8.92352 34.8334 9.16664 34.8334H23.8333V38.7402L18.3333 41.8844C18.055 42.0466 17.824 42.2789 17.6632 42.558C17.5024 42.8372 17.4174 43.1535 17.4166 43.4757V50.0243C17.4171 50.3469 17.5019 50.6638 17.6627 50.9434C17.8235 51.2231 18.0547 51.4558 18.3333 51.6184L23.8452 54.7681C24.122 54.9215 24.4335 55.0013 24.7499 55C25.0706 55 25.386 54.9186 25.6666 54.7635L31.1666 51.6157C31.4449 51.4534 31.6759 51.2211 31.8367 50.942C31.9975 50.6628 32.0825 50.3465 32.0832 50.0243V43.4757C32.0828 43.1531 31.9979 42.8363 31.8371 42.5566C31.6763 42.277 31.4451 42.0443 31.1666 41.8816L25.6666 38.7402V34.8334H40.3332C40.5763 34.8334 40.8095 34.93 40.9814 35.1019C41.1533 35.2738 41.2499 35.5069 41.2499 35.75V38.7402L35.7499 41.8844C35.4716 42.0466 35.2406 42.2789 35.0798 42.558C34.919 42.8372 34.834 43.1535 34.8332 43.4757V50.0243C34.8337 50.3469 34.9185 50.6638 35.0793 50.9434C35.2401 51.2231 35.4713 51.4558 35.7499 51.6184L41.2618 54.7681C41.5386 54.9215 41.8501 55.0013 42.1665 55C42.4872 55 42.8026 54.9186 43.0832 54.7635L48.5832 51.6157C48.8615 51.4534 49.0925 51.2211 49.2533 50.942C49.4141 50.6628 49.4991 50.3465 49.4998 50.0243V43.4757C49.4994 43.1531 49.4145 42.8363 49.2537 42.5566C49.0929 42.277 48.8618 42.0443 48.5832 41.8816L43.0832 38.7402V35.75C43.0832 35.0207 42.7935 34.3212 42.2777 33.8055C41.762 33.2898 41.0625 33.0001 40.3332 33.0001H25.6666V30.0108L31.1666 26.8648C31.4445 26.7026 31.6753 26.4707 31.8361 26.1919C31.9969 25.9131 32.0821 25.5972 32.0832 25.2753V24.7501H37.5832C39.6988 24.7516 41.7341 23.9403 43.2685 22.484C44.803 21.0276 45.7193 19.0374 45.8282 16.9246C45.937 14.8119 45.2301 12.738 43.8534 11.1316C42.4768 9.52527 40.5356 8.50914 38.4311 8.29322C38.2215 7.00324 37.5603 5.82975 36.5654 4.9823C35.5705 4.13484 34.3068 3.6686 32.9999 3.66682C32.1846 3.66594 31.3795 3.84826 30.6441 4.20031C29.3764 2.5872 27.6825 1.36105 25.7542 0.660565C23.8258 -0.0399157 21.7399 -0.186766 19.7325 0.236627C17.725 0.66002 15.8761 1.63676 14.3949 3.05634C12.9137 4.47593 11.8593 6.2817 11.351 8.26938C9.2166 8.41545 7.22236 9.38498 5.78914 10.9734C4.35591 12.5618 3.5958 14.6449 3.66917 16.7831C3.74255 18.9212 4.64369 20.9473 6.18243 22.4337C7.72118 23.9202 9.77719 24.7507 11.9166 24.7501H17.4166V25.2753C17.4174 25.5978 17.5024 25.9145 17.6632 26.1941C17.824 26.4737 18.0549 26.7065 18.3333 26.8694L23.8333 30.0108V33.0001H9.16664C8.43729 33.0001 7.73782 33.2898 7.2221 33.8055C6.70638 34.3212 6.41665 35.0207 6.41665 35.75V38.7402L0.916664 41.8844C0.638365 42.0466 0.407349 42.2789 0.246547 42.558C0.0857451 42.8372 0.00075026 43.1535 0 43.4757V50.0243C0.000454092 50.3469 0.0852989 50.6638 0.246106 50.9434C0.406914 51.2231 0.638088 51.4558 0.916664 51.6184ZM24.7499 45.5583L20.1721 42.9468L24.7499 40.3334L29.3241 42.9486L24.7499 45.5583ZM19.2499 44.5289L23.8333 47.146V52.646L19.2499 50.0225V44.5289ZM25.6666 52.6469V47.1469L30.2499 44.5308V50.0307L25.6666 52.6469ZM42.1665 45.5583L37.5887 42.9468L42.1665 40.3334L46.7407 42.9486L42.1665 45.5583ZM36.6665 44.5289L41.2499 47.146V52.646L36.6665 50.0225V44.5289ZM43.0832 52.6469V47.1469L47.6665 44.5308V50.0307L43.0832 52.6469ZM24.7499 20.8084L20.1666 18.1968L24.7499 15.5834L29.3332 18.195L24.7499 20.8084ZM25.6666 27.897V22.397L30.2499 19.7808V25.2808L25.6666 27.897ZM11.9166 22.9168C10.2148 22.9129 8.58427 22.2331 7.38367 21.027C6.18307 19.8209 5.51076 18.1872 5.51465 16.4854C5.51854 14.7836 6.19831 13.1531 7.40441 11.9525C8.61052 10.7519 10.2442 10.0796 11.946 10.0835C11.9849 10.083 12.0238 10.0851 12.0624 10.0899C12.0726 10.0883 12.0827 10.0861 12.0926 10.0835C13.1201 10.111 14.126 10.3845 15.026 10.881C15.1614 10.957 15.3143 10.9968 15.4696 10.9965C15.6727 10.9965 15.87 10.9291 16.0306 10.8048C16.1912 10.6805 16.306 10.5065 16.357 10.3099C16.408 10.1133 16.3922 9.90542 16.3123 9.71877C16.2323 9.53212 16.0926 9.37731 15.9151 9.27863C15.0814 8.82035 14.1745 8.5102 13.2348 8.36197C13.7119 6.76285 14.6177 5.32487 15.854 4.20397C17.0903 3.08307 18.6099 2.32203 20.248 2.00336C21.886 1.6847 23.5801 1.82059 25.1464 2.39628C26.7128 2.97198 28.0916 3.96551 29.1334 5.26914C28.638 5.75577 28.2393 6.33181 27.9582 6.9668C27.8611 7.18951 27.8564 7.44167 27.9451 7.66786C28.0338 7.89406 28.2086 8.0758 28.4312 8.17313C28.5466 8.22447 28.6716 8.25072 28.7979 8.25013C28.9763 8.25022 29.1509 8.19823 29.3002 8.10053C29.4496 8.00283 29.5671 7.86368 29.6385 7.70014C29.9084 7.08415 30.3417 6.5538 30.8916 6.16656C30.8916 6.16656 30.9035 6.16656 30.909 6.15922C31.398 5.81725 31.9634 5.60039 32.5556 5.52761C33.1479 5.45483 33.749 5.52836 34.3062 5.74176C34.8635 5.95516 35.3599 6.30193 35.7521 6.75169C36.1442 7.20146 36.4201 7.74051 36.5556 8.32163C35.044 8.5103 33.6139 9.11304 32.4233 10.0633C32.2337 10.2155 32.1123 10.4368 32.0858 10.6785C32.0727 10.7982 32.0833 10.9192 32.117 11.0348C32.1507 11.1504 32.2068 11.2582 32.2821 11.3521C32.3575 11.446 32.4506 11.5242 32.5562 11.5821C32.6617 11.64 32.7776 11.6765 32.8973 11.6896C33.139 11.7161 33.3813 11.6455 33.571 11.4933C34.7064 10.5758 36.1234 10.0779 37.5832 10.0835C39.285 10.0835 40.9171 10.7595 42.1205 11.9629C43.3238 13.1662 43.9999 14.7983 43.9999 16.5001C43.9999 18.2019 43.3238 19.834 42.1205 21.0374C40.9171 22.2407 39.285 22.9168 37.5832 22.9168H32.0832V18.7258C32.0824 18.4033 31.9974 18.0865 31.8366 17.807C31.6759 17.5274 31.4449 17.2946 31.1666 17.1317L25.6528 13.9802C25.3733 13.8284 25.0601 13.7495 24.742 13.751C24.4239 13.7524 24.1114 13.8341 23.8333 13.9884L18.3333 17.1363C18.0553 17.2985 17.8245 17.5304 17.6637 17.8092C17.503 18.088 17.4178 18.4039 17.4166 18.7258V22.9168H11.9166ZM19.2499 19.7781L23.8333 22.3952V27.8952L19.2499 25.2717V19.7781ZM7.33331 45.5583L2.75549 42.9449L7.33331 40.3334L11.9075 42.9486L7.33331 45.5583ZM1.83333 44.5271L6.41665 47.1442V52.6442L1.83333 50.0243V44.5271ZM8.24997 52.6451V47.1451L12.8333 44.5289V50.0289L8.24997 52.6451Z" fill="#2770F1"/>
</svg>
