<svg width="44" height="50" viewBox="0 0 44 50" fill="none" xmlns="http://www.w3.org/2000/svg">
<path d="M13.3521 14.282C6.30098 14.282 0.564453 20.0186 0.564453 27.0697C0.564453 32.3442 3.77432 36.8825 8.34307 38.8351V44.9909C8.34307 47.753 10.5901 50 13.3521 50C16.1141 50 18.3611 47.753 18.3611 44.9909V38.8351C22.9299 36.8825 26.1397 32.3442 26.1397 27.0697C26.1397 20.0186 20.4032 14.282 13.3521 14.282ZM18.2951 19.5945V23.3319C18.2951 23.9139 17.8216 24.3873 17.2396 24.3873C16.6577 24.3873 16.1842 23.9138 16.1842 23.3319V19.5945C16.1842 19.0125 16.6577 18.5391 17.2396 18.5391C17.8216 18.5391 18.2951 19.0125 18.2951 19.5945ZM15.432 44.9909C15.432 46.1378 14.4989 47.0709 13.3521 47.0709C12.2052 47.0709 11.2722 46.1378 11.2722 44.9909V39.6874C11.9493 39.7987 12.6439 39.8574 13.3521 39.8574C14.0603 39.8574 14.7549 39.7987 15.432 39.6873V44.9909ZM13.3521 36.9284C7.91602 36.9284 3.49356 32.5059 3.49356 27.0698C3.49356 21.6338 7.91611 17.2112 13.3521 17.2112C13.5804 17.2112 13.8068 17.2197 14.0313 17.2351C13.5439 17.8961 13.2551 18.7121 13.2551 19.5946V23.332C13.2551 25.529 15.0426 27.3165 17.2396 27.3165C19.4368 27.3165 21.2242 25.529 21.2242 23.332V21.1421C22.4705 22.7931 23.2106 24.8466 23.2106 27.0698C23.2106 32.5058 18.7881 36.9284 13.3521 36.9284Z" fill="#3F79FF"/>
<path d="M22.8457 2.9291H24.0879V11.401H27.0171V0H22.8457V2.9291Z" fill="#3F79FF"/>
<path d="M17.2395 11.807C19.4366 11.807 21.224 10.0195 21.224 7.82238V4.08507C21.224 1.8879 19.4365 0.100403 17.2395 0.100403C15.0424 0.100403 13.2549 1.8879 13.2549 4.08507V7.82238C13.2549 10.0195 15.0424 11.807 17.2395 11.807ZM16.184 4.08507C16.184 3.50304 16.6575 3.0295 17.2395 3.0295C17.8214 3.0295 18.2949 3.50304 18.2949 4.08507V7.82238C18.2949 8.40441 17.8214 8.87794 17.2395 8.87794C16.6575 8.87794 16.184 8.40441 16.184 7.82238V4.08507Z" fill="#3F79FF"/>
<path d="M33.4699 0.100494C31.2729 0.100494 29.4854 1.88799 29.4854 4.08516V7.82247C29.4854 10.0196 31.2729 11.8071 33.4699 11.8071C35.6671 11.8071 37.4545 10.0196 37.4545 7.82247V4.08516C37.4545 1.88799 35.667 0.100494 33.4699 0.100494ZM34.5254 7.82237C34.5254 8.4044 34.0519 8.87794 33.4699 8.87794C32.888 8.87794 32.4145 8.4044 32.4145 7.82237V4.08507C32.4145 3.50303 32.888 3.0295 33.4699 3.0295C34.0519 3.0295 34.5254 3.50303 34.5254 4.08507V7.82237Z" fill="#3F79FF"/>
<path d="M39.2646 0V2.9291H40.5067V11.401H43.4358V0H39.2646Z" fill="#3F79FF"/>
<path d="M39.2646 18.5887H40.5067V27.0606H43.4358V15.6596H39.2646V18.5887Z" fill="#3F79FF"/>
<path d="M32.298 15.61C30.101 15.61 28.3135 17.3975 28.3135 19.5945V23.3318C28.3135 25.5289 30.101 27.3164 32.298 27.3164C34.4951 27.3164 36.2826 25.5289 36.2826 23.3318V19.5945C36.2827 17.3975 34.4952 15.61 32.298 15.61ZM33.3536 23.3318C33.3536 23.9139 32.8801 24.3873 32.2981 24.3873C31.7162 24.3873 31.2427 23.9138 31.2427 23.3318V19.5945C31.2427 19.0125 31.7162 18.5391 32.2981 18.5391C32.8801 18.5391 33.3536 19.0126 33.3536 19.5945V23.3318Z" fill="#3F79FF"/>
</svg>
