<svg width="55" height="55" viewBox="0 0 55 55" fill="none" xmlns="http://www.w3.org/2000/svg">
<path d="M49.3442 12.8919C51.362 10.9655 51.9036 7.95649 50.6843 5.44782C49.4651 2.93916 46.7643 1.50538 44.0027 1.90141C41.241 2.297 39.0514 4.43156 38.5864 7.18142C38.1209 9.93174 39.4865 12.6673 41.9639 13.9494C40.9349 14.8108 40.3383 16.0826 40.3333 17.4246V24.7564H37.5833V17.4246C37.5784 14.1785 35.1511 11.4465 31.9276 11.059C33.8263 9.2493 34.4318 6.46632 33.457 4.0315C32.4821 1.59622 30.1233 0 27.5 0C24.8767 0 22.5179 1.59622 21.543 4.0315C20.5682 6.46632 21.1737 9.2493 23.0724 11.059C19.8489 11.4465 17.4216 14.1785 17.4167 17.4246V24.7564H14.6667V17.4246C14.6617 16.0826 14.0651 14.8108 13.0361 13.9494C15.5135 12.6673 16.8791 9.93174 16.4136 7.18142C15.9481 4.43156 13.759 2.297 10.9973 1.90141C8.23568 1.50538 5.53491 2.93916 4.31567 5.44782C3.09644 7.95649 3.63802 10.9655 5.65576 12.8919C2.43221 13.2795 0.00492351 16.0114 0 19.2576V33.0047C0.00358073 35.4793 1.43005 37.7316 3.66667 38.7921V55H5.5V39.3466C5.80078 39.3895 11.9167 39.42 11.9167 39.42C12.4229 39.42 12.8333 39.8303 12.8333 40.3364V55H20.1667V37.587H26.5833V53.1671H22.9167V55H32.0833V53.1671H28.4167V37.587H34.8333V55H42.1667V40.3364C42.1667 39.8303 42.5771 39.42 43.0833 39.42C43.0833 39.42 49.1992 39.3895 49.5 39.3466V55H51.3333V38.7921C53.5699 37.7316 54.9964 35.4793 55 33.0047V19.2576C54.9951 16.0114 52.5678 13.2795 49.3442 12.8919V12.8919ZM40.3333 8.25989C40.3333 5.7293 42.3855 3.67753 44.9167 3.67753C47.4478 3.67753 49.5 5.7293 49.5 8.25989C49.5 10.7905 47.4478 12.8423 44.9167 12.8423C42.3864 12.8391 40.3365 10.7896 40.3333 8.25989ZM29.4542 12.8423L27.5 15.7751L25.5458 12.8423H29.4542ZM22.9167 6.42694C22.9167 3.89635 24.9689 1.84458 27.5 1.84458C30.0311 1.84458 32.0833 3.89635 32.0833 6.42694C32.0833 8.95754 30.0311 11.0093 27.5 11.0093C24.9698 11.0062 22.9198 8.95664 22.9167 6.42694ZM19.25 17.4246C19.2576 15.0784 21.0399 13.1188 23.375 12.8888L27.5 19.0741L31.625 12.8861C33.9614 13.1161 35.7437 15.0775 35.75 17.4246V24.7564H32.0833V30.2552H22.9167V24.7564H19.25V17.4246ZM5.5 8.25989C5.5 5.7293 7.55221 3.67753 10.0833 3.67753C12.6145 3.67753 14.6667 5.7293 14.6667 8.25989C14.6667 10.7905 12.6145 12.8423 10.0833 12.8423C7.5531 12.8391 5.50313 10.7896 5.5 8.25989ZM18.3333 53.1671H14.6667V40.3364C14.6667 38.8181 13.4353 37.587 11.9167 37.587H6.41667C3.88643 37.5839 1.83647 35.5344 1.83333 33.0047V19.2576C1.83647 16.7279 3.88643 14.6783 6.41667 14.6752H10.0833C11.602 14.6752 12.8333 15.9063 12.8333 17.4246V26.5893H21.0833V30.2552H10.0833C9.57711 30.2552 9.16667 29.8449 9.16667 29.3388V18.3411H7.33333V29.3388C7.33333 30.8571 8.56466 32.0882 10.0833 32.0882H13.75C16.2802 32.0913 18.3302 34.1408 18.3333 36.6705V53.1671ZM20.0933 35.7541C19.8927 34.3606 19.2384 33.0722 18.2317 32.0882H36.7683C35.7616 33.0722 35.1073 34.3606 34.9067 35.7541H20.0933ZM53.1667 33.0047C53.1635 35.5344 51.1136 37.5839 48.5833 37.587H43.0833C41.5647 37.587 40.3333 38.8181 40.3333 40.3364V53.1671H36.6667V36.6705C36.6698 34.1408 38.7198 32.0913 41.25 32.0882H44.9167C46.4353 32.0882 47.6667 30.8571 47.6667 29.3388V18.3411H45.8333V29.3388C45.8333 29.8449 45.4229 30.2552 44.9167 30.2552H33.9167V26.5893H42.1667V17.4246C42.1667 15.9063 43.398 14.6752 44.9167 14.6752H48.5833C51.1136 14.6783 53.1635 16.7279 53.1667 19.2576V33.0047Z" fill="#2770F1"/>
</svg>
