<svg width="50" height="50" viewBox="0 0 50 50" fill="none" xmlns="http://www.w3.org/2000/svg">
<path d="M46.2807 19.5058C46.8195 21.5991 47.0705 23.345 47.0705 25C47.0705 37.1696 37.1698 47.0703 25.0002 47.0703C17.9745 47.0703 11.3749 43.7211 7.21494 38.1836H10.3518V35.2539H3.34873L1.60645 42.2229L4.44863 42.9334L5.11787 40.2565C9.71602 46.1527 17.0045 50 25.0002 50C38.7657 50 50.0002 38.7647 50.0002 25C50.0002 23.0918 49.7198 21.114 49.1179 18.7755L46.2807 19.5058Z" fill="#3F79FF"/>
<path d="M0 25C0 26.9081 0.280371 28.8859 0.882324 31.2245L3.71953 30.4942C3.18066 28.4008 2.92969 26.655 2.92969 25C2.92969 12.8304 12.8304 2.92969 25 2.92969C32.0257 2.92969 38.6253 6.27891 42.7853 11.8164H39.6484V14.7461H46.6516L48.3937 7.77715L45.5516 7.0666L44.8823 9.74346C40.2833 3.84619 32.9944 0 25 0C11.2343 0 0 11.2354 0 25H0Z" fill="#3F79FF"/>
<path d="M36.7575 13.1205L33.5503 14.9858C32.3459 13.9664 30.9371 13.1621 29.3949 12.614V8.88672H20.6059V12.614C19.0637 13.1621 17.655 13.9663 16.4505 14.9858L13.2434 13.1205L8.85068 20.7638L12.0738 22.6195C11.9295 23.3283 11.8168 24.1369 11.8168 25C11.8168 25.863 11.9295 26.6716 12.0737 27.3805L8.85059 29.2363L13.2433 36.8796L16.4505 35.0142C17.6549 36.0335 19.0636 36.8377 20.6059 37.3859V41.1133H29.3949V37.386C30.9372 36.8378 32.346 36.0336 33.5503 35.0143L36.7575 36.8797L41.1502 29.2364L37.9269 27.3806C38.0713 26.6715 38.184 25.8627 38.184 25C38.184 24.1371 38.0713 23.3284 37.927 22.6195L41.1502 20.7638L36.7575 13.1205ZM35.2543 25C35.2543 26.4358 34.8188 27.7395 34.5476 28.8152L37.1515 30.3146L35.6848 32.8665L33.1015 31.364L32.3039 32.1775C29.9024 34.627 27.003 34.9816 26.4652 35.1842V38.1836H23.5355V35.1842C23.0015 34.9831 20.0953 34.624 17.6969 32.1775L16.8993 31.364L14.316 32.8665L12.8493 30.3146L15.4534 28.8151C15.1792 27.7286 14.7465 26.4352 14.7465 25C14.7465 23.564 15.1812 22.2633 15.4534 21.1849L12.8493 19.6855L14.316 17.1336L16.8993 18.636L17.6969 17.8225C20.0986 15.3727 22.9977 15.0186 23.5355 14.816V11.8164H26.4652V14.8159C27.0203 15.0249 29.9051 15.3756 32.3039 17.8224L33.1015 18.6359L35.6848 17.1335L37.1515 19.6854L34.5476 21.1848C34.8218 22.272 35.2543 23.5651 35.2543 25Z" fill="#3F79FF"/>
<path d="M25 17.6758C20.9614 17.6758 17.6758 20.9614 17.6758 25C17.6758 29.0386 20.9614 32.3242 25 32.3242C29.0386 32.3242 32.3242 29.0386 32.3242 25C32.3242 20.9614 29.0386 17.6758 25 17.6758ZM25 29.3945C22.5769 29.3945 20.6055 27.4231 20.6055 25C20.6055 22.5769 22.5769 20.6055 25 20.6055C27.4231 20.6055 29.3945 22.5769 29.3945 25C29.3945 27.4231 27.4231 29.3945 25 29.3945Z" fill="#3F79FF"/>
</svg>
