<svg width="45" height="45" viewBox="0 0 45 45" fill="none" xmlns="http://www.w3.org/2000/svg">
<path fill-rule="evenodd" clip-rule="evenodd" d="M45 22.5L22.5 0L17.0736 5.42641L32.1428 20.4957C32.5195 20.254 32.9676 20.1139 33.4483 20.1139C34.7854 20.1139 35.8694 21.1979 35.8694 22.535C35.8694 23.8721 34.7854 24.9561 33.4483 24.9561C32.1112 24.9561 31.0272 23.8721 31.0272 22.535C31.0272 22.0541 31.1674 21.6061 31.4091 21.2293L16.3399 6.16011L5.91933 16.5807L21.0751 31.7364C21.4518 31.4948 21.8998 31.3546 22.3806 31.3546C23.7177 31.3546 24.8017 32.4386 24.8017 33.7757C24.8017 35.1128 23.7177 36.1968 22.3806 36.1968C21.0435 36.1968 19.9595 35.1128 19.9595 33.7757C19.9595 33.2949 20.0997 32.8468 20.3414 32.4701L5.18563 17.3144L0 22.5L22.5 45L45 22.5ZM16.9185 14.6517C15.5814 14.6517 14.4974 15.7356 14.4974 17.0728C14.4974 18.4099 15.5814 19.4938 16.9185 19.4938C17.3993 19.4938 17.8473 19.3537 18.224 19.112L33.0521 33.9401L33.7858 33.2064L18.9577 18.3783C19.1994 18.0016 19.3396 17.5536 19.3396 17.0728C19.3396 15.7356 18.2556 14.6517 16.9185 14.6517ZM15.8751 17.0727C15.8751 16.4965 16.3422 16.0294 16.9184 16.0294C17.4946 16.0294 17.9617 16.4965 17.9617 17.0727C17.9617 17.6489 17.4946 18.116 16.9184 18.116C16.3422 18.116 15.8751 17.6489 15.8751 17.0727ZM33.4483 23.5783C34.0245 23.5783 34.4916 23.1112 34.4916 22.535C34.4916 21.9589 34.0245 21.4918 33.4483 21.4918C32.8721 21.4918 32.4051 21.9589 32.4051 22.535C32.4051 23.1112 32.8721 23.5783 33.4483 23.5783ZM22.3808 34.819C22.957 34.819 23.4241 34.3519 23.4241 33.7757C23.4241 33.1996 22.957 32.7325 22.3808 32.7325C21.8047 32.7325 21.3376 33.1996 21.3376 33.7757C21.3376 34.3519 21.8047 34.819 22.3808 34.819Z" fill="#3F79FF"/>
</svg>
