<svg width="50" height="50" viewBox="0 0 50 50" fill="none" xmlns="http://www.w3.org/2000/svg">
<g clip-path="url(#clip0_131_1282)">
<path d="M38.3776 50V29.3462H29.7555V31.8098C29.7555 32.7498 28.9907 33.5146 28.0507 33.5146C27.1107 33.5146 26.346 32.7498 26.346 31.8098V29.3462H20.6538V26.5841H21.2441C23.7997 26.5841 25.8787 24.5049 25.8787 21.9493C25.8787 19.3937 23.7997 17.3146 21.2441 17.3146H20.6538V11.6225H0V50H38.3776ZM2.92992 14.5524H17.7238V20.2445H21.244C22.184 20.2445 22.9487 21.0093 22.9487 21.9493C22.9487 22.8893 22.184 23.6541 21.244 23.6541H17.7238V29.3462H14.9616V28.756C14.9616 26.2004 12.8825 24.1213 10.3269 24.1213C7.77132 24.1213 5.69215 26.2004 5.69215 28.756V29.3462H2.92992V14.5524ZM2.92992 47.0701V32.2761H8.62198V28.756C8.62198 27.816 9.38679 27.0512 10.3268 27.0512C11.2668 27.0512 12.0316 27.816 12.0316 28.756V32.2761H17.7237V35.0384H17.1335C14.5779 35.0384 12.4988 37.1175 12.4988 39.6731C12.4988 42.2287 14.5779 44.3078 17.1335 44.3078H17.7237V47.07H2.92992V47.0701ZM32.6621 32.2761H35.4476V47.0701H20.6537V41.3779H17.1336C16.1936 41.3779 15.4288 40.6131 15.4288 39.6731C15.4288 38.7331 16.1936 37.9684 17.1336 37.9684H20.6537V32.2762H23.4392C23.6738 34.6137 25.6523 36.4446 28.0506 36.4446C30.4488 36.4446 32.4275 34.6136 32.6621 32.2761Z" fill="#3F79FF"/>
<path d="M29.3467 0V8.62208H31.8103C32.7503 8.62208 33.5151 9.38688 33.5151 10.3269C33.5151 11.2669 32.7503 12.0316 31.8103 12.0316H29.3467V20.6537H35.0387V21.2439C35.0387 23.7995 37.1179 25.8786 39.6735 25.8786C42.2291 25.8786 44.3082 23.7995 44.3082 21.2439V20.6537H50.0003V0L29.3467 0ZM47.0704 17.7239H41.3783V21.244C41.3783 22.184 40.6135 22.9488 39.6735 22.9488C38.7335 22.9488 37.9687 22.184 37.9687 21.244V17.7239H32.2766V14.9384C34.6141 14.7038 36.445 12.7251 36.445 10.3269C36.445 7.92866 34.6141 5.95018 32.2766 5.7155V2.92992H47.0705V17.7239H47.0704Z" fill="#3F79FF"/>
</g>
<defs>
<clipPath id="clip0_131_1282">
<rect width="50" height="50" fill="white"/>
</clipPath>
</defs>
</svg>
