<svg width="130" height="65" viewBox="0 0 130 65" fill="none" xmlns="http://www.w3.org/2000/svg">
<path d="M0 44.0812H23.0819V44.0773L11.5439 32.538L0 44.0812Z" fill="#A8ACB4"/>
<path d="M23.082 21L0.000142042 21L0.000142042 21.0039L11.5382 32.5432L23.082 21Z" fill="#A8ACB4" fill-opacity="0.65"/>
<path d="M0.00244141 21V44.0806L11.5437 32.538L0.00244141 21Z" fill="#A8ACB4" fill-opacity="0.85"/>
<path d="M32.1238 32.4194L38.5452 39.1443V39.2957H35.4388L29.8573 33.3898V39.2957H27.3398V25.9616H29.8541V31.5997L34.924 25.9616H38.0479V26.0344L32.1238 32.4194Z" fill="#A8ACB4"/>
<path d="M45.2152 34.898C45.2152 33.7202 44.4111 32.4515 43.1261 32.4515C41.841 32.4515 41.0552 33.7222 41.0552 34.898C41.0552 36.0739 41.8423 37.368 43.1287 37.368C44.415 37.368 45.2178 36.081 45.2178 34.898H45.2152ZM47.4336 39.2934H44.9636V38.4886H44.9285C44.6392 38.8367 44.2755 39.1154 43.8643 39.3044C43.453 39.4934 43.0047 39.5878 42.5521 39.5807C39.9807 39.5807 38.5137 37.2407 38.5137 34.8636C38.5137 32.5399 39.9983 30.2349 42.5164 30.2349C42.9795 30.2338 43.4376 30.3318 43.8597 30.5224C44.2818 30.713 44.6582 30.9917 44.9636 31.3399V30.5177H47.4336V39.2934Z" fill="#A8ACB4"/>
<path d="M56.0791 34.8981C56.0791 33.7203 55.2933 32.4515 54.0063 32.4515C52.7193 32.4515 51.934 33.7203 51.934 34.8981C51.934 36.0759 52.7212 37.368 54.0063 37.368C55.2913 37.368 56.0791 36.0811 56.0791 34.8981ZM52.1843 31.3231C52.4884 30.9791 52.8624 30.7039 53.2812 30.5158C53.7001 30.3278 54.1542 30.2311 54.6133 30.2324C57.0976 30.2324 58.6167 32.5568 58.6167 34.8617C58.6167 37.2543 57.1516 39.5794 54.5594 39.5794C54.1101 39.5882 53.6649 39.4925 53.2588 39.3C52.8528 39.1075 52.4969 38.8233 52.2194 38.4698H52.1843V43.9727H49.6831V30.5177H52.1843V31.3231Z" fill="#A8ACB4"/>
<path d="M62.8486 39.2945H60.3468V30.5195H62.8486V39.2945ZM63.0813 26.8424C63.0812 27.1357 62.9941 27.4224 62.8311 27.6662C62.6681 27.91 62.4365 28.1 62.1655 28.2122C61.8945 28.3245 61.5964 28.3538 61.3087 28.2966C61.0211 28.2394 60.7569 28.0982 60.5494 27.8909C60.342 27.6835 60.2007 27.4193 60.1434 27.1317C60.086 26.8441 60.1153 26.5459 60.2273 26.2749C60.3394 26.0039 60.5293 25.7721 60.7731 25.609C61.0168 25.4459 61.3035 25.3588 61.5968 25.3585C61.7918 25.3579 61.9851 25.3959 62.1654 25.4702C62.3458 25.5446 62.5097 25.6538 62.6476 25.7917C62.7856 25.9296 62.8949 26.0935 62.9694 26.2738C63.0438 26.4541 63.0819 26.6473 63.0813 26.8424Z" fill="#A8ACB4"/>
<path d="M67.9943 39.2952H65.4964V32.6321H64.6377V30.5222H65.4964V27.5582H67.9963V30.5222H69.5342V32.6321H67.9963L67.9943 39.2952Z" fill="#A8ACB4"/>
<path d="M76.6064 34.898C76.6064 33.7202 75.8024 32.4515 74.5167 32.4515C73.231 32.4515 72.4432 33.7202 72.4432 34.898C72.4432 36.0758 73.2297 37.368 74.5167 37.368C75.8037 37.368 76.6064 36.081 76.6064 34.898ZM78.8229 39.2934H76.3529V38.4886H76.3185C76.0292 38.8366 75.6657 39.1153 75.2545 39.3043C74.8434 39.4932 74.3952 39.5877 73.9427 39.5807C71.37 39.5807 69.9043 37.2407 69.9043 34.8636C69.9043 32.5399 71.3889 30.2349 73.907 30.2349C74.37 30.2338 74.8278 30.3318 75.2497 30.5224C75.6716 30.713 76.0478 30.9918 76.3529 31.3399V30.5177H78.8229V39.2934Z" fill="#A8ACB4"/>
<path d="M83.5741 24.1461H81.0723V39.295H83.5741V24.1461Z" fill="#A8ACB4"/>
<path d="M106.744 34.898C106.744 33.7202 105.939 32.4515 104.654 32.4515C103.369 32.4515 102.582 33.7202 102.582 34.898C102.582 36.0758 103.368 37.368 104.654 37.368C105.941 37.368 106.744 36.081 106.744 34.898ZM108.959 39.2934H106.494V38.4886H106.459C106.169 38.8364 105.806 39.115 105.394 39.3039C104.983 39.4929 104.535 39.5874 104.082 39.5807C101.508 39.5807 100.044 37.2407 100.044 34.8636C100.044 32.5399 101.528 30.2349 104.046 30.2349C104.509 30.2337 104.967 30.3316 105.39 30.5222C105.812 30.7128 106.188 30.9917 106.494 31.3399V30.5177H108.959V39.2934Z" fill="#A8ACB4"/>
<path d="M113.711 31.327H113.748C114.005 30.9666 114.35 30.6775 114.75 30.4867C115.15 30.296 115.591 30.2098 116.034 30.2363C118.393 30.2363 119.071 31.9003 119.071 33.9361V39.2947H116.569V34.6492C116.569 33.5955 116.623 32.2396 115.213 32.2396C113.73 32.2396 113.711 33.9004 113.711 34.9553V39.2947H111.21V30.5197H113.711V31.327Z" fill="#A8ACB4"/>
<path d="M123.804 33.7388H123.839L126.466 30.5226H129.716L126.015 34.3829L130 39.2937H126.713L123.836 35.5621H123.804V39.2937H121.301V24.1448H123.804V33.7388Z" fill="#A8ACB4"/>
<path d="M91.9522 37.1872H93.5954C95.0072 37.1872 96.2233 37.0071 96.2233 35.2567C96.2233 33.5062 94.7933 33.4367 93.4706 33.4367H91.9522V37.1872ZM91.9522 31.4334H93.3646C94.6503 31.4334 95.275 31.0596 95.275 29.6634C95.275 28.29 94.4885 27.9318 93.3809 27.9318H91.9509L91.9522 31.4334ZM89.3262 25.8226H93.6857C96.185 25.8226 97.7229 26.8067 97.7229 29.4873C97.7518 29.9851 97.6597 30.4825 97.4543 30.9369C97.249 31.3913 96.9365 31.7892 96.5438 32.0964C98.1343 32.3811 98.8467 33.9879 98.8467 35.4725C98.8467 38.1161 96.9903 39.2951 94.5424 39.2951H89.3262V25.8226Z" fill="#A8ACB4"/>
</svg>
