<svg width="50" height="50" viewBox="0 0 50 50" fill="none" xmlns="http://www.w3.org/2000/svg">
<path d="M49.0925 41.4177C48.4168 40.4427 47.478 39.8205 46.4188 39.6193C46.9066 38.3215 47.4912 36.2647 45.8119 34.5856C44.9982 33.7719 44.096 33.4906 43.2343 33.4714C45.2136 25.8188 39.6855 21.5118 39.2783 12.6528C38.9084 4.60381 32.9872 0 25 0C17.0158 0 11.0917 4.60107 10.7217 12.6527C10.315 21.5001 4.78817 25.8256 6.76571 33.4713C5.90399 33.4905 5.00175 33.7719 4.18807 34.5854C2.50868 36.2646 3.09335 38.3214 3.58124 39.6192C2.52216 39.8204 1.58329 40.4426 0.907507 41.4176C-0.0810668 42.8441 -0.282922 44.7395 0.405261 46.134C0.983191 47.3054 2.1202 48.0159 3.52469 48.0835C5.82909 48.1943 7.69706 48.7325 9.34511 49.2073C10.7356 49.608 12.0892 49.9979 13.4209 49.9979C14.6463 49.9979 15.8531 49.6677 17.053 48.7117C19.2119 49.5359 22.0426 50 25 50C27.9574 50 30.7881 49.5359 32.947 48.7117C34.1469 49.6678 35.3536 49.998 36.5791 49.9979C37.9106 49.9979 39.2644 49.6079 40.6549 49.2073C42.3029 48.7325 44.1708 48.1943 46.4753 48.0835C47.8798 48.0159 49.0167 47.3054 49.5947 46.134C50.2829 44.7395 50.081 42.8441 49.0925 41.4177ZM13.6485 12.7872C13.9479 6.26582 18.6516 2.92969 25 2.92969C31.329 2.92969 36.051 6.24248 36.3516 12.7872C36.7856 22.2311 42.1202 26.3632 40.3734 32.8383C39.5407 31.2889 37.713 30.3406 35.9313 30.4022C35.279 26.5171 32.9101 25.2771 32.6603 21.6093C32.9644 21.3783 33.2986 21.1338 33.6592 20.8789C35.5317 19.5549 35.2081 16.7345 33.1866 15.8235C34.7302 11.9404 32.5682 7.22881 29.0003 7.22881C27.2871 7.22881 25.8165 8.33359 25 10.0214C24.1836 8.33359 22.7129 7.22881 20.9997 7.22881C17.4047 7.22881 15.2808 11.9678 16.8134 15.8234C14.7932 16.7338 14.4669 19.5538 16.3407 20.8787C16.7014 21.1337 17.0355 21.3782 17.3396 21.6092C17.0899 25.2767 14.721 26.5174 14.0686 30.4021C12.2874 30.3405 10.4595 31.2885 9.62655 32.8382C7.87958 26.3622 13.2143 22.2323 13.6485 12.7872ZM25 17.6011C27.324 17.6011 29.7383 17.9365 31.9664 18.4875C27.112 21.9206 27.6159 23.5352 25 23.5352C22.3856 23.5352 22.8885 21.9205 18.0336 18.4876C20.2414 17.9415 22.6653 17.6011 25 17.6011ZM19.2436 13.1429C19.2436 11.4348 20.1708 10.1585 20.9997 10.1585C21.8286 10.1585 22.7557 11.4348 22.7557 13.1429C22.7557 13.7345 22.6479 14.2984 22.4465 14.7848C21.5693 14.8614 20.5193 15.0027 19.7229 15.141C19.4169 14.5931 19.2436 13.8888 19.2436 13.1429ZM27.2443 13.1429C27.2443 11.4348 28.1714 10.1585 29.0003 10.1585C29.8292 10.1585 30.7563 11.4348 30.7563 13.1429C30.7563 13.8889 30.5831 14.5932 30.277 15.141C29.4836 15.0034 28.4387 14.8621 27.5535 14.7848C27.3519 14.2984 27.2443 13.7345 27.2443 13.1429ZM15.6465 46.0437C14.2203 47.4694 13.1221 47.2466 10.1561 46.3922C8.44325 45.8987 6.31151 45.2846 3.66532 45.1572C3.1787 45.1338 3.07997 44.9338 3.03261 44.8377C2.66884 44.1005 3.26454 42.3629 4.47977 42.485C6.20458 42.6571 7.50712 41.6116 6.45624 38.9319C5.54999 36.6201 6.00829 35.8636 8.53446 36.8539C11.2583 37.9218 12.2546 36.5474 12.0878 34.8776C11.9649 33.648 13.8027 32.9883 14.5551 33.5024C14.6463 33.5803 14.7443 33.7315 14.7602 34.0633C15.0811 40.7326 18.2391 43.4511 15.6465 46.0437ZM32.3132 33.9223C32.0474 39.4441 29.2209 42.7383 30.9509 46.2963C29.2663 46.7944 27.1894 47.0703 25 47.0703C22.8105 47.0703 20.7337 46.7944 19.0491 46.2963C20.7785 42.7395 17.9524 39.4388 17.6868 33.9223C17.6451 33.0542 17.357 32.2888 16.8669 31.6939C17.0756 28.4762 19.0152 27.2294 19.902 23.9783C21.0816 25.2322 22.3632 26.4648 25 26.4648C27.6368 26.4648 28.9183 25.2322 30.0979 23.9783C30.9828 27.222 32.9247 28.481 33.1331 31.6939C32.643 32.2888 32.3549 33.0542 32.3132 33.9223ZM46.9673 44.8377C46.9199 44.9338 46.8212 45.1338 46.3346 45.1572C43.6884 45.2846 41.5567 45.8987 39.8437 46.3922C36.8778 47.2466 35.7795 47.4695 34.3533 46.0434C31.7585 43.4488 34.9183 40.7395 35.2395 34.0631C35.2632 33.5729 35.4631 33.3254 36.0929 33.3254C36.9224 33.3254 38.0087 33.9104 37.912 34.8774C37.7386 36.6138 38.7978 37.8996 41.4653 36.8537C43.777 35.9474 44.5339 36.4057 43.5435 38.9317C42.4755 41.6554 43.8501 42.6516 45.52 42.4848C46.7357 42.3631 47.3309 44.1008 46.9673 44.8377Z" fill="#3F79FF"/>
</svg>
