<svg width="60" height="60" viewBox="0 0 60 60" fill="none" xmlns="http://www.w3.org/2000/svg">
<path fill-rule="evenodd" clip-rule="evenodd" d="M60 30L30 0L22.7645 7.23551L42.857 27.328C43.3591 27.006 43.9563 26.8193 44.597 26.8193C46.3799 26.8193 47.8251 28.2646 47.8251 30.0474C47.8251 31.8303 46.3799 33.2755 44.597 33.2755C42.8142 33.2755 41.3689 31.8303 41.3689 30.0474C41.3689 29.4061 41.556 28.8084 41.8785 28.306L21.7862 8.21377L7.89303 22.107L28.101 42.315C28.6032 41.9929 29.2005 41.8062 29.8414 41.8062C31.6242 41.8062 33.0695 43.2514 33.0695 45.0343C33.0695 46.8171 31.6242 48.2623 29.8414 48.2623C28.0586 48.2623 26.6133 46.8171 26.6133 45.0343C26.6133 44.393 26.8003 43.7955 27.1226 43.2931L6.91477 23.0852L0 30L30 60L60 30ZM22.5569 19.5345C20.7741 19.5345 19.3288 20.9798 19.3288 22.7626C19.3288 24.5454 20.7741 25.9907 22.5569 25.9907C23.1984 25.9907 23.7962 25.8036 24.2987 25.4809L44.0706 45.2527L45.0488 44.2745L25.2766 24.5023C25.5984 24.0002 25.785 23.4032 25.785 22.7626C25.785 20.9798 24.3397 19.5345 22.5569 19.5345ZM21.1669 22.7637C21.1669 21.9954 21.7897 21.3727 22.5579 21.3727C23.3262 21.3727 23.9489 21.9954 23.9489 22.7637C23.9489 23.5319 23.3262 24.1547 22.5579 24.1547C21.7897 24.1547 21.1669 23.5319 21.1669 22.7637ZM44.5983 31.4373C45.3665 31.4373 45.9893 30.8145 45.9893 30.0463C45.9893 29.2781 45.3665 28.6553 44.5983 28.6553C43.8301 28.6553 43.2073 29.2781 43.2073 30.0463C43.2073 30.8145 43.8301 31.4373 44.5983 31.4373ZM29.8407 46.4246C30.609 46.4246 31.2317 45.8018 31.2317 45.0336C31.2317 44.2654 30.609 43.6426 29.8407 43.6426C29.0725 43.6426 28.4497 44.2654 28.4497 45.0336C28.4497 45.8018 29.0725 46.4246 29.8407 46.4246Z" fill="#3F79FF"/>
</svg>
