<svg width="50" height="50" viewBox="0 0 50 50" fill="none" xmlns="http://www.w3.org/2000/svg">
<path d="M48.4666 41.0825C46.7907 39.4052 44.25 39.1107 42.2688 40.1957L35.8555 33.7769L38.029 32.521V26.4639H44.3538L42.8381 27.9808L44.9076 30.0521L49.9597 24.9957L44.9076 19.9391L42.8381 22.0104L44.3611 23.5347H38.029V17.4875L35.8555 16.2316L42.2672 9.81433C43.0274 10.2326 43.8843 10.4558 44.7759 10.4558H44.776C46.1701 10.4558 47.4809 9.91246 48.4666 8.92581C50.5016 6.88925 50.5016 3.57517 48.4667 1.53841H48.4666C46.4316 -0.498254 43.1205 -0.498254 41.0853 1.53841C39.4096 3.21566 39.1152 5.75858 40.1993 7.74154L33.2315 14.7153L26.4652 10.8055V5.63097L27.9606 7.12768L30.0301 5.05645L24.978 0L19.9259 5.05636L21.9953 7.12758L23.5385 5.58312V10.8273L16.8102 14.7152L9.84391 7.743C10.2618 6.9822 10.4849 6.12453 10.4849 5.23221C10.4849 3.83684 9.94204 2.52496 8.95618 1.53841C6.92127 -0.498157 3.61012 -0.498352 1.57502 1.53841C-0.459979 3.57507 -0.459979 6.88915 1.57502 8.92591C2.59252 9.94419 3.92911 10.4534 5.2656 10.4534C6.13029 10.4534 6.9945 10.2389 7.77279 9.81267L14.1861 16.2316L12.0125 17.4876V23.5348H5.60988L7.12544 22.0177L5.05587 19.9465L0.00390625 25.0029L5.05597 30.0594L7.12553 27.9882L5.60246 26.4638H12.0126V32.5209L14.1861 33.7768L7.77435 40.1941C7.01422 39.7758 6.15724 39.5526 5.2657 39.5526C3.8716 39.5526 2.56089 40.0959 1.57502 41.0826C-0.459784 43.1192 -0.459784 46.4333 1.57502 48.47C2.56079 49.4565 3.87141 50 5.2656 50C6.65979 50 7.97041 49.4566 8.95618 48.47C10.632 46.7928 10.9263 44.25 9.84216 42.267L16.8101 35.2932L23.5385 39.1811V44.4078L22.0029 42.8708L19.9334 44.942L24.9855 49.9983L30.0377 44.942L27.9682 42.8708L26.4653 44.375V39.203L33.2316 35.2932L40.1994 42.267C39.1153 44.2499 39.4097 46.7927 41.0855 48.47C42.1031 49.4883 43.4395 49.9975 44.7761 49.9975C46.1127 49.9975 47.4492 49.4883 48.4667 48.47C49.4524 47.4834 49.9954 46.1716 49.9954 44.7762C49.9954 43.3808 49.4523 42.0689 48.4666 41.0825ZM43.1549 3.60963C43.6018 3.16235 44.189 2.93865 44.776 2.93865C45.363 2.93865 45.9502 3.16235 46.397 3.60963C47.2909 4.5043 47.2909 5.96001 46.397 6.85458C45.9641 7.28791 45.3884 7.52664 44.776 7.52664C44.1636 7.52664 43.5879 7.28801 43.1549 6.85458C42.2611 5.96001 42.2611 4.5043 43.1549 3.60963ZM3.64449 6.85458C2.7506 5.95991 2.7506 4.5043 3.64449 3.60963C4.53838 2.71506 5.99292 2.71496 6.88671 3.60973C7.31974 4.04306 7.55817 4.61923 7.55817 5.23211C7.55817 5.84499 7.31974 6.42126 6.88671 6.85458C5.99282 7.74925 4.53848 7.74916 3.64449 6.85458ZM6.88671 46.3988C6.45377 46.8321 5.87799 47.0708 5.2656 47.0708C4.6532 47.0708 4.07752 46.8322 3.64449 46.3988C2.7507 45.5041 2.7507 44.0485 3.64449 43.1538C4.07752 42.7205 4.6533 42.4818 5.2657 42.4818C5.87809 42.4818 6.45377 42.7204 6.88671 43.1538C7.7806 44.0485 7.7806 45.5042 6.88671 46.3988ZM25.0209 13.3531L33.6385 18.3328L25.0209 23.3104L16.4031 18.3328L25.0209 13.3531ZM14.9392 20.8693L23.5576 25.847V35.8097L14.9392 30.8297V20.8693ZM26.4842 25.847L35.1024 20.8693V30.8297L26.4842 35.8097V25.847ZM46.3972 46.3987C45.5035 47.2931 44.0489 47.2933 43.155 46.3987C42.2612 45.504 42.2612 44.0484 43.155 43.1537C43.602 42.7064 44.189 42.4828 44.7761 42.4828C45.3631 42.4828 45.9503 42.7065 46.3972 43.1537C46.8302 43.587 47.0687 44.1633 47.0687 44.7762C47.0687 45.3891 46.8301 45.9653 46.3972 46.3987Z" fill="#3F79FF"/>
</svg>
