<svg width="50" height="50" viewBox="0 0 50 50" fill="none" xmlns="http://www.w3.org/2000/svg">
<path fill-rule="evenodd" clip-rule="evenodd" d="M28.6905 22.7848V1.5625C28.6905 0.699609 27.9909 0 27.128 0H1.5625C0.699609 0 0 0.699609 0 1.5625V22.7847C0 23.6476 0.699609 24.3472 1.5625 24.3472H27.128C27.9909 24.3473 28.6905 23.6477 28.6905 22.7848ZM25.5655 3.125V10.6111H3.125V3.125H25.5655ZM3.125 21.2223V13.7362H25.5655V21.2223H3.125ZM22.9568 17.4792C22.9568 18.3421 22.2572 19.0417 21.3943 19.0417H13.4632C12.6003 19.0417 11.9007 18.3421 11.9007 17.4792C11.9007 16.6163 12.6003 15.9167 13.4632 15.9167H21.3943C22.2572 15.9167 22.9568 16.6162 22.9568 17.4792ZM11.9438 6.86816C11.9438 6.00527 12.6435 5.30566 13.5063 5.30566H21.4375C22.3004 5.30566 23 6.00527 23 6.86816C23 7.73105 22.3004 8.43066 21.4375 8.43066H13.5063C12.6434 8.43066 11.9438 7.73105 11.9438 6.86816ZM23.4569 39.6449C23.4569 40.5078 22.7573 41.2074 21.8944 41.2074H10.6178C9.75488 41.2074 9.05527 40.5078 9.05527 39.6449V28.6953C9.05527 27.8324 9.75488 27.1328 10.6178 27.1328C11.4807 27.1328 12.1803 27.8324 12.1803 28.6953V38.0824H21.8944C22.7574 38.0824 23.4569 38.7819 23.4569 39.6449ZM32.8419 10.2578C32.8419 9.39492 33.5415 8.69531 34.4044 8.69531H41.519C42.3819 8.69531 43.0815 9.39492 43.0815 10.2578V21.3047C43.0815 22.1676 42.3819 22.8672 41.519 22.8672C40.6562 22.8672 39.9565 22.1676 39.9565 21.3047V11.8203H34.4044C33.5414 11.8203 32.8419 11.1207 32.8419 10.2578ZM47.3478 26.7735H30.0154C28.553 26.7735 27.3632 27.9634 27.3632 29.4258V42.2181C27.3632 43.6806 28.553 44.8703 30.0154 44.8703H37.1557V46.875H34.7014C33.8385 46.875 33.1389 47.5746 33.1389 48.4375C33.1389 49.3004 33.8385 50 34.7014 50H42.6617C43.5246 50 44.2242 49.3004 44.2242 48.4375C44.2242 47.5746 43.5246 46.875 42.6617 46.875H40.2807V44.8703H47.3478C48.8102 44.8703 50 43.6805 50 42.2181V29.4258C50 27.9633 48.8102 26.7735 47.3478 26.7735ZM46.875 41.7453H30.4883V29.8985H46.875V41.7453ZM5.54414 6.86807C5.54414 5.92676 6.31191 5.15908 7.25313 5.15908C8.19443 5.15908 8.96211 5.92676 8.96211 6.86807C8.96211 7.80938 8.19443 8.57705 7.25313 8.57705C6.31191 8.57715 5.54414 7.80938 5.54414 6.86807ZM8.96211 17.4792C8.96211 18.4205 8.19443 19.1882 7.25313 19.1882C6.31191 19.1882 5.54414 18.4204 5.54414 17.4792C5.54414 16.5379 6.31191 15.7702 7.25313 15.7702C8.19443 15.7702 8.96211 16.5379 8.96211 17.4792Z" fill="#3F79FF"/>
</svg>
