<svg width="50" height="50" viewBox="0 0 50 50" fill="none" xmlns="http://www.w3.org/2000/svg">
<path d="M47.4817 7.70752L46.0507 4.13525H34.6862L33.2552 7.70752H18.4925V20.1822H16.1938L14.7626 23.7544H0V45.8647H31.5076V29.8178H50V7.70752H47.4817ZM28.5779 42.9351H2.92969V26.6841H16.7449L18.1761 23.1119H25.5758L27.0069 26.6841H28.5778V42.9351H28.5779ZM47.0703 26.8881H31.5076V23.7544H28.9894L27.5582 20.1822H21.4223V10.6372H35.2375L36.6686 7.06494H44.0684L45.4994 10.6372H47.0703V26.8881Z" fill="#3F79FF"/>
<path d="M47.0707 39.0731H40.0015L41.4312 37.6435L39.3596 35.5719L34.3936 40.5379L39.3596 45.504L41.4312 43.4324L40.0015 42.0027H50.0004V32.7475H47.0707V39.0731Z" fill="#3F79FF"/>
<path d="M2.92969 10.6509H9.99893L8.56924 12.0806L10.6408 14.1521L15.6068 9.18603L10.6408 4.22002L8.56924 6.2916L9.99893 7.72119H0V16.9766H2.92969V10.6509Z" fill="#3F79FF"/>
</svg>
