<svg width="50" height="50" viewBox="0 0 50 50" fill="none" xmlns="http://www.w3.org/2000/svg">
<path d="M45.6177 39.8768C46.5247 38.7788 47.0703 37.3719 47.0703 35.8398C47.0703 32.3397 44.2228 29.4922 40.7227 29.4922C38.4015 29.4922 36.3683 30.7453 35.2613 32.6099L29.3902 30.7865C29.3197 28.951 28.1187 27.4011 26.4648 26.8145V20.5078H32.8125C33.6215 20.5078 34.2773 19.852 34.2773 19.043V17.0898C34.2773 14.0974 32.4726 11.5198 29.895 10.3846C30.8021 9.28662 31.3477 7.87969 31.3477 6.34766C31.3477 2.84756 28.5001 0 25 0C21.4999 0 18.6523 2.84756 18.6523 6.34766C18.6523 7.87969 19.1979 9.28662 20.105 10.3846C17.5274 11.5198 15.7227 14.0974 15.7227 17.0898V19.043C15.7227 19.852 16.3785 20.5078 17.1875 20.5078H23.5352V26.8145C21.8813 27.4011 20.6803 28.951 20.6098 30.7865L14.7387 32.6099C13.6317 30.7453 11.5985 29.4922 9.27734 29.4922C5.77725 29.4922 2.92969 32.3397 2.92969 35.8398C2.92969 37.3719 3.47529 38.7788 4.38232 39.8768C1.80479 41.012 0 43.5896 0 46.582V48.5352C0 49.3441 0.655859 50 1.46484 50H17.0898C17.8988 50 18.5547 49.3441 18.5547 48.5352V46.582C18.5547 43.5896 16.7499 41.012 14.1724 39.8768C15.0794 38.7788 15.625 37.3719 15.625 35.8398C15.625 35.6943 15.6183 35.5505 15.6086 35.4075L21.4793 33.5843C22.2814 34.6563 23.561 35.3516 25 35.3516C26.439 35.3516 27.7186 34.6563 28.5207 33.5843L34.3914 35.4075C34.3817 35.5505 34.375 35.6943 34.375 35.8398C34.375 37.3719 34.9206 38.7788 35.8276 39.8768C33.2501 41.012 31.4453 43.5896 31.4453 46.582V48.5352C31.4453 49.3441 32.1012 50 32.9102 50H48.5352C49.3441 50 50 49.3441 50 48.5352V46.582C50 43.5896 48.1952 41.012 45.6177 39.8768ZM25 2.92969C26.8847 2.92969 28.418 4.46299 28.418 6.34766C28.418 8.23232 26.8847 9.76562 25 9.76562C23.1153 9.76562 21.582 8.23232 21.582 6.34766C21.582 4.46299 23.1153 2.92969 25 2.92969ZM18.6523 17.0898C18.6523 14.6667 20.6237 12.6953 23.0469 12.6953H26.9531C29.3763 12.6953 31.3477 14.6667 31.3477 17.0898V17.5781H18.6523V17.0898ZM9.27734 32.4219C11.162 32.4219 12.6953 33.9552 12.6953 35.8398C12.6953 37.7245 11.162 39.2578 9.27734 39.2578C7.39268 39.2578 5.85938 37.7245 5.85938 35.8398C5.85938 33.9552 7.39268 32.4219 9.27734 32.4219ZM15.625 46.582V47.0703H2.92969V46.582C2.92969 44.1589 4.90107 42.1875 7.32422 42.1875H11.2305C13.6536 42.1875 15.625 44.1589 15.625 46.582ZM25 32.4219C24.1923 32.4219 23.5352 31.7647 23.5352 30.957C23.5352 30.1493 24.1923 29.4922 25 29.4922C25.8077 29.4922 26.4648 30.1493 26.4648 30.957C26.4648 31.7647 25.8077 32.4219 25 32.4219ZM40.7227 32.4219C42.6073 32.4219 44.1406 33.9552 44.1406 35.8398C44.1406 37.7245 42.6073 39.2578 40.7227 39.2578C38.838 39.2578 37.3047 37.7245 37.3047 35.8398C37.3047 33.9552 38.838 32.4219 40.7227 32.4219ZM47.0703 47.0703H34.375V46.582C34.375 44.1589 36.3464 42.1875 38.7695 42.1875H42.6758C45.0989 42.1875 47.0703 44.1589 47.0703 46.582V47.0703Z" fill="#3F79FF"/>
</svg>
