<svg width="50" height="50" viewBox="0 0 50 50" fill="none" xmlns="http://www.w3.org/2000/svg">
<g clip-path="url(#clip0_131_1391)">
<path d="M13.7979 8.88672C11.3747 8.88672 9.40332 10.8581 9.40332 13.2812C9.64473 19.1112 17.9519 19.1095 18.1924 13.2812C18.1924 10.8581 16.221 8.88672 13.7979 8.88672ZM13.7979 14.7461C12.9901 14.7461 12.333 14.089 12.333 13.2812C12.4135 11.3379 15.1825 11.3385 15.2627 13.2812C15.2627 14.089 14.6056 14.7461 13.7979 14.7461Z" fill="#3F79FF"/>
<path d="M27.3535 16.3646L24.1333 13.8571C24.1548 13.472 24.1548 13.0904 24.1333 12.7053L27.3535 10.1978L23.246 3.0832L19.4653 4.61797C19.1434 4.40703 18.81 4.21426 18.4666 4.04063L17.9054 0H9.69043L9.1292 4.04072C8.78584 4.21436 8.45244 4.40713 8.13047 4.61807L4.34971 3.0833L0.242188 10.1979L3.4624 12.7054C3.44092 13.0905 3.44092 13.4721 3.4624 13.8572L0.242188 16.3646L4.34971 23.4792L8.13037 21.9444C8.45234 22.1554 8.78574 22.3481 9.1291 22.5218L9.69043 26.5625H17.9054L18.4666 22.5218C18.81 22.3481 19.1434 22.1554 19.4653 21.9444L23.246 23.4792L27.3535 16.3646ZM19.0347 18.6077C18.2922 19.2107 17.4753 19.824 16.5774 20.1648L15.7921 20.4824L15.3546 23.6328H12.2413L11.8038 20.4824L11.0185 20.1648C10.1226 19.8253 9.30176 19.2093 8.56123 18.6077L5.61142 19.8051L4.05488 17.109L6.56494 15.1545C6.48633 14.5827 6.36504 13.852 6.37607 13.2812C6.36484 12.7127 6.48662 11.9769 6.56494 11.408L4.05488 9.45361L5.61142 6.75742L8.56113 7.95479C9.30361 7.35176 10.1205 6.73848 11.0184 6.39766L11.8037 6.08008L12.2413 2.92969H15.3545L15.792 6.08008L16.5773 6.39766C17.4732 6.73721 18.294 7.35322 19.0346 7.95479L21.9843 6.75742L23.5408 9.45352L21.0308 11.408C21.1094 11.9798 21.2307 12.7105 21.2196 13.2812C21.2309 13.8498 21.1091 14.5856 21.0308 15.1545L23.5408 17.109L21.9843 19.8051L19.0347 18.6077Z" fill="#3F79FF"/>
<path d="M35.6934 31.7103C33.2702 31.7103 31.2988 33.6817 31.2988 36.1049C31.5401 41.9348 39.8475 41.9331 40.0879 36.1049C40.0879 33.6816 38.1165 31.7103 35.6934 31.7103ZM35.6934 37.5697C34.8856 37.5697 34.2285 36.9126 34.2285 36.1049C34.3089 34.1615 37.0781 34.1621 37.1582 36.1049C37.1582 36.9126 36.5011 37.5697 35.6934 37.5697Z" fill="#3F79FF"/>
<path d="M46.4331 36.2025C46.4331 35.993 46.4269 35.7824 46.4145 35.5715L49.7578 32.9681L45.5267 25.6395L41.6013 27.2329C41.2492 27.0006 40.8839 26.7894 40.5072 26.6003L39.9245 22.405H31.4622L30.8795 26.6003C30.5028 26.7894 30.1375 27.0006 29.7855 27.2329L25.8601 25.6395L21.6289 32.9681L24.9723 35.5715C24.9474 35.9939 24.9474 36.4111 24.9723 36.8335L21.6289 39.437L25.8601 46.7657L29.7855 45.1722C30.1375 45.4045 30.5028 45.6157 30.8795 45.8047L31.4622 50.0001H39.9245L40.5072 45.8047C40.8839 45.6157 41.2492 45.4045 41.6013 45.1722L45.5267 46.7657L49.7578 39.437L46.4145 36.8335C46.4269 36.6226 46.4331 36.4119 46.4331 36.2025ZM43.4275 35.113C43.5855 36.1003 43.4666 37.147 43.3109 38.1299L45.9452 40.1813L44.265 43.0918L41.1692 41.835C40.399 42.462 39.5496 43.0918 38.6184 43.4463L37.8329 43.7637L37.3735 47.0703H34.013L33.5537 43.7636L32.7683 43.4462C31.8379 43.0922 30.9866 42.4612 30.2175 41.8349L27.1217 43.0917L25.4414 40.1812L28.0758 38.1298C27.9938 37.5375 27.8723 36.7934 27.8832 36.2025C27.872 35.6136 27.9939 34.8646 28.0758 34.2752L25.4414 32.2239L27.1217 29.3134L30.2175 30.5702C30.9876 29.9432 31.837 29.3134 32.7683 28.9589L33.5537 28.6415L34.013 25.3348H37.3735L37.8328 28.6415L38.6183 28.9589C39.5486 29.3129 40.3999 29.9439 41.1691 30.5702L44.2649 29.3134L45.9451 32.2239L43.3108 34.2752L43.4275 35.113Z" fill="#3F79FF"/>
<path d="M11.6933 39.6311L12.9719 40.918H11.5693C9.14131 40.918 7.16602 38.9426 7.16602 36.5146V32.0312H4.23633V36.5146C4.23633 40.558 7.52588 43.8477 11.5693 43.8477H12.9719L11.6933 45.1346L13.7715 47.1995L18.5571 42.3828L13.7716 37.5662L11.6933 39.6311Z" fill="#3F79FF"/>
<path d="M38.6978 10.369L37.4192 9.08208H38.8218C41.2497 9.08208 43.2251 11.0575 43.2251 13.4854V17.9688H46.1548V13.4854C46.1548 9.44204 42.8651 6.15239 38.8218 6.15239H37.4192L38.6978 4.86548L36.6196 2.80054L31.834 7.61724L36.6195 12.4338L38.6978 10.369Z" fill="#3F79FF"/>
</g>
<defs>
<clipPath id="clip0_131_1391">
<rect width="50" height="50" fill="white"/>
</clipPath>
</defs>
</svg>
