<svg width="130" height="65" viewBox="0 0 130 65" fill="none" xmlns="http://www.w3.org/2000/svg">
<path fill-rule="evenodd" clip-rule="evenodd" d="M22.4833 36.4219C22.4833 31.887 18.8075 28.2112 14.2727 28.2112H8.21125C3.6764 28.2112 0 31.887 0 36.4219C0 40.9573 3.6764 44.6325 8.21125 44.6325H22.4833V36.4354V36.4219Z" fill="#A8ACB4"/>
<mask id="mask0_116_1400" style="mask-type:alpha" maskUnits="userSpaceOnUse" x="0" y="20" width="23" height="17">
<path d="M0 20H22.4833V36.4219H0V20Z" fill="black" fill-opacity="0.55"/>
</mask>
<g mask="url(#mask0_116_1400)">
<path fill-rule="evenodd" clip-rule="evenodd" d="M14.2733 20H0V36.4219H14.2733C18.8082 36.4219 22.484 32.7461 22.484 28.2106C22.4833 23.6752 18.8069 20 14.2733 20Z" fill="#A8ACB4"/>
</g>
<mask id="mask1_116_1400" style="mask-type:alpha" maskUnits="userSpaceOnUse" x="0" y="20" width="23" height="17">
<path d="M0 20V36.4219H14.2733C18.8082 36.4219 22.4833 32.7467 22.4833 28.2113C22.4833 23.6752 18.8082 20 14.2733 20" fill="black" fill-opacity="0.55"/>
</mask>
<g mask="url(#mask1_116_1400)">
<path fill-rule="evenodd" clip-rule="evenodd" d="M22.4833 36.4219C22.4833 31.887 18.8075 28.2112 14.2727 28.2112H8.21125C3.6764 28.2112 0 31.887 0 36.4219C0 40.9573 3.6764 44.6325 8.21125 44.6325H22.4833V36.4354V36.4219Z" fill="#A8ACB4"/>
</g>
<path fill-rule="evenodd" clip-rule="evenodd" d="M35.3197 27.6601V32.3162H39.2246C40.9292 32.3162 41.6817 31.2342 41.6817 30.0242C41.6817 28.8695 40.9292 27.6594 39.2431 27.6594H35.3203L35.3197 27.6601ZM44.3389 38.6221H41.9379L38.0336 34.1858H35.3197V38.6221H33.2666V25.772C35.2649 25.772 37.2448 25.7898 39.2431 25.7898C42.2125 25.7898 43.7711 27.8251 43.7711 29.9884C43.7711 31.8217 42.8179 33.618 40.2875 33.9851L44.1197 38.2557L44.3389 38.6228V38.6221ZM46.5774 34.0941C46.5774 35.9637 47.8971 37.1005 49.5105 37.1005C53.4148 37.1005 53.4148 31.1061 49.5105 31.1061C47.8971 31.1061 46.5774 32.2429 46.5774 34.0941ZM52.4984 29.5845H54.3317V38.6221H52.5348L52.4436 37.1553C51.8383 38.3105 50.4453 38.8611 49.327 38.8611C46.687 38.8796 44.6893 37.1738 44.6893 34.0947C44.6893 31.0692 46.7603 29.3837 49.3633 29.3837C50.6467 29.3837 51.8752 29.9878 52.4436 31.0144L52.4984 29.5845ZM58.4386 34.0941C58.4386 35.8725 59.7398 37.045 61.3354 37.045C62.9118 37.045 64.1946 35.9089 64.1946 34.0941C64.1946 32.2429 62.9118 31.161 61.3354 31.161C59.7589 31.161 58.4386 32.3526 58.4386 34.0941ZM58.329 25.8077V30.9959C58.9152 29.933 60.4006 29.3831 61.4998 29.3831C64.1034 29.3831 66.0833 31.015 66.0833 34.0941C66.0833 37.0826 64.0844 38.805 61.4635 38.805C60.2534 38.805 59.0433 38.3469 58.329 37.1922L58.2194 38.6221H56.4397V25.8077H58.329Z" fill="#A8ACB4"/>
<mask id="mask2_116_1400" style="mask-type:alpha" maskUnits="userSpaceOnUse" x="0" y="20" width="130" height="25">
<path d="M0 44.6325H130V20H0V44.6325Z" fill="black" fill-opacity="0.55"/>
</mask>
<g mask="url(#mask2_116_1400)">
<path fill-rule="evenodd" clip-rule="evenodd" d="M67.6417 38.6222H69.5298V29.5482H67.6417V38.6222ZM69.7687 26.9267C69.7687 28.4847 67.4219 28.4847 67.4219 26.9267C67.4219 25.3866 69.7687 25.3866 69.7687 26.9267ZM74.553 26.9815V29.603H77.1924V31.2349H74.5351V35.5426C74.5351 36.4958 74.957 37.0273 75.8363 37.0273C76.2028 37.0273 76.6246 36.8992 76.9916 36.7157L77.5409 38.3291C76.9189 38.6044 76.3684 38.7325 75.7267 38.7325C73.7648 38.7879 72.6477 37.669 72.6477 35.5426V31.2349H70.9055V29.603H72.6471V27.1835L74.553 26.9815ZM101.328 34.0942C101.328 35.9638 102.648 37.1006 104.26 37.1006C108.165 37.1006 108.165 31.1062 104.26 31.1062C102.647 31.1062 101.328 32.243 101.328 34.0942ZM107.249 29.5846H109.082V38.6222H107.285L107.193 37.1554C106.589 38.3106 105.195 38.8612 104.077 38.8612C101.438 38.8797 99.4399 37.1738 99.4399 34.0948C99.4399 31.0693 101.511 29.3838 104.114 29.3838C105.397 29.3838 106.626 29.9879 107.193 31.0145L107.248 29.5846H107.249ZM118.047 38.6222V33.7826C118.047 32.2246 117.167 31.1795 115.609 31.1795C114.105 31.1795 113.079 32.4075 113.079 33.8922V38.6222H111.19V29.5661H112.914L113.024 30.8858C113.885 29.9146 114.894 29.4386 116.067 29.4386C118.266 29.4386 119.954 30.9966 119.954 33.7641V38.6229H118.047V38.6222ZM123.822 25.8084V33.2881L127.177 29.5852H129.468V29.6948L125.564 33.838L130.001 38.4935V38.6229H127.691L123.822 34.4427V38.6229H121.916V25.8072L123.822 25.8084ZM85.2718 35.1989C85.0908 35.8178 84.7558 36.2895 84.2755 36.6005C83.8013 36.9084 83.2378 37.0642 82.6004 37.0642C81.9249 37.0642 81.3571 36.9078 80.9131 36.5981C80.4574 36.2815 80.1871 35.8037 80.1082 35.1768L80.0879 35.0148H85.3248L85.2712 35.1995L85.2718 35.1989ZM87.0084 36.0149C87.227 35.4545 87.3379 34.8325 87.3379 34.1681C87.3379 33.4667 87.227 32.82 87.0078 32.2467C86.8021 31.6932 86.4785 31.191 86.0595 30.7749C85.6475 30.3685 85.1394 30.0483 84.5495 29.8241C83.9571 29.5993 83.2698 29.4854 82.5087 29.4854C82.1761 29.4854 81.8294 29.5162 81.4772 29.5747C81.1297 29.6334 80.7882 29.7233 80.4568 29.8432C80.1302 29.9619 79.8157 30.1116 79.5177 30.2903C79.2692 30.4393 79.0368 30.6137 78.8243 30.8107L80.0522 32.0238C80.1741 31.9179 80.3127 31.8224 80.4667 31.7381C80.671 31.6274 80.8847 31.5351 81.1052 31.4622C81.5462 31.3151 82.0075 31.2382 82.4723 31.2343C83.2963 31.2343 83.9626 31.4265 84.4503 31.8058C84.9442 32.1888 85.2343 32.687 85.3125 33.2868L85.3334 33.4494H78.2362C78.169 34.3054 78.2208 35.0653 78.3901 35.7094C78.5669 36.3819 78.8532 36.9534 79.2412 37.4054C79.6318 37.8587 80.1295 38.2073 80.689 38.4196C81.2691 38.6444 81.9372 38.7583 82.6737 38.7583C83.3862 38.7583 84.0384 38.6444 84.6123 38.4196C85.162 38.2106 85.6611 37.8874 86.0767 37.4713C86.4838 37.0548 86.801 36.5591 87.0084 36.0149ZM90.7489 34.0942C90.7489 35.8726 92.0501 37.0451 93.6457 37.0451C95.2221 37.0451 96.5049 35.909 96.5049 34.0942C96.5049 32.243 95.2221 31.161 93.6457 31.161C92.0692 31.161 90.7489 32.3526 90.7489 34.0942ZM90.6393 25.8078V30.996C91.2255 29.9331 92.7102 29.3832 93.8107 29.3832C96.4137 29.3832 98.393 31.0151 98.393 34.0942C98.393 37.0827 96.3947 38.8051 93.7731 38.8051C92.5637 38.8051 91.3536 38.347 90.6393 37.1923L90.529 38.6222H88.7506V25.8078H90.6393Z" fill="#A8ACB4"/>
</g>
</svg>
