<svg width="48" height="50" viewBox="0 0 48 50" fill="none" xmlns="http://www.w3.org/2000/svg">
<path d="M27.4641 50H20.5349C18.8432 50 17.4036 48.8437 17.0328 47.1896L16.1536 43.2875C14.7224 42.6812 13.3599 41.8896 12.0828 40.925L8.28698 42.1229C6.65781 42.625 4.88698 41.9354 4.07031 40.4812L0.616142 34.5062C-0.210942 33.0271 0.068225 31.2042 1.28698 30.0583L4.22864 27.3542C4.13906 26.5625 4.09323 25.7729 4.09323 25C4.09323 24.2271 4.13698 23.4375 4.22656 22.6458L1.29947 19.9542C0.0682247 18.7958 -0.213025 16.975 0.605725 15.5146L4.08073 9.50416C4.88906 8.06666 6.65781 7.37083 8.28281 7.87708L12.0828 9.075C13.3599 8.11042 14.7245 7.31875 16.1536 6.7125L17.0328 2.80833C17.4036 1.15625 18.8432 0 20.5349 0H27.4641C29.1557 0 30.5953 1.15625 30.9661 2.81042L31.8453 6.7125C33.2766 7.31875 34.6391 8.11042 35.9161 9.075L39.712 7.87708C41.337 7.36875 43.1099 8.06458 43.9286 9.51875L47.3828 15.4937C48.2099 16.9729 47.9307 18.7958 46.712 19.9417L43.7703 22.6458C43.8599 23.4375 43.9037 24.2271 43.9037 25C43.9037 25.7729 43.8599 26.5625 43.7703 27.3542L46.6995 30.0458C46.7037 30.05 46.7078 30.0542 46.712 30.0583C47.9307 31.2042 48.212 33.025 47.3932 34.4854L43.9182 40.4958C43.1078 41.9333 41.3391 42.6292 39.7161 42.1229L35.9141 40.9229C34.637 41.8875 33.2724 42.6792 31.8432 43.2854L30.9641 47.1896C30.5953 48.8437 29.1557 50 27.4641 50ZM12.4036 37.6229C12.762 37.6229 13.1141 37.7458 13.3995 37.9792C14.8266 39.1562 16.3891 40.0625 18.0411 40.6729C18.537 40.8562 18.9078 41.2792 19.0245 41.7958L20.0849 46.5042C20.1328 46.7187 20.3245 46.875 20.5391 46.875H27.4682C27.6828 46.875 27.8724 46.7187 27.9224 46.5062L28.9828 41.7979C29.0995 41.2812 29.4682 40.8583 29.9661 40.675C31.6182 40.0646 33.1807 39.1562 34.6078 37.9812C35.0161 37.6437 35.5641 37.5354 36.0724 37.6958L40.6578 39.1437C40.8745 39.2104 41.1078 39.1354 41.2099 38.95L44.6849 32.9417C44.7891 32.7562 44.7516 32.5021 44.5828 32.3396L41.0661 29.1062C40.6828 28.7542 40.5016 28.2375 40.5807 27.7229C40.7182 26.8062 40.7891 25.8896 40.7891 25C40.7891 24.1104 40.7203 23.1958 40.5807 22.2771C40.5036 21.7625 40.6849 21.2458 41.0661 20.8937L44.5912 17.6521C44.7495 17.5021 44.7911 17.2458 44.6745 17.0396L41.2203 11.0667C41.1078 10.8687 40.8828 10.7917 40.6536 10.8583L36.0745 12.3042C35.5661 12.4646 35.0182 12.3562 34.6099 12.0187C33.1828 10.8417 31.6203 9.93542 29.9682 9.325C29.4724 9.14166 29.1016 8.71875 28.9849 8.20208L27.9245 3.49375C27.8682 3.28125 27.6786 3.125 27.4641 3.125H20.5349C20.3203 3.125 20.1307 3.28125 20.0807 3.49375L19.0203 8.20417C18.9057 8.72083 18.5349 9.14167 18.0391 9.32708C16.387 9.9375 14.8245 10.8437 13.3974 12.0208C12.9891 12.3583 12.4411 12.4646 11.9328 12.3062L7.34739 10.8583C7.13073 10.7917 6.89739 10.8687 6.79531 11.0521L3.32031 17.0583C3.21406 17.2458 3.25573 17.5021 3.42656 17.6646L6.94114 20.8937C7.32448 21.2458 7.50573 21.7625 7.42656 22.2771C7.28906 23.1937 7.21823 24.1104 7.21823 25C7.21823 25.8896 7.28698 26.8042 7.42656 27.7229C7.50364 28.2375 7.32239 28.7542 6.94114 29.1062L3.41614 32.3479C3.25781 32.4979 3.21614 32.7542 3.33281 32.9604L6.78698 38.9333C6.90156 39.1333 7.12864 39.2146 7.35364 39.1417L11.9328 37.6958C12.087 37.6458 12.2453 37.6229 12.4036 37.6229Z" fill="#3F79FF"/>
<path d="M22.4392 33.3334C22.3205 33.3334 22.2038 33.3209 22.0851 33.2938C21.2455 33.1 20.7205 32.2604 20.9142 31.4209L24.0392 17.8792C24.233 17.0354 25.083 16.5167 25.9122 16.7063C26.7517 16.9 27.2767 17.7396 27.083 18.5792L23.958 32.1209C23.7913 32.8459 23.1497 33.3334 22.4392 33.3334Z" fill="#3F79FF"/>
<path d="M30.7704 31.25C30.3433 31.25 29.9183 31.0771 29.6079 30.7334C29.0308 30.0917 29.0829 29.1042 29.7246 28.525L33.6433 25L29.7246 21.475C29.0829 20.8979 29.0308 19.9104 29.6079 19.2667C30.1871 18.6271 31.1746 18.575 31.8162 19.15L37.0246 23.8375C37.3538 24.1354 37.5412 24.5583 37.5412 25C37.5412 25.4417 37.3538 25.8646 37.0246 26.1625L31.8162 30.85C31.5162 31.1188 31.1433 31.25 30.7704 31.25Z" fill="#3F79FF"/>
<path d="M17.2288 31.25C16.8559 31.25 16.483 31.1187 16.183 30.85L10.9747 26.1625C10.6455 25.8646 10.458 25.4416 10.458 25C10.458 24.5583 10.6455 24.1354 10.9747 23.8375L16.183 19.15C16.8247 18.5729 17.8101 18.625 18.3913 19.2666C18.9684 19.9083 18.9163 20.8958 18.2747 21.475L14.3559 25L18.2747 28.525C18.9163 29.1021 18.9684 30.0896 18.3913 30.7333C18.0809 31.0771 17.6559 31.25 17.2288 31.25Z" fill="#3F79FF"/>
</svg>
