<svg width="124" height="105" viewBox="0 0 124 105" fill="none" xmlns="http://www.w3.org/2000/svg">
<path d="M0.803711 95.2326V85.7427H2.64821V95.2326H0.803711Z" fill="#233131"/>
<path d="M6.47266 89.1511V95.2326H4.62815V85.7427H6.05831L11.0037 91.9713V85.7561H12.8482V95.2326H11.3512L6.47266 89.1511Z" fill="#233131"/>
<path d="M21.4117 94.1633C20.6543 94.9207 19.7722 95.2994 18.7653 95.2994C18.1415 95.2994 17.5534 95.1747 17.001 94.9252C16.4574 94.6757 15.9807 94.3326 15.5708 93.896C15.1698 93.4594 14.849 92.947 14.6085 92.3589C14.3768 91.7619 14.2609 91.1203 14.2609 90.4342C14.2609 89.7837 14.3768 89.1733 14.6085 88.6031C14.849 88.0239 15.1743 87.5204 15.5842 87.0927C16.003 86.6561 16.4931 86.313 17.0544 86.0635C17.6158 85.8051 18.2262 85.6759 18.8856 85.6759C19.7766 85.6759 20.5385 85.863 21.1712 86.2373C21.8127 86.6115 22.2939 87.115 22.6147 87.7476L21.238 88.7634C20.9974 88.2912 20.6588 87.9303 20.2222 87.6808C19.7945 87.4313 19.3267 87.3066 18.8187 87.3066C18.4178 87.3066 18.048 87.3912 17.7094 87.5605C17.3797 87.7298 17.0945 87.9615 16.8539 88.2555C16.6223 88.5496 16.4396 88.8882 16.3059 89.2713C16.1812 89.6545 16.1188 90.0599 16.1188 90.4877C16.1188 90.9332 16.1901 91.352 16.3327 91.7441C16.4752 92.1272 16.6713 92.4614 16.9208 92.7465C17.1703 93.0316 17.4643 93.2589 17.8029 93.4282C18.1504 93.5886 18.5247 93.6688 18.9257 93.6688C19.8435 93.6688 20.6722 93.2366 21.4117 92.3723V91.704H19.5004V90.354H22.9355V95.2326H21.4117V94.1633Z" fill="#233131"/>
<path d="M24.5074 95.2326V85.7427H28.7043C29.141 85.7427 29.5419 85.8363 29.9073 86.0234C30.2815 86.2016 30.6023 86.4422 30.8696 86.7452C31.1369 87.0392 31.3463 87.3778 31.4978 87.761C31.6493 88.1352 31.725 88.5139 31.725 88.8971C31.725 89.5119 31.5691 90.0733 31.2572 90.5812C30.9543 91.0802 30.5399 91.4411 30.0142 91.6639L32.1795 95.2326H30.1078L28.1697 92.0515H26.3519V95.2326H24.5074ZM26.3519 90.4342H28.6642C28.8335 90.4342 28.9895 90.3941 29.1321 90.3139C29.2835 90.2337 29.4127 90.1268 29.5197 89.9931C29.6266 89.8505 29.7112 89.6857 29.7736 89.4986C29.836 89.3114 29.8672 89.111 29.8672 88.8971C29.8672 88.6743 29.8315 88.4694 29.7603 88.2823C29.689 88.0951 29.591 87.9348 29.4662 87.8011C29.3504 87.6585 29.2122 87.5516 29.0519 87.4803C28.9004 87.4001 28.7444 87.36 28.584 87.36H26.3519V90.4342Z" fill="#233131"/>
<path d="M39.9857 93.6153V95.2326H33.3963V85.7427H39.8654V87.36H35.2408V89.6456H39.2372V91.1426H35.2408V93.6153H39.9857Z" fill="#233131"/>
<path d="M46.8817 88.2288C46.8194 88.1664 46.7035 88.0818 46.5342 87.9749C46.3738 87.8679 46.1734 87.7655 45.9328 87.6674C45.7011 87.5605 45.4471 87.4714 45.1709 87.4001C44.8947 87.3288 44.614 87.2932 44.3288 87.2932C43.8209 87.2932 43.4422 87.3867 43.1927 87.5739C42.9432 87.761 42.8185 88.0239 42.8185 88.3625C42.8185 88.5585 42.863 88.7233 42.9522 88.857C43.0502 88.9818 43.1883 89.0931 43.3665 89.1912C43.5447 89.2892 43.7675 89.3783 44.0348 89.4585C44.311 89.5387 44.6274 89.6233 44.9838 89.7124C45.4471 89.8372 45.8659 89.9708 46.2402 90.1134C46.6233 90.256 46.9441 90.4342 47.2025 90.648C47.4698 90.8619 47.6748 91.1203 47.8174 91.4233C47.9599 91.7173 48.0312 92.0827 48.0312 92.5193C48.0312 93.0272 47.9332 93.4638 47.7372 93.8291C47.55 94.1856 47.2916 94.4752 46.9619 94.6979C46.6412 94.9207 46.2669 95.0855 45.8392 95.1925C45.4204 95.2905 44.9793 95.3395 44.516 95.3395C43.8031 95.3395 43.0992 95.2326 42.4041 95.0187C41.7091 94.8049 41.0854 94.5019 40.5329 94.1098L41.3482 92.5193C41.4284 92.5995 41.571 92.7064 41.7759 92.8401C41.9898 92.9648 42.2393 93.094 42.5244 93.2277C42.8096 93.3524 43.1259 93.4594 43.4734 93.5485C43.8209 93.6376 44.1774 93.6821 44.5427 93.6821C45.5585 93.6821 46.0664 93.3569 46.0664 92.7064C46.0664 92.5015 46.0085 92.3277 45.8927 92.1851C45.7768 92.0426 45.612 91.9178 45.3981 91.8109C45.1843 91.704 44.9259 91.6059 44.6229 91.5168C44.3199 91.4277 43.9813 91.3297 43.6071 91.2228C43.1526 91.098 42.7561 90.9644 42.4175 90.8218C42.0878 90.6703 41.8116 90.4966 41.5888 90.3005C41.3661 90.0956 41.1968 89.8639 41.0809 89.6055C40.974 89.3382 40.9205 89.0219 40.9205 88.6565C40.9205 88.1753 41.0096 87.7476 41.1878 87.3734C41.3661 86.9991 41.6111 86.6873 41.923 86.4378C42.2438 86.1883 42.6135 86.0011 43.0323 85.8764C43.4511 85.7427 43.9011 85.6759 44.3823 85.6759C45.0506 85.6759 45.6654 85.7828 46.2268 85.9967C46.7882 86.2016 47.2783 86.4467 47.6971 86.7318L46.8817 88.2288Z" fill="#233131"/>
<path d="M55.0788 88.2288C55.0165 88.1664 54.9006 88.0818 54.7313 87.9749C54.5709 87.8679 54.3705 87.7655 54.1299 87.6674C53.8982 87.5605 53.6442 87.4714 53.368 87.4001C53.0918 87.3288 52.8111 87.2932 52.5259 87.2932C52.018 87.2932 51.6393 87.3867 51.3898 87.5739C51.1403 87.761 51.0156 88.0239 51.0156 88.3625C51.0156 88.5585 51.0601 88.7233 51.1493 88.857C51.2473 88.9818 51.3854 89.0931 51.5636 89.1912C51.7418 89.2892 51.9646 89.3783 52.2319 89.4585C52.5081 89.5387 52.8245 89.6233 53.1809 89.7124C53.6442 89.8372 54.063 89.9708 54.4373 90.1134C54.8204 90.256 55.1412 90.4342 55.3996 90.648C55.6669 90.8619 55.8719 91.1203 56.0145 91.4233C56.157 91.7173 56.2283 92.0827 56.2283 92.5193C56.2283 93.0272 56.1303 93.4638 55.9343 93.8291C55.7471 94.1856 55.4887 94.4752 55.159 94.6979C54.8383 94.9207 54.464 95.0855 54.0363 95.1925C53.6175 95.2905 53.1764 95.3395 52.7131 95.3395C52.0002 95.3395 51.2963 95.2326 50.6012 95.0187C49.9062 94.8049 49.2825 94.5019 48.73 94.1098L49.5453 92.5193C49.6255 92.5995 49.7681 92.7064 49.973 92.8401C50.1869 92.9648 50.4364 93.094 50.7215 93.2277C51.0067 93.3524 51.323 93.4594 51.6705 93.5485C52.018 93.6376 52.3745 93.6821 52.7398 93.6821C53.7556 93.6821 54.2635 93.3569 54.2635 92.7064C54.2635 92.5015 54.2056 92.3277 54.0898 92.1851C53.9739 92.0426 53.8091 91.9178 53.5952 91.8109C53.3814 91.704 53.123 91.6059 52.82 91.5168C52.517 91.4277 52.1784 91.3297 51.8042 91.2228C51.3497 91.098 50.9532 90.9644 50.6146 90.8218C50.2849 90.6703 50.0087 90.4966 49.7859 90.3005C49.5632 90.0956 49.3939 89.8639 49.278 89.6055C49.1711 89.3382 49.1176 89.0219 49.1176 88.6565C49.1176 88.1753 49.2067 87.7476 49.3849 87.3734C49.5632 86.9991 49.8082 86.6873 50.1201 86.4378C50.4409 86.1883 50.8106 86.0011 51.2294 85.8764C51.6482 85.7427 52.0982 85.6759 52.5794 85.6759C53.2477 85.6759 53.8625 85.7828 54.4239 85.9967C54.9853 86.2016 55.4754 86.4467 55.8942 86.7318L55.0788 88.2288Z" fill="#233131"/>
<path d="M63.1153 85.7427H64.746L68.3548 95.2326H66.4568L65.5747 92.8668H62.2599L61.3911 95.2326H59.4932L63.1153 85.7427ZM65.2405 91.5703L63.9307 87.8412L62.5673 91.5703H65.2405Z" fill="#233131"/>
<path d="M68.4685 90.4208C68.4685 89.8416 68.571 89.2713 68.7759 88.71C68.9898 88.1397 69.2972 87.6318 69.6982 87.1863C70.0992 86.7407 70.5893 86.3798 71.1684 86.1036C71.7476 85.8274 72.407 85.6893 73.1466 85.6893C74.0199 85.6893 74.7728 85.8808 75.4055 86.264C76.047 86.6472 76.5238 87.1462 76.8356 87.761L75.4188 88.7367C75.2941 88.4694 75.1426 88.2466 74.9644 88.0684C74.7862 87.8813 74.5946 87.7343 74.3897 87.6273C74.1847 87.5204 73.9708 87.4447 73.7481 87.4001C73.5253 87.3466 73.307 87.3199 73.0932 87.3199C72.6298 87.3199 72.2244 87.4135 71.8768 87.6006C71.5382 87.7877 71.2531 88.0328 71.0214 88.3357C70.7987 88.6298 70.6294 88.9684 70.5135 89.3515C70.3977 89.7258 70.3398 90.1 70.3398 90.4743C70.3398 90.8931 70.4066 91.2985 70.5403 91.6906C70.6739 92.0737 70.861 92.4124 71.1016 92.7064C71.3511 93.0005 71.6452 93.2366 71.9838 93.4148C72.3313 93.593 72.71 93.6821 73.1199 93.6821C73.3337 93.6821 73.5565 93.6554 73.7882 93.6019C74.0199 93.5485 74.2382 93.4638 74.4431 93.348C74.657 93.2321 74.853 93.0851 75.0312 92.9069C75.2094 92.7198 75.352 92.497 75.4589 92.2386L76.9693 93.1074C76.8178 93.4638 76.5995 93.7801 76.3143 94.0564C76.0381 94.3237 75.7218 94.5509 75.3654 94.738C75.0179 94.9252 74.6436 95.0677 74.2426 95.1657C73.8416 95.2638 73.4496 95.3128 73.0664 95.3128C72.3892 95.3128 71.7699 95.1702 71.2085 94.8851C70.6472 94.5999 70.1616 94.2301 69.7517 93.7757C69.3507 93.3123 69.0343 92.7911 68.8027 92.2119C68.5799 91.6238 68.4685 91.0267 68.4685 90.4208Z" fill="#233131"/>
<path d="M80.7757 85.7427H82.4063L86.0151 95.2326H84.1171L83.235 92.8668H79.9202L79.0515 95.2326H77.1535L80.7757 85.7427ZM82.9008 91.5703L81.591 87.8412L80.2277 91.5703H82.9008Z" fill="#233131"/>
<path d="M87.056 95.2326V85.7427H90.5044C91.2796 85.7427 91.9568 85.8675 92.536 86.117C93.1241 86.3665 93.6142 86.7051 94.0063 87.1328C94.3984 87.5605 94.6924 88.064 94.8885 88.6431C95.0845 89.2134 95.1825 89.8238 95.1825 90.4743C95.1825 91.196 95.0711 91.851 94.8484 92.4391C94.6345 93.0183 94.3226 93.5173 93.9127 93.9361C93.5028 94.346 93.0083 94.6667 92.4291 94.8984C91.8588 95.1212 91.2173 95.2326 90.5044 95.2326H87.056ZM93.3246 90.4743C93.3246 90.0198 93.2623 89.601 93.1375 89.2179C93.0128 88.8347 92.8301 88.505 92.5895 88.2288C92.3489 87.9526 92.0504 87.7387 91.694 87.5872C91.3465 87.4358 90.95 87.36 90.5044 87.36H88.9005V93.6153H90.5044C90.9589 93.6153 91.3598 93.5351 91.7074 93.3747C92.0638 93.2143 92.3578 92.996 92.5895 92.7198C92.8301 92.4346 93.0128 92.1005 93.1375 91.7173C93.2623 91.3342 93.3246 90.9198 93.3246 90.4743Z" fill="#233131"/>
<path d="M103.213 93.6153V95.2326H96.6236V85.7427H103.093V87.36H98.4681V89.6456H102.465V91.1426H98.4681V93.6153H103.213Z" fill="#233131"/>
<path d="M112.39 95.2326V88.9506L109.944 93.6287H108.942L106.496 88.9506V95.2326H104.651V85.7427H106.629L109.436 91.1426L112.27 85.7427H114.234V95.2326H112.39Z" fill="#233131"/>
<path d="M117.285 85.7427L119.624 90.3139L122.003 85.7427H123.995L120.546 91.9178V95.2326H118.715V91.8911L115.28 85.7427H117.285Z" fill="#233131"/>
<path d="M1.36744 103.895C1.16524 103.895 0.980171 103.859 0.81224 103.787C0.644308 103.711 0.500367 103.61 0.380416 103.483C0.260465 103.357 0.166218 103.209 0.0976744 103.041C0.0325581 102.87 0 102.69 0 102.502C0 102.313 0.0325581 102.135 0.0976744 101.967C0.166218 101.799 0.260465 101.652 0.380416 101.525C0.503794 101.398 0.649449 101.299 0.817381 101.227C0.985312 101.151 1.17038 101.114 1.37258 101.114C1.57479 101.114 1.75814 101.151 1.92264 101.227C2.09058 101.302 2.2328 101.403 2.34933 101.53C2.46585 101.653 2.55496 101.799 2.61665 101.967C2.68176 102.131 2.71432 102.303 2.71432 102.481C2.71432 102.519 2.71261 102.553 2.70918 102.584C2.70918 102.615 2.70747 102.639 2.70404 102.656H0.478091C0.488372 102.789 0.519217 102.911 0.570624 103.021C0.622032 103.13 0.688862 103.225 0.771114 103.304C0.853366 103.382 0.9459 103.444 1.04871 103.489C1.15496 103.533 1.26634 103.555 1.38286 103.555C1.46512 103.555 1.54566 103.545 1.62448 103.525C1.7033 103.501 1.77699 103.47 1.84553 103.432C1.91408 103.394 1.97405 103.348 2.02546 103.293C2.08029 103.238 2.12142 103.177 2.14884 103.108L2.53953 103.216C2.49498 103.316 2.43329 103.406 2.35447 103.489C2.27907 103.571 2.18996 103.643 2.08715 103.705C1.98776 103.763 1.87638 103.809 1.753 103.843C1.62962 103.878 1.5011 103.895 1.36744 103.895ZM2.28764 102.322C2.27736 102.195 2.2448 102.078 2.18996 101.972C2.13856 101.862 2.07173 101.77 1.98947 101.694C1.91065 101.619 1.81811 101.561 1.71187 101.52C1.60563 101.475 1.49253 101.453 1.37258 101.453C1.25263 101.453 1.13953 101.475 1.03329 101.52C0.92705 101.561 0.832803 101.621 0.750551 101.7C0.671726 101.775 0.60661 101.866 0.555202 101.972C0.507222 102.078 0.478091 102.195 0.467809 102.322H2.28764Z" fill="#586268"/>
<path d="M9.93616 103.843H9.48378V102.342C9.48378 102.061 9.43751 101.854 9.34498 101.72C9.25587 101.587 9.12221 101.52 8.944 101.52C8.75893 101.52 8.59271 101.587 8.44534 101.72C8.3014 101.85 8.19859 102.02 8.1369 102.229V103.843H7.68451V102.342C7.68451 102.054 7.63996 101.845 7.55085 101.715C7.46174 101.585 7.32808 101.52 7.14987 101.52C6.96823 101.52 6.80373 101.585 6.65636 101.715C6.50899 101.842 6.40446 102.012 6.34277 102.224V103.843H5.89039V101.16H6.30165V101.736C6.41132 101.537 6.55354 101.384 6.72833 101.278C6.90312 101.168 7.10018 101.114 7.31952 101.114C7.54571 101.114 7.72392 101.175 7.85416 101.299C7.98782 101.419 8.07007 101.575 8.10091 101.766C8.34081 101.331 8.68182 101.114 9.12392 101.114C9.27815 101.114 9.40666 101.143 9.50948 101.201C9.61572 101.256 9.69969 101.335 9.76138 101.437C9.82307 101.537 9.86762 101.655 9.89504 101.792C9.92245 101.929 9.93616 102.078 9.93616 102.239V103.843Z" fill="#586268"/>
<path d="M14.7573 103.895C14.5345 103.895 14.3375 103.84 14.1661 103.73C13.9982 103.621 13.8645 103.482 13.7651 103.314V104.938H13.3128V101.16H13.7137V101.664C13.82 101.499 13.9571 101.367 14.125 101.268C14.2964 101.165 14.4848 101.114 14.6905 101.114C14.8755 101.114 15.0452 101.151 15.1994 101.227C15.3536 101.302 15.4873 101.405 15.6004 101.535C15.7135 101.662 15.8009 101.809 15.8626 101.977C15.9277 102.145 15.9602 102.32 15.9602 102.502C15.9602 102.694 15.9311 102.875 15.8729 103.047C15.8146 103.214 15.7323 103.362 15.6261 103.489C15.5199 103.612 15.3931 103.711 15.2457 103.787C15.0983 103.859 14.9355 103.895 14.7573 103.895ZM14.6185 103.504C14.7522 103.504 14.8721 103.477 14.9784 103.422C15.088 103.364 15.1806 103.288 15.256 103.196C15.3348 103.1 15.3948 102.992 15.4359 102.872C15.477 102.752 15.4976 102.628 15.4976 102.502C15.4976 102.368 15.4736 102.241 15.4256 102.121C15.3776 101.998 15.3125 101.892 15.2303 101.802C15.148 101.71 15.0503 101.638 14.9372 101.587C14.8276 101.532 14.7076 101.504 14.5774 101.504C14.4951 101.504 14.4095 101.521 14.3203 101.556C14.2347 101.587 14.1524 101.629 14.0736 101.684C13.9982 101.736 13.9314 101.799 13.8731 101.874C13.8183 101.946 13.7823 102.024 13.7651 102.106V102.872C13.8028 102.961 13.8508 103.045 13.9091 103.124C13.9673 103.199 14.0342 103.266 14.1096 103.324C14.185 103.379 14.2655 103.424 14.3512 103.458C14.4369 103.489 14.526 103.504 14.6185 103.504Z" fill="#586268"/>
<path d="M20.361 103.895C20.1588 103.895 19.9737 103.857 19.8058 103.782C19.6413 103.706 19.499 103.605 19.3791 103.478C19.2626 103.352 19.1717 103.204 19.1066 103.036C19.0415 102.868 19.009 102.692 19.009 102.507C19.009 102.318 19.0415 102.14 19.1066 101.972C19.1752 101.804 19.2677 101.657 19.3842 101.53C19.5042 101.403 19.6464 101.302 19.8109 101.227C19.9788 101.151 20.1622 101.114 20.361 101.114C20.5598 101.114 20.7431 101.151 20.911 101.227C21.079 101.302 21.2212 101.403 21.3377 101.53C21.4577 101.657 21.5502 101.804 21.6153 101.972C21.6839 102.14 21.7181 102.318 21.7181 102.507C21.7181 102.692 21.6856 102.868 21.6205 103.036C21.5553 103.204 21.4628 103.352 21.3429 103.478C21.2229 103.605 21.079 103.706 20.911 103.782C20.7465 103.857 20.5632 103.895 20.361 103.895ZM19.4716 102.512C19.4716 102.652 19.4939 102.783 19.5385 102.903C19.5864 103.023 19.6498 103.127 19.7287 103.216C19.8109 103.305 19.9052 103.376 20.0114 103.427C20.1211 103.478 20.2376 103.504 20.361 103.504C20.4844 103.504 20.5992 103.478 20.7054 103.427C20.8151 103.376 20.911 103.305 20.9933 103.216C21.0755 103.124 21.1389 103.017 21.1835 102.897C21.2315 102.774 21.2555 102.642 21.2555 102.502C21.2555 102.365 21.2315 102.236 21.1835 102.116C21.1389 101.993 21.0755 101.886 20.9933 101.797C20.911 101.705 20.8151 101.633 20.7054 101.581C20.5992 101.53 20.4844 101.504 20.361 101.504C20.2376 101.504 20.1211 101.532 20.0114 101.587C19.9052 101.638 19.8109 101.71 19.7287 101.802C19.6498 101.892 19.5864 101.998 19.5385 102.121C19.4939 102.241 19.4716 102.371 19.4716 102.512Z" fill="#586268"/>
<path d="M28.2112 101.16H28.6482L27.5069 103.843H27.1316L26.5919 102.532L26.0572 103.843H25.6819L24.5407 101.16H24.9725L25.8979 103.396L26.3502 102.281L25.8876 101.165H26.2628L26.5919 102.024L26.9209 101.165H27.2961L26.8386 102.281L27.291 103.396L28.2112 101.16Z" fill="#586268"/>
<path d="M32.8415 103.895C32.6393 103.895 32.4543 103.859 32.2863 103.787C32.1184 103.711 31.9745 103.61 31.8545 103.483C31.7346 103.357 31.6403 103.209 31.5718 103.041C31.5067 102.87 31.4741 102.69 31.4741 102.502C31.4741 102.313 31.5067 102.135 31.5718 101.967C31.6403 101.799 31.7346 101.652 31.8545 101.525C31.9779 101.398 32.1235 101.299 32.2915 101.227C32.4594 101.151 32.6445 101.114 32.8467 101.114C33.0489 101.114 33.2322 101.151 33.3967 101.227C33.5647 101.302 33.7069 101.403 33.8234 101.53C33.9399 101.653 34.029 101.799 34.0907 101.967C34.1559 102.131 34.1884 102.303 34.1884 102.481C34.1884 102.519 34.1867 102.553 34.1833 102.584C34.1833 102.615 34.1816 102.639 34.1781 102.656H31.9522C31.9625 102.789 31.9933 102.911 32.0447 103.021C32.0961 103.13 32.163 103.225 32.2452 103.304C32.3275 103.382 32.42 103.444 32.5228 103.489C32.6291 103.533 32.7404 103.555 32.857 103.555C32.9392 103.555 33.0197 103.545 33.0986 103.525C33.1774 103.501 33.2511 103.47 33.3196 103.432C33.3882 103.394 33.4481 103.348 33.4996 103.293C33.5544 103.238 33.5955 103.177 33.6229 103.108L34.0136 103.216C33.9691 103.316 33.9074 103.406 33.8286 103.489C33.7532 103.571 33.6641 103.643 33.5612 103.705C33.4619 103.763 33.3505 103.809 33.2271 103.843C33.1037 103.878 32.9752 103.895 32.8415 103.895ZM33.7617 102.322C33.7514 102.195 33.7189 102.078 33.6641 101.972C33.6127 101.862 33.5458 101.77 33.4636 101.694C33.3847 101.619 33.2922 101.561 33.186 101.52C33.0797 101.475 32.9666 101.453 32.8467 101.453C32.7267 101.453 32.6136 101.475 32.5074 101.52C32.4011 101.561 32.3069 101.621 32.2246 101.7C32.1458 101.775 32.0807 101.866 32.0293 101.972C31.9813 102.078 31.9522 102.195 31.9419 102.322H33.7617Z" fill="#586268"/>
<path d="M38.7833 101.556C38.5571 101.563 38.3566 101.621 38.1819 101.73C38.0105 101.84 37.8888 101.993 37.8169 102.188V103.843H37.3645V101.16H37.786V101.782C37.8786 101.597 38.0002 101.448 38.151 101.335C38.3018 101.218 38.4629 101.153 38.6342 101.139C38.6685 101.139 38.6976 101.139 38.7216 101.139C38.7456 101.139 38.7662 101.141 38.7833 101.144V101.556Z" fill="#586268"/>
<path d="M43.0325 103.895C42.8303 103.895 42.6452 103.859 42.4773 103.787C42.3094 103.711 42.1654 103.61 42.0455 103.483C41.9255 103.357 41.8313 103.209 41.7627 103.041C41.6976 102.87 41.665 102.69 41.665 102.502C41.665 102.313 41.6976 102.135 41.7627 101.967C41.8313 101.799 41.9255 101.652 42.0455 101.525C42.1688 101.398 42.3145 101.299 42.4824 101.227C42.6504 101.151 42.8354 101.114 43.0376 101.114C43.2398 101.114 43.4232 101.151 43.5877 101.227C43.7556 101.302 43.8979 101.403 44.0144 101.53C44.1309 101.653 44.22 101.799 44.2817 101.967C44.3468 102.131 44.3794 102.303 44.3794 102.481C44.3794 102.519 44.3777 102.553 44.3742 102.584C44.3742 102.615 44.3725 102.639 44.3691 102.656H42.1431C42.1534 102.789 42.1843 102.911 42.2357 103.021C42.2871 103.13 42.3539 103.225 42.4362 103.304C42.5184 103.382 42.6109 103.444 42.7138 103.489C42.82 103.533 42.9314 103.555 43.0479 103.555C43.1302 103.555 43.2107 103.545 43.2895 103.525C43.3684 103.501 43.442 103.47 43.5106 103.432C43.5791 103.394 43.6391 103.348 43.6905 103.293C43.7453 103.238 43.7865 103.177 43.8139 103.108L44.2046 103.216C44.16 103.316 44.0983 103.406 44.0195 103.489C43.9441 103.571 43.855 103.643 43.7522 103.705C43.6528 103.763 43.5414 103.809 43.418 103.843C43.2947 103.878 43.1661 103.895 43.0325 103.895ZM43.9527 102.322C43.9424 102.195 43.9098 102.078 43.855 101.972C43.8036 101.862 43.7368 101.77 43.6545 101.694C43.5757 101.619 43.4832 101.561 43.3769 101.52C43.2707 101.475 43.1576 101.453 43.0376 101.453C42.9177 101.453 42.8046 101.475 42.6983 101.52C42.5921 101.561 42.4978 101.621 42.4156 101.7C42.3368 101.775 42.2717 101.866 42.2202 101.972C42.1723 102.078 42.1431 102.195 42.1329 102.322H43.9527Z" fill="#586268"/>
<path d="M48.6607 103.895C48.4756 103.895 48.3043 103.857 48.1466 103.782C47.989 103.706 47.8536 103.605 47.7405 103.478C47.6274 103.352 47.5383 103.204 47.4732 103.036C47.4115 102.868 47.3806 102.692 47.3806 102.507C47.3806 102.318 47.4098 102.14 47.468 101.972C47.5297 101.801 47.6137 101.652 47.7199 101.525C47.8296 101.398 47.9581 101.299 48.1055 101.227C48.2563 101.151 48.4208 101.114 48.599 101.114C48.8149 101.114 49.0068 101.17 49.1748 101.283C49.3461 101.396 49.4815 101.533 49.5809 101.694V100.091H50.0333V103.288C50.0333 103.394 50.0813 103.449 50.1772 103.453V103.843C50.1292 103.85 50.0898 103.855 50.059 103.859C50.0316 103.862 50.0041 103.864 49.9767 103.864C49.8876 103.864 49.8088 103.835 49.7403 103.776C49.6751 103.715 49.6426 103.645 49.6426 103.566V103.34C49.5363 103.514 49.3941 103.651 49.2159 103.751C49.0411 103.847 48.856 103.895 48.6607 103.895ZM48.7687 103.504C48.8509 103.504 48.9349 103.489 49.0205 103.458C49.1097 103.427 49.1919 103.384 49.2673 103.329C49.3461 103.274 49.413 103.211 49.4678 103.139C49.5261 103.064 49.5638 102.985 49.5809 102.903V102.131C49.55 102.046 49.5038 101.965 49.4421 101.89C49.3804 101.811 49.3101 101.744 49.2313 101.689C49.1559 101.631 49.0737 101.587 48.9846 101.556C48.8989 101.521 48.8132 101.504 48.7275 101.504C48.5939 101.504 48.4722 101.533 48.3625 101.592C48.2563 101.647 48.1638 101.722 48.0849 101.818C48.0095 101.91 47.9513 102.018 47.9101 102.142C47.869 102.262 47.8485 102.385 47.8485 102.512C47.8485 102.646 47.8724 102.774 47.9204 102.897C47.9684 103.017 48.0335 103.122 48.1158 103.211C48.198 103.3 48.294 103.372 48.4037 103.427C48.5168 103.478 48.6384 103.504 48.7687 103.504Z" fill="#586268"/>
<path d="M58.8129 103.895C58.6038 103.895 58.4136 103.843 58.2422 103.741C58.0709 103.638 57.9355 103.504 57.8361 103.34V103.843H57.4351V100.091H57.8875V101.694C58.0006 101.52 58.1394 101.379 58.3039 101.273C58.4684 101.167 58.6603 101.114 58.8797 101.114C59.0647 101.114 59.231 101.153 59.3783 101.232C59.5257 101.311 59.6508 101.415 59.7536 101.545C59.8599 101.672 59.9404 101.821 59.9952 101.993C60.0535 102.161 60.0826 102.334 60.0826 102.512C60.0826 102.7 60.0501 102.879 59.9849 103.047C59.9198 103.214 59.8307 103.362 59.7176 103.489C59.6045 103.612 59.4692 103.711 59.3115 103.787C59.1573 103.859 58.9911 103.895 58.8129 103.895ZM58.6998 103.504C58.8334 103.504 58.9568 103.477 59.0699 103.422C59.183 103.367 59.2807 103.293 59.3629 103.201C59.4452 103.108 59.5086 103.004 59.5531 102.887C59.5977 102.767 59.6199 102.642 59.6199 102.512C59.6199 102.382 59.5977 102.257 59.5531 102.137C59.512 102.013 59.452 101.905 59.3732 101.813C59.2978 101.72 59.2053 101.647 59.0956 101.592C58.9893 101.533 58.8711 101.504 58.7409 101.504C58.6449 101.504 58.5541 101.521 58.4684 101.556C58.3827 101.59 58.3022 101.636 58.2268 101.694C58.1548 101.749 58.0897 101.814 58.0315 101.89C57.9766 101.965 57.9286 102.046 57.8875 102.131V102.908C57.9046 102.993 57.9406 103.072 57.9955 103.144C58.0537 103.216 58.1206 103.28 58.196 103.334C58.2748 103.386 58.357 103.427 58.4427 103.458C58.5318 103.489 58.6175 103.504 58.6998 103.504Z" fill="#586268"/>
<path d="M63.3443 104.573C63.3888 104.58 63.4334 104.585 63.4779 104.589C63.5225 104.592 63.5568 104.594 63.5807 104.594C63.6219 104.594 63.6579 104.584 63.6887 104.563C63.723 104.546 63.7555 104.51 63.7864 104.455C63.8206 104.4 63.8583 104.323 63.8995 104.224C63.9406 104.128 63.992 104.001 64.0537 103.843L62.9176 101.16H63.3854L64.3004 103.437L65.1332 101.16H65.5651L64.2593 104.548C64.2113 104.668 64.1308 104.772 64.0177 104.861C63.908 104.954 63.7555 105 63.5602 105C63.5293 105 63.4968 104.998 63.4625 104.995C63.4317 104.991 63.3922 104.985 63.3443 104.974V104.573Z" fill="#586268"/>
<path d="M72.5283 103.843V101.16H72.9807V103.843H72.5283ZM72.5283 100.656V100.091H72.9807V100.656H72.5283Z" fill="#586268"/>
<path d="M78.715 103.843H78.2626V102.342C78.2626 102.054 78.2181 101.845 78.129 101.715C78.0433 101.585 77.9113 101.52 77.7331 101.52C77.6406 101.52 77.5481 101.539 77.4555 101.576C77.363 101.611 77.2756 101.659 77.1934 101.72C77.1111 101.782 77.0391 101.856 76.9774 101.941C76.9158 102.027 76.8695 102.121 76.8386 102.224V103.843H76.3863V101.16H76.7975V101.736C76.9038 101.547 77.0563 101.396 77.255 101.283C77.4572 101.17 77.6766 101.114 77.9131 101.114C78.0673 101.114 78.1958 101.143 78.2986 101.201C78.4014 101.256 78.4837 101.335 78.5454 101.437C78.6071 101.537 78.6499 101.655 78.6739 101.792C78.7013 101.929 78.715 102.078 78.715 102.239V103.843Z" fill="#586268"/>
<path d="M84.4205 103.843H83.9681V102.342C83.9681 102.054 83.9235 101.845 83.8344 101.715C83.7487 101.585 83.6168 101.52 83.4386 101.52C83.346 101.52 83.2535 101.539 83.161 101.576C83.0684 101.611 82.981 101.659 82.8988 101.72C82.8165 101.782 82.7446 101.856 82.6829 101.941C82.6212 102.027 82.5749 102.121 82.5441 102.224V103.843H82.0917V101.16H82.503V101.736C82.6092 101.547 82.7617 101.396 82.9605 101.283C83.1627 101.17 83.382 101.114 83.6185 101.114C83.7727 101.114 83.9012 101.143 84.0041 101.201C84.1069 101.256 84.1891 101.335 84.2508 101.437C84.3125 101.537 84.3553 101.655 84.3793 101.792C84.4067 101.929 84.4205 102.078 84.4205 102.239V103.843Z" fill="#586268"/>
<path d="M88.9692 103.895C88.767 103.895 88.582 103.857 88.414 103.782C88.2495 103.706 88.1073 103.605 87.9873 103.478C87.8708 103.352 87.78 103.204 87.7149 103.036C87.6498 102.868 87.6172 102.692 87.6172 102.507C87.6172 102.318 87.6498 102.14 87.7149 101.972C87.7834 101.804 87.876 101.657 87.9925 101.53C88.1124 101.403 88.2547 101.302 88.4192 101.227C88.5871 101.151 88.7704 101.114 88.9692 101.114C89.168 101.114 89.3513 101.151 89.5193 101.227C89.6872 101.302 89.8294 101.403 89.946 101.53C90.0659 101.657 90.1585 101.804 90.2236 101.972C90.2921 102.14 90.3264 102.318 90.3264 102.507C90.3264 102.692 90.2938 102.868 90.2287 103.036C90.1636 103.204 90.0711 103.352 89.9511 103.478C89.8312 103.605 89.6872 103.706 89.5193 103.782C89.3548 103.857 89.1714 103.895 88.9692 103.895ZM88.0799 102.512C88.0799 102.652 88.1021 102.783 88.1467 102.903C88.1947 103.023 88.2581 103.127 88.3369 103.216C88.4192 103.305 88.5134 103.376 88.6197 103.427C88.7293 103.478 88.8458 103.504 88.9692 103.504C89.0926 103.504 89.2074 103.478 89.3137 103.427C89.4233 103.376 89.5193 103.305 89.6015 103.216C89.6838 103.124 89.7472 103.017 89.7917 102.897C89.8397 102.774 89.8637 102.642 89.8637 102.502C89.8637 102.365 89.8397 102.236 89.7917 102.116C89.7472 101.993 89.6838 101.886 89.6015 101.797C89.5193 101.705 89.4233 101.633 89.3137 101.581C89.2074 101.53 89.0926 101.504 88.9692 101.504C88.8458 101.504 88.7293 101.532 88.6197 101.587C88.5134 101.638 88.4192 101.71 88.3369 101.802C88.2581 101.892 88.1947 101.998 88.1467 102.121C88.1021 102.241 88.0799 102.371 88.0799 102.512Z" fill="#586268"/>
<path d="M94.2336 103.843L93.1746 101.16H93.6425L94.4907 103.447L95.344 101.16H95.7759L94.7169 103.843H94.2336Z" fill="#586268"/>
<path d="M99.5203 103.895C99.3935 103.895 99.2753 103.874 99.1656 103.833C99.056 103.788 98.96 103.729 98.8778 103.653C98.7989 103.578 98.7355 103.49 98.6875 103.391C98.643 103.288 98.6207 103.177 98.6207 103.057C98.6207 102.933 98.6481 102.822 98.703 102.723C98.7578 102.62 98.8349 102.532 98.9343 102.46C99.0371 102.388 99.1571 102.332 99.2942 102.291C99.4347 102.25 99.5872 102.229 99.7517 102.229C99.8819 102.229 100.014 102.241 100.148 102.265C100.281 102.289 100.399 102.322 100.502 102.363V102.147C100.502 101.928 100.441 101.756 100.317 101.633C100.194 101.506 100.019 101.443 99.7928 101.443C99.5221 101.443 99.2376 101.547 98.9394 101.756L98.7904 101.463C99.1365 101.23 99.4844 101.114 99.8339 101.114C100.187 101.114 100.461 101.208 100.656 101.396C100.855 101.585 100.955 101.85 100.955 102.193V103.288C100.955 103.394 101.003 103.449 101.099 103.453V103.843C101.051 103.85 101.011 103.855 100.98 103.859C100.949 103.862 100.917 103.864 100.883 103.864C100.794 103.864 100.722 103.838 100.667 103.787C100.615 103.732 100.584 103.667 100.574 103.591L100.564 103.401C100.444 103.562 100.291 103.686 100.106 103.771C99.9248 103.854 99.7294 103.895 99.5203 103.895ZM99.6386 103.555C99.7997 103.555 99.9487 103.526 100.086 103.468C100.226 103.406 100.333 103.326 100.405 103.226C100.47 103.161 100.502 103.094 100.502 103.026V102.63C100.283 102.544 100.055 102.502 99.8185 102.502C99.5923 102.502 99.4072 102.55 99.2633 102.646C99.1228 102.741 99.0525 102.867 99.0525 103.021C99.0525 103.096 99.0662 103.166 99.0937 103.232C99.1245 103.297 99.1656 103.353 99.217 103.401C99.2719 103.449 99.3353 103.487 99.4072 103.514C99.4792 103.542 99.5563 103.555 99.6386 103.555Z" fill="#586268"/>
<path d="M105.719 103.71C105.692 103.723 105.656 103.741 105.611 103.761C105.567 103.778 105.515 103.797 105.457 103.818C105.402 103.835 105.34 103.848 105.272 103.859C105.207 103.872 105.138 103.879 105.066 103.879C104.902 103.879 104.759 103.835 104.64 103.746C104.52 103.653 104.46 103.511 104.46 103.319V101.515H104.095V101.16H104.46V100.265H104.912V101.16H105.513V101.515H104.912V103.18C104.919 103.28 104.951 103.352 105.01 103.396C105.068 103.441 105.136 103.463 105.215 103.463C105.304 103.463 105.385 103.449 105.457 103.422C105.532 103.391 105.584 103.367 105.611 103.35L105.719 103.71Z" fill="#586268"/>
<path d="M108.812 103.843V101.16H109.264V103.843H108.812ZM108.812 100.656V100.091H109.264V100.656H108.812Z" fill="#586268"/>
<path d="M113.842 103.895C113.639 103.895 113.454 103.857 113.286 103.782C113.122 103.706 112.98 103.605 112.86 103.478C112.743 103.352 112.652 103.204 112.587 103.036C112.522 102.868 112.49 102.692 112.49 102.507C112.49 102.318 112.522 102.14 112.587 101.972C112.656 101.804 112.748 101.657 112.865 101.53C112.985 101.403 113.127 101.302 113.292 101.227C113.46 101.151 113.643 101.114 113.842 101.114C114.04 101.114 114.224 101.151 114.392 101.227C114.56 101.302 114.702 101.403 114.818 101.53C114.938 101.657 115.031 101.804 115.096 101.972C115.165 102.14 115.199 102.318 115.199 102.507C115.199 102.692 115.166 102.868 115.101 103.036C115.036 103.204 114.943 103.352 114.824 103.478C114.704 103.605 114.56 103.706 114.392 103.782C114.227 103.857 114.044 103.895 113.842 103.895ZM112.952 102.512C112.952 102.652 112.975 102.783 113.019 102.903C113.067 103.023 113.131 103.127 113.209 103.216C113.292 103.305 113.386 103.376 113.492 103.427C113.602 103.478 113.718 103.504 113.842 103.504C113.965 103.504 114.08 103.478 114.186 103.427C114.296 103.376 114.392 103.305 114.474 103.216C114.556 103.124 114.62 103.017 114.664 102.897C114.712 102.774 114.736 102.642 114.736 102.502C114.736 102.365 114.712 102.236 114.664 102.116C114.62 101.993 114.556 101.886 114.474 101.797C114.392 101.705 114.296 101.633 114.186 101.581C114.08 101.53 113.965 101.504 113.842 101.504C113.718 101.504 113.602 101.532 113.492 101.587C113.386 101.638 113.292 101.71 113.209 101.802C113.131 101.892 113.067 101.998 113.019 102.121C112.975 102.241 112.952 102.371 112.952 102.512Z" fill="#586268"/>
<path d="M120.749 103.843H120.297V102.342C120.297 102.054 120.252 101.845 120.163 101.715C120.077 101.585 119.945 101.52 119.767 101.52C119.675 101.52 119.582 101.539 119.489 101.576C119.397 101.611 119.31 101.659 119.227 101.72C119.145 101.782 119.073 101.856 119.011 101.941C118.95 102.027 118.903 102.121 118.873 102.224V103.843H118.42V101.16H118.831V101.736C118.938 101.547 119.09 101.396 119.289 101.283C119.491 101.17 119.711 101.114 119.947 101.114C120.101 101.114 120.23 101.143 120.333 101.201C120.435 101.256 120.518 101.335 120.579 101.437C120.641 101.537 120.684 101.655 120.708 101.792C120.735 101.929 120.749 102.078 120.749 102.239V103.843Z" fill="#586268"/>
<path fill-rule="evenodd" clip-rule="evenodd" d="M98.2603 36.3709L61.8894 0L53.1177 8.77172L77.477 33.131C78.0859 32.7404 78.8102 32.5138 79.5874 32.5138C81.7488 32.5138 83.501 34.266 83.501 36.4275C83.501 38.5889 81.7488 40.3411 79.5874 40.3411C77.426 40.3411 75.6738 38.5889 75.6738 36.4275C75.6738 35.6503 75.9003 34.926 76.291 34.317L51.9317 9.95772L35.0871 26.8023L59.5862 51.3014C60.1951 50.9108 60.9194 50.6842 61.6966 50.6842C63.858 50.6842 65.6102 52.4364 65.6102 54.5979C65.6102 56.7593 63.858 58.5115 61.6966 58.5115C59.5351 58.5115 57.7829 56.7593 57.7829 54.5979C57.7829 53.8207 58.0095 53.0964 58.4002 52.4874L33.9011 27.9883L25.5186 36.3709L61.8894 72.7417L98.2603 36.3709ZM52.867 23.6842C50.7055 23.6842 48.9533 25.4364 48.9533 27.5978C48.9533 29.7593 50.7055 31.5115 52.867 31.5115C53.6441 31.5115 54.3684 31.2849 54.9773 30.8943L78.9467 54.8636L80.1327 53.6776L56.1634 29.7083C56.554 29.0993 56.7806 28.375 56.7806 27.5978C56.7806 25.4364 55.0284 23.6842 52.867 23.6842ZM51.1805 27.5978C51.1805 26.6665 51.9356 25.9114 52.8669 25.9114C53.7983 25.9114 54.5534 26.6665 54.5534 27.5978C54.5534 28.5292 53.7983 29.2843 52.8669 29.2843C51.9356 29.2843 51.1805 28.5292 51.1805 27.5978ZM79.5874 38.1139C80.5188 38.1139 81.2738 37.3588 81.2738 36.4275C81.2738 35.4961 80.5188 34.741 79.5874 34.741C78.656 34.741 77.901 35.4961 77.901 36.4275C77.901 37.3588 78.656 38.1139 79.5874 38.1139ZM61.6966 56.2843C62.628 56.2843 63.383 55.5293 63.383 54.5979C63.383 53.6665 62.628 52.9114 61.6966 52.9114C60.7652 52.9114 60.0102 53.6665 60.0102 54.5979C60.0102 55.5293 60.7652 56.2843 61.6966 56.2843Z" fill="#3F79FF"/>
</svg>
