<svg width="55" height="55" viewBox="0 0 55 55" fill="none" xmlns="http://www.w3.org/2000/svg">
<path d="M11.791 14.6666H13.605V16.5H11.791V14.6666Z" fill="#2770F1"/>
<path d="M17.2329 14.6666H19.0469V16.5H17.2329V14.6666Z" fill="#2770F1"/>
<path d="M54.9635 29.7825C55.028 29.3887 55.0069 28.9855 54.9017 28.6007C54.7964 28.216 54.6096 27.859 54.3542 27.5546C54.0987 27.2502 53.7807 27.0056 53.4223 26.8379C53.0639 26.6702 52.6737 26.5833 52.2788 26.5834H37.6763C36.818 26.5819 35.9872 26.8891 35.3324 27.4501C34.6777 28.011 34.2418 28.789 34.1027 29.645L32.4883 39.4167H28.7515L26.1303 32.1292C25.835 31.3219 25.3839 30.582 24.8031 29.9525C24.2223 29.3231 23.5235 28.8166 22.7473 28.4625L17.2328 25.9875V25.1809C18.8227 24.614 20.1997 23.5631 21.1743 22.1726C22.1488 20.7822 22.673 19.1207 22.6747 17.4167V5.50004C22.6747 5.25693 22.5791 5.02377 22.409 4.85186C22.239 4.67995 22.0083 4.58337 21.7677 4.58337H10.8839C9.68111 4.58337 8.52763 5.06626 7.67717 5.9258C6.8267 6.78534 6.34891 7.95113 6.34891 9.16671V12.8792C5.5778 12.9888 4.87393 13.3824 4.37248 13.9845C3.87102 14.5866 3.60735 15.3548 3.63209 16.1414C3.65684 16.928 3.96825 17.6776 4.50654 18.2463C5.04482 18.815 5.77201 19.1627 6.54845 19.2225C7.01695 21.2843 8.24227 23.0895 9.97687 24.2734V25.9417L5.37844 27.6375C3.80292 28.2134 2.44126 29.266 1.47886 30.652C0.516461 32.038 7.23699e-05 33.6901 0 35.3834V40.3334C0.00275115 41.3291 0.331199 42.2959 0.934197 43.0834H0.906988C0.66644 43.0834 0.435744 43.18 0.265651 43.3519C0.0955573 43.5238 0 43.7569 0 44V47.6667C0 47.9098 0.0955573 48.143 0.265651 48.3149C0.435744 48.4868 0.66644 48.5834 0.906988 48.5834H2.72096V54.0834C2.72096 54.3265 2.81652 54.5597 2.98661 54.7316C3.15671 54.9035 3.3874 55 3.62795 55H50.7913C51.0319 55 51.2626 54.9035 51.4327 54.7316C51.6027 54.5597 51.6983 54.3265 51.6983 54.0834V48.5834H53.5123C53.7528 48.5834 53.9835 48.4868 54.1536 48.3149C54.3237 48.143 54.4193 47.9098 54.4193 47.6667V44C54.4193 43.7569 54.3237 43.5238 54.1536 43.3519C53.9835 43.18 53.7528 43.0834 53.5123 43.0834H52.7232C52.7816 42.9331 52.8212 42.7761 52.8411 42.6159L54.9635 29.7825ZM6.34891 17.3342C6.08382 17.2404 5.85413 17.0656 5.69163 16.834C5.52912 16.6025 5.44183 16.3256 5.44183 16.0417C5.44183 15.7578 5.52912 15.481 5.69163 15.2494C5.85413 15.0178 6.08382 14.8431 6.34891 14.7492V17.3342ZM35.8895 29.9475C35.9584 29.5192 36.1761 29.1298 36.5036 28.8492C36.8311 28.5686 37.2469 28.4152 37.6763 28.4167H37.9302L35.5086 43.0834H33.7218L35.8895 29.9475ZM32.189 41.25L31.8806 43.0834H25.3957C25.1551 43.0834 24.9244 42.9868 24.7543 42.8149C24.5842 42.643 24.4887 42.4098 24.4887 42.1667V41.25H32.189ZM8.16289 9.16671C8.16504 8.43803 8.45241 7.73982 8.96222 7.22457C9.47203 6.70931 10.1629 6.41888 10.8839 6.41671H20.8607V9.35921C20.3256 9.44171 19.8358 9.54254 19.3642 9.63421C18.0686 9.92539 16.746 10.076 15.4188 10.0834C14.598 10.1294 13.7773 9.99164 13.0153 9.68004C12.0489 9.29686 11.014 9.12201 9.97687 9.16671C9.73632 9.16671 9.50562 9.26328 9.33553 9.43519C9.16544 9.6071 9.06988 9.84026 9.06988 10.0834V11.9167C9.06988 12.1598 8.97432 12.393 8.80423 12.5649C8.63413 12.7368 8.40344 12.8334 8.16289 12.8334V9.16671ZM8.16289 17.4167V14.6667C8.88387 14.6645 9.57471 14.3741 10.0845 13.8588C10.5943 13.3436 10.8817 12.6454 10.8839 11.9167V11.0367C11.3991 11.0756 11.9047 11.1995 12.3804 11.4034C13.3467 11.7866 14.3817 11.9614 15.4188 11.9167C16.8618 11.9096 18.3 11.7468 19.7088 11.4309C20.0807 11.3575 20.4616 11.2842 20.8607 11.2109V17.4167C20.8607 19.1185 20.1918 20.7506 19.0012 21.954C17.8105 23.1573 16.1956 23.8334 14.5118 23.8334C12.828 23.8334 11.2131 23.1573 10.0224 21.954C8.83179 20.7506 8.16289 19.1185 8.16289 17.4167ZM15.4188 25.6117V26.5834C15.4188 27.0696 15.2277 27.5359 14.8875 27.8797C14.5473 28.2236 14.0859 28.4167 13.6048 28.4167C13.1237 28.4167 12.6623 28.2236 12.3221 27.8797C11.982 27.5359 11.7908 27.0696 11.7908 26.5834V25.1809C12.663 25.5014 13.5838 25.6658 14.5118 25.6667C14.815 25.6669 15.1178 25.6486 15.4188 25.6117ZM1.81398 35.3834C1.81415 34.0669 2.21563 32.7825 2.96377 31.7049C3.71192 30.6273 4.7704 29.8088 5.99519 29.3609L10.2036 27.8117C10.4494 28.5181 10.9044 29.131 11.5067 29.567C12.109 30.0031 12.8295 30.2414 13.5703 30.2494C14.3112 30.2574 15.0366 30.0348 15.648 29.6118C16.2594 29.1888 16.7272 28.586 16.9879 27.885L22.0035 30.14C22.5607 30.3903 23.0622 30.7514 23.4783 31.2019C23.8943 31.6523 24.2164 32.1828 24.4252 32.7617L26.8196 39.4167H23.6452L21.7042 34.4942C21.6331 34.3227 21.5133 34.1763 21.36 34.0735C21.2066 33.9708 21.0266 33.9162 20.8426 33.9167C20.602 33.9167 20.3713 34.0133 20.2012 34.1852C20.0311 34.3571 19.9356 34.5903 19.9356 34.8334V43.0834H16.3258C16.3234 42.2773 16.1098 41.4863 15.7067 40.7907C15.3037 40.0951 14.7255 39.5199 14.0311 39.1234L13.5957 35.64L11.7999 35.86L12.1264 38.5367C12.0176 38.5275 11.9087 38.5 11.7908 38.5H6.34891V33.9167H4.53494V39.4167C4.53494 39.6598 4.6305 39.893 4.80059 40.0649C4.97068 40.2368 5.20138 40.3334 5.44193 40.3334H9.97687V43.0834H4.53494C3.81396 43.0812 3.12312 42.7908 2.61331 42.2755C2.10349 41.7603 1.81613 41.062 1.81398 40.3334V35.3834ZM22.838 43.0834H21.7496V39.5542L22.6747 41.9009V42.1667C22.6771 42.4794 22.7324 42.7894 22.838 43.0834ZM14.5118 43.0834H11.7908V40.3334C12.5118 40.3356 13.2027 40.626 13.7125 41.1412C14.2223 41.6565 14.5097 42.3547 14.5118 43.0834ZM49.8843 53.1667H4.53494V48.5834H49.8843V53.1667ZM52.6053 46.75H1.81398V44.9167H52.6053V46.75ZM51.0543 42.3134C51.022 42.528 50.9145 42.7238 50.7513 42.8651C50.5882 43.0064 50.3803 43.0839 50.1655 43.0834H37.3498L39.7714 28.4167H52.2788C52.4104 28.4163 52.5405 28.4449 52.6601 28.5004C52.7797 28.556 52.8859 28.6371 52.9713 28.7383C53.0567 28.8395 53.1193 28.9582 53.1548 29.0863C53.1903 29.2144 53.1978 29.3487 53.1767 29.48L51.0543 42.3134Z" fill="#2770F1"/>
<path d="M45.3494 33C44.8112 33 44.2852 33.1613 43.8377 33.4635C43.3902 33.7656 43.0415 34.1951 42.8355 34.6976C42.6296 35.2001 42.5757 35.753 42.6807 36.2865C42.7857 36.8199 43.0448 37.3099 43.4254 37.6945C43.8059 38.0791 44.2907 38.3411 44.8185 38.4472C45.3464 38.5533 45.8935 38.4988 46.3906 38.2907C46.8878 38.0825 47.3128 37.7301 47.6118 37.2778C47.9108 36.8256 48.0703 36.2939 48.0703 35.75C48.0703 35.0207 47.7837 34.3212 47.2734 33.8055C46.7631 33.2897 46.071 33 45.3494 33ZM45.3494 36.6667C45.17 36.6667 44.9946 36.6129 44.8455 36.5122C44.6963 36.4115 44.5801 36.2683 44.5114 36.1008C44.4428 35.9333 44.4248 35.749 44.4598 35.5712C44.4948 35.3934 44.5812 35.23 44.708 35.1018C44.8349 34.9736 44.9965 34.8863 45.1724 34.8509C45.3484 34.8156 45.5307 34.8337 45.6965 34.9031C45.8622 34.9725 46.0039 35.09 46.1035 35.2407C46.2032 35.3915 46.2564 35.5687 46.2564 35.75C46.2564 35.9931 46.1608 36.2263 45.9907 36.3982C45.8206 36.5701 45.5899 36.6667 45.3494 36.6667Z" fill="#2770F1"/>
<path d="M51.6981 0H29.9304C29.2095 0.00217625 28.5186 0.292606 28.0088 0.80786C27.499 1.32311 27.2116 2.02132 27.2095 2.75V17.4167C27.2116 18.1453 27.499 18.8436 28.0088 19.3588C28.5186 19.8741 29.2095 20.1645 29.9304 20.1667H35.8259L38.2747 23.4667C38.3592 23.5805 38.4688 23.6729 38.5947 23.7366C38.7206 23.8002 38.8595 23.8333 39.0003 23.8333C39.1411 23.8333 39.28 23.8002 39.4059 23.7366C39.5319 23.6729 39.6414 23.5805 39.7259 23.4667L42.1748 20.1667H51.6981C52.4191 20.1645 53.11 19.8741 53.6198 19.3588C54.1296 18.8436 54.417 18.1453 54.4191 17.4167V2.75C54.417 2.02132 54.1296 1.32311 53.6198 0.80786C53.11 0.292606 52.4191 0.00217625 51.6981 0ZM52.6051 17.4167C52.6051 17.6598 52.5096 17.8929 52.3395 18.0648C52.1694 18.2368 51.9387 18.3333 51.6981 18.3333H41.7213C41.5806 18.3343 41.4421 18.3679 41.3163 18.4314C41.1905 18.495 41.0808 18.5869 40.9957 18.7L39.0003 21.3858L37.0049 18.7C36.9198 18.5869 36.8101 18.495 36.6843 18.4314C36.5585 18.3679 36.42 18.3343 36.2794 18.3333H29.9304C29.6899 18.3333 29.4592 18.2368 29.2891 18.0648C29.119 17.8929 29.0234 17.6598 29.0234 17.4167V2.75C29.0234 2.50688 29.119 2.27373 29.2891 2.10182C29.4592 1.92991 29.6899 1.83333 29.9304 1.83333H51.6981C51.9387 1.83333 52.1694 1.92991 52.3395 2.10182C52.5096 2.27373 52.6051 2.50688 52.6051 2.75V17.4167Z" fill="#2770F1"/>
<path d="M32.6514 5.5H48.9771V7.33333H32.6514V5.5Z" fill="#2770F1"/>
<path d="M32.6514 9.16663H48.9771V11H32.6514V9.16663Z" fill="#2770F1"/>
<path d="M32.6514 12.8334H48.9771V14.6667H32.6514V12.8334Z" fill="#2770F1"/>
</svg>
